<svg width="40" height="40" viewBox="0 0 40 40" fill="none" xmlns="http://www.w3.org/2000/svg">
<path d="M0.5 6.5H39.5V33.5H0.5V6.5Z" fill="#B22234"/>
<path d="M39 7V33H1V7H39ZM40 6H0V34H40V6Z" fill="#B22234"/>
<path d="M11.999 9H38.999V11H11.999V9ZM11.999 14H38.999V16H11.999V14ZM0.999023 24H38.999V26H0.999023V24ZM1.00202 19H39.002V21H1.00202V19ZM1.00202 29H39.002V31H1.00202V29Z" fill="white"/>
<path d="M0.5 6.5H19.5V20.5H0.5V6.5Z" fill="#3C3B6E"/>
<path d="M19 7V20H1V7H19ZM20 6H0V21H20V6Z" fill="black"/>
<path d="M2.5 7L2.964 7.988L4 8.146L3.25 8.915L3.427 10L2.5 9.488L1.573 10L1.75 8.915L1 8.146L2.036 7.988L2.5 7ZM5.5 10L5.964 10.988L7 11.146L6.25 11.915L6.427 13L5.5 12.488L4.573 13L4.75 11.915L4 11.146L5.036 10.988L5.5 10ZM8.5 7L8.964 7.988L10 8.146L9.25 8.915L9.427 10L8.5 9.488L7.573 10L7.75 8.915L7 8.146L8.036 7.988L8.5 7ZM11.5 10L11.964 10.988L13 11.146L12.25 11.915L12.427 13L11.5 12.488L10.573 13L10.75 11.915L10 11.146L11.036 10.988L11.5 10ZM14.5 7L14.964 7.988L16 8.146L15.25 8.915L15.427 10L14.5 9.488L13.573 10L13.75 8.915L13 8.146L14.036 7.988L14.5 7ZM2.5 13L2.964 13.988L4 14.146L3.25 14.915L3.427 16L2.5 15.488L1.573 16L1.75 14.915L1 14.146L2.036 13.988L2.5 13ZM8.5 13L8.964 13.988L10 14.146L9.25 14.915L9.427 16L8.5 15.488L7.573 16L7.75 14.915L7 14.146L8.036 13.988L8.5 13ZM14.464 13.012L14.927 14L15.964 14.158L15.214 14.927L15.391 16.012L14.464 15.5L13.536 16.012L13.714 14.927L12.964 14.158L14 14L14.464 13.012ZM5.5 16L5.964 16.988L7 17.146L6.25 17.915L6.427 19L5.5 18.488L4.573 19L4.75 17.915L4 17.146L5.036 16.988L5.5 16ZM11.5 16L11.964 16.988L13 17.146L12.25 17.915L12.427 19L11.5 18.488L10.573 19L10.75 17.915L10 17.146L11.036 16.988L11.5 16ZM17.5 16L17.964 16.988L19 17.146L18.25 17.915L18.427 19L17.5 18.488L16.573 19L16.75 17.915L16 17.146L17.036 16.988L17.5 16ZM17.5 10L17.964 10.988L19 11.146L18.25 11.915L18.427 13L17.5 12.488L16.573 13L16.75 11.915L16 11.146L17.036 10.988L17.5 10Z" fill="white"/>
</svg>
