<svg width="49" height="56" viewBox="0 0 49 56" fill="none" xmlns="http://www.w3.org/2000/svg">
<path d="M11.517 37V19.5455H23.2784V22.5881H15.2074V26.7472H22.6733V29.7898H15.2074V33.9574H23.3125V37H11.517ZM29.7749 29.4318V37H26.1442V23.9091H29.6044V26.2188H29.7578C30.0476 25.4574 30.5334 24.8551 31.2152 24.4119C31.897 23.9631 32.7237 23.7386 33.6953 23.7386C34.6044 23.7386 35.397 23.9375 36.0732 24.3352C36.7493 24.733 37.2749 25.3011 37.6499 26.0398C38.0249 26.7727 38.2124 27.6477 38.2124 28.6648V37H34.5817V29.3125C34.5874 28.5114 34.3828 27.8864 33.968 27.4375C33.5533 26.983 32.9822 26.7557 32.255 26.7557C31.7663 26.7557 31.3345 26.8608 30.9595 27.071C30.5902 27.2812 30.3004 27.5881 30.0902 27.9915C29.8857 28.3892 29.7805 28.8693 29.7749 29.4318Z" fill="inherit"/>
<rect x="1.5" y="7.5" width="46" height="41" rx="9.5" stroke="black" stroke-width="3"/>
</svg>
