<svg width="49" height="56" viewBox="0 0 49 56" fill="none" xmlns="http://www.w3.org/2000/svg">
<path d="M19.2074 19.5455V37H15.517V19.5455H19.2074ZM26.9993 37.2131C26.005 37.2131 25.1044 36.9574 24.2976 36.446C23.4964 35.929 22.8601 35.1705 22.3885 34.1705C21.9226 33.1648 21.6896 31.9318 21.6896 30.4716C21.6896 28.9716 21.9311 27.7244 22.4141 26.7301C22.897 25.7301 23.5391 24.983 24.3402 24.4886C25.147 23.9886 26.0305 23.7386 26.9908 23.7386C27.7237 23.7386 28.3345 23.8636 28.8232 24.1136C29.3175 24.358 29.7152 24.6648 30.0163 25.0341C30.3232 25.3977 30.5561 25.7557 30.7152 26.108H30.826V19.5455H34.4482V37H30.8686V34.9034H30.7152C30.5447 35.267 30.3033 35.6278 29.9908 35.9858C29.6839 36.3381 29.2834 36.6307 28.7891 36.8636C28.3004 37.0966 27.7038 37.2131 26.9993 37.2131ZM28.1499 34.3239C28.7351 34.3239 29.2294 34.1648 29.6328 33.8466C30.0419 33.5227 30.3544 33.071 30.5703 32.4915C30.7919 31.9119 30.9027 31.233 30.9027 30.4545C30.9027 29.6761 30.7947 29 30.5788 28.4261C30.3629 27.8523 30.0504 27.4091 29.6413 27.0966C29.2322 26.7841 28.7351 26.6278 28.1499 26.6278C27.5533 26.6278 27.0504 26.7898 26.6413 27.1136C26.2322 27.4375 25.9226 27.8864 25.7124 28.4602C25.5021 29.0341 25.397 29.6989 25.397 30.4545C25.397 31.2159 25.5021 31.8892 25.7124 32.4744C25.9283 33.054 26.2379 33.5085 26.6413 33.8381C27.0504 34.1619 27.5533 34.3239 28.1499 34.3239Z" fill="black"/>
<rect x="1.5" y="7.5" width="46" height="41" rx="9.5" stroke="black" stroke-width="3"/>
</svg>
