<svg width="72" height="72" viewBox="0 0 72 72" fill="none" xmlns="http://www.w3.org/2000/svg">
<path d="M0 36C0 16.1178 16.1178 0 36 0C55.8823 0 72 16.1178 72 36C72 55.8823 55.8823 72 36 72C16.1178 72 0 55.8823 0 36Z" fill="#E1BD46"/>
<path d="M44.2694 26.6058C44.6841 26.2129 45.236 25.9958 45.8086 26.0001C46.3812 26.0044 46.9298 26.2298 47.3385 26.6289C47.7472 27.0279 47.9841 27.5693 47.9992 28.1388C48.0144 28.7083 47.8065 29.2614 47.4196 29.6814L35.6726 44.2979C35.4706 44.5143 35.2268 44.688 34.9558 44.8086C34.6848 44.9292 34.3921 44.9942 34.0953 44.9996C33.7984 45.0051 33.5035 44.951 33.2282 44.8404C32.9529 44.7299 32.7028 44.5653 32.4929 44.3564L24.7028 36.6059C24.4858 36.4048 24.3118 36.1622 24.1912 35.8928C24.0705 35.6233 24.0056 35.3324 24.0003 35.0374C23.9951 34.7424 24.0497 34.4494 24.1607 34.1759C24.2718 33.9023 24.4371 33.6538 24.6467 33.4452C24.8564 33.2366 25.1062 33.0722 25.3811 32.9617C25.6561 32.8512 25.9506 32.7969 26.247 32.8021C26.5435 32.8073 26.8359 32.8719 27.1068 32.992C27.3776 33.112 27.6214 33.2852 27.8235 33.501L33.9885 39.6317L44.2134 26.6702C44.2319 26.6476 44.2515 26.6261 44.2723 26.6058H44.2694Z" fill="white"/>
</svg>
