<svg width="22" height="22" viewBox="0 0 22 22" fill="none" xmlns="http://www.w3.org/2000/svg">
<g clip-path="url(#clip0_223_768)">
<path d="M4.01707 0C1.79179 0 0 1.79179 0 4.01707V17.983C0 20.2082 1.79179 22 4.01707 22H11.5865V13.3994H9.3122V10.3029H11.5865V7.65739C11.5865 5.57894 12.9302 3.67057 16.0256 3.67057C17.2789 3.67057 18.2057 3.79089 18.2057 3.79089L18.1328 6.68252C18.1328 6.68252 17.1876 6.67359 16.1562 6.67359C15.04 6.67359 14.861 7.18791 14.861 8.04173V10.3029H18.2215L18.0751 13.3994H14.861V22H17.9829C20.2082 22 22 20.2083 22 17.983V4.01709C22 1.79181 20.2082 2.2e-05 17.9829 2.2e-05H4.01705L4.01707 0Z" fill="white"/>
</g>
<defs>
<clipPath id="clip0_223_768">
<rect width="22" height="22" fill="white"/>
</clipPath>
</defs>
</svg>
