<svg width="361" height="80" viewBox="0 0 361 80" fill="none" xmlns="http://www.w3.org/2000/svg">
<path fill-rule="evenodd" clip-rule="evenodd" d="M117.112 14.95H123.431V38.4734H117.112V14.95ZM164.051 14.95V38.4734H158.863L145.241 24.1971V38.4734H138.996V14.95H144.233L157.83 29.2262V14.95H164.051ZM188.565 38.8905C186.401 38.8905 184.311 38.6356 182.295 38.1257C180.279 37.6159 178.656 36.9669 177.426 36.1558L179.566 32.0537C180.746 32.7953 182.123 33.3979 183.746 33.8382C185.368 34.2786 186.967 34.5103 188.589 34.5103C190.384 34.5103 191.712 34.2786 192.573 33.815C193.433 33.3515 193.851 32.749 193.851 31.9842C193.851 31.4279 193.605 30.9644 193.089 30.5936C192.573 30.2228 191.933 29.9215 191.147 29.7129C190.36 29.4812 189.278 29.2494 187.926 28.9713C185.836 28.5541 184.139 28.1138 182.811 27.6966C181.484 27.2795 180.352 26.5842 179.394 25.6572C178.435 24.707 177.967 23.4555 177.967 21.9027C177.967 20.5353 178.385 19.307 179.246 18.1946C180.107 17.0821 181.41 16.2015 183.131 15.5525C184.852 14.9036 186.991 14.5792 189.475 14.5792C191.22 14.5792 192.917 14.7646 194.589 15.1122C196.261 15.4598 197.712 15.9929 198.966 16.665L197.023 20.7903C194.491 19.5619 191.983 18.9362 189.45 18.9362C187.68 18.9362 186.377 19.1911 185.516 19.6778C184.68 20.1645 184.237 20.8134 184.237 21.6246C184.237 22.4357 184.729 23.0383 185.713 23.4323C186.696 23.8263 188.171 24.2203 190.188 24.5911C192.278 25.0082 193.974 25.4486 195.302 25.8657C196.63 26.2829 197.761 26.955 198.72 27.882C199.679 28.8091 200.146 30.0374 200.146 31.6133C200.146 32.9575 199.703 34.1858 198.843 35.2983C197.982 36.4107 196.654 37.2914 194.909 37.9403C193.187 38.5661 191.073 38.8905 188.565 38.8905ZM218.808 19.3997H210.055V14.9731H233.88V19.3997H225.152V38.4965H218.833L218.808 19.3997ZM246.346 14.95H252.666V38.4734H246.346V14.95ZM273.86 19.3997H265.107V14.9731H288.933V19.3997H280.179V38.4965H273.86V19.3997ZM313.053 38.8905C309.144 38.8905 306.095 37.9635 303.931 36.1094C301.768 34.2554 300.661 31.5902 300.661 28.137V14.9731H306.98V27.9516C306.98 32.1696 309.021 34.2786 313.078 34.2786C315.07 34.2786 316.57 33.7687 317.602 32.7489C318.635 31.7292 319.176 30.1301 319.176 27.9516V14.9731H325.421V28.137C325.421 31.5902 324.339 34.2322 322.151 36.1094C319.963 37.9867 316.963 38.8905 313.053 38.8905ZM345.928 19.3997H337.174V14.9731H361V19.3997H352.247V38.4965H345.928V19.3997Z" fill="#E1BD46"/>
<path fill-rule="evenodd" clip-rule="evenodd" d="M117.112 52.7728H118.563V64.7315H117.112V52.7728ZM139.34 52.7728V64.7315H138.16L129.357 55.0209V64.7315H127.906V52.7728H129.087L137.889 62.4834V52.7728H139.34ZM148.659 52.7728H154.215C155.666 52.7728 156.945 53.0277 158.051 53.5376C159.158 54.0475 160.018 54.7427 160.633 55.6466C161.248 56.5504 161.543 57.5934 161.543 58.7521C161.543 59.9109 161.248 60.9538 160.633 61.8577C160.018 62.7615 159.158 63.48 158.051 63.9667C156.945 64.4765 155.666 64.7315 154.215 64.7315H148.659V52.7728ZM154.166 63.6422C155.371 63.6422 156.404 63.4336 157.314 63.0165C158.223 62.5993 158.912 62.0199 159.404 61.3015C159.895 60.5598 160.141 59.7255 160.141 58.7521C160.141 57.7788 159.895 56.9444 159.404 56.2028C158.912 55.4612 158.223 54.8818 157.314 54.4878C156.404 54.0706 155.371 53.8621 154.166 53.8621H150.134V63.6422H154.166ZM175.656 64.8474C174.304 64.8474 173.074 64.5924 171.968 64.0594C170.861 63.5263 170.001 62.8079 169.386 61.8809C168.772 60.9538 168.452 59.9109 168.452 58.7753C168.452 57.6165 168.772 56.5968 169.386 55.6698C170.001 54.7427 170.861 54.0243 171.968 53.4913C173.074 52.9582 174.304 52.7033 175.656 52.7033C177.008 52.7033 178.238 52.9582 179.32 53.4913C180.402 54.0243 181.262 54.7427 181.877 55.6698C182.492 56.5968 182.811 57.6397 182.811 58.7985C182.811 59.9573 182.492 61.0002 181.877 61.9272C181.262 62.8542 180.402 63.5727 179.32 64.1057C178.238 64.5924 177.008 64.8474 175.656 64.8474ZM175.656 63.7118C176.738 63.7118 177.722 63.5032 178.582 63.0628C179.443 62.6457 180.131 62.0431 180.623 61.2783C181.115 60.5135 181.361 59.6792 181.361 58.729C181.361 57.8019 181.115 56.9444 180.623 56.1796C180.131 55.4148 179.443 54.8354 178.582 54.3951C177.722 53.9779 176.738 53.7462 175.656 53.7462C174.574 53.7462 173.591 53.9548 172.706 54.3951C171.82 54.8123 171.132 55.4148 170.64 56.1796C170.148 56.9444 169.878 57.7788 169.878 58.729C169.878 59.656 170.124 60.5135 170.64 61.2783C171.132 62.0431 171.82 62.6225 172.706 63.0628C173.591 63.5032 174.574 63.7118 175.656 63.7118ZM202.383 52.7728V64.7315H201.203L192.401 55.0209V64.7315H190.95V52.7728H192.13L200.933 62.4834V52.7728H202.383ZM221.39 63.6422V64.7315H211.727V52.7728H221.095V53.8621H213.153V58.1264H220.234V59.1925H213.153V63.6422H221.39ZM233.438 64.8474C232.43 64.8474 231.446 64.7083 230.512 64.4302C229.577 64.1521 228.864 63.7581 228.348 63.2946L228.914 62.3212C229.405 62.7615 230.069 63.1092 230.881 63.3641C231.692 63.6422 232.553 63.7581 233.413 63.7581C234.643 63.7581 235.552 63.5727 236.167 63.1787C236.782 62.7847 237.077 62.2748 237.077 61.6491C237.077 61.1624 236.905 60.7916 236.585 60.5135C236.241 60.2354 235.847 60.0036 235.356 59.8646C234.864 59.7024 234.2 59.5401 233.339 59.3547C232.307 59.1229 231.495 58.9144 230.881 58.7058C230.266 58.4972 229.75 58.1727 229.307 57.7324C228.864 57.2921 228.643 56.7127 228.643 55.9711C228.643 55.3685 228.815 54.8123 229.184 54.3256C229.553 53.8389 230.118 53.4449 230.856 53.1436C231.618 52.8423 232.553 52.7033 233.659 52.7033C234.446 52.7033 235.208 52.796 235.946 52.9814C236.683 53.1668 237.347 53.4217 237.888 53.7694L237.396 54.7891C236.831 54.4646 236.216 54.2097 235.552 54.0475C234.913 53.8852 234.274 53.7925 233.634 53.7925C232.43 53.7925 231.545 54.0011 230.93 54.3951C230.315 54.7891 230.02 55.3221 230.02 55.9479C230.02 56.4346 230.192 56.8054 230.512 57.1067C230.856 57.408 231.249 57.6165 231.766 57.7788C232.258 57.941 232.946 58.1032 233.782 58.2886C234.79 58.4972 235.602 58.729 236.216 58.9376C236.831 59.1461 237.347 59.4706 237.79 59.8878C238.208 60.3049 238.429 60.8843 238.429 61.6259C238.429 62.2285 238.232 62.7847 237.864 63.2714C237.495 63.7581 236.929 64.1521 236.142 64.4534C235.503 64.7083 234.569 64.8474 233.438 64.8474ZM246.568 52.7728H248.018V64.7315H246.568V52.7728ZM265.918 61.5564H258.296L256.649 64.7547H255.149L261.394 52.796H262.82L269.066 64.7547H267.541L265.918 61.5564ZM265.402 60.5135L262.132 54.0938L258.862 60.5135H265.402Z" fill="white"/>
<path fill-rule="evenodd" clip-rule="evenodd" d="M95.0322 79.1469V0.256622H96.3108V79.1469H95.0322Z" fill="#E1BD46"/>
<path fill-rule="evenodd" clip-rule="evenodd" d="M44.2337 65.6122C46.1515 62.6457 51.2658 57.5702 63.9286 57.547C62.3304 59.9109 59.1094 63.7349 54.7573 64.268C50.3561 64.8242 46.5941 65.3109 44.2337 65.6122ZM66.4366 54.8818C65.3793 54.8354 64.3466 54.8123 63.3877 54.8354C69.4609 51.8458 72.1902 44.2441 72.1902 44.221L72.9032 42.2742L70.7149 42.4132C69.1167 42.5059 67.6414 42.6913 66.2399 42.8999C71.0345 38.4502 71.4771 30.7095 71.4771 30.6863L71.6 28.6237L69.5346 29.3189C68.0594 29.8056 66.6825 30.3387 65.4285 30.8949C68.4774 25.24 66.2645 17.7311 66.2645 17.7079L65.6989 15.7148L63.9778 16.9894C48.807 28.1833 51.3888 38.7978 52.3969 41.5094C49.8151 46.0518 50.3069 49.7831 50.3315 49.8063L50.3807 50.2234C46.9384 53.8157 46.3974 57.2921 46.3974 57.3153L45.6352 60.0731C41.4552 63.3409 40.4226 66.9332 40.4226 66.9564L39.8079 68.9726L42.0208 68.6714C42.0454 68.6714 48.2415 67.8139 55.1261 66.9795C63.0926 66.0061 67.6906 56.8749 67.6906 56.8285L68.6495 54.9745L66.4366 54.8818ZM50.0118 55.5539C51.5363 52.402 55.9867 46.7703 68.5511 45.3565C67.248 47.8827 64.5433 52.0312 60.2896 53.0509C56.1096 54.0475 52.3477 54.9745 50.0118 55.5539ZM53.3066 47.1874C53.5033 45.9359 53.9951 44.2905 55.1015 42.4596C55.3228 42.2278 57.2407 40.142 60.0437 37.1292C62.1091 35.5532 64.7892 34.0468 68.2807 32.6794C67.7397 35.4373 66.3136 40.1188 62.5025 42.1815C58.8143 44.1746 55.4212 46.0286 53.3066 47.1874ZM57.9783 35.2056C56.626 36.2717 55.495 37.3377 54.5606 38.427C54.0443 34.8811 54.6835 28.1138 63.904 20.5817C64.3466 23.3628 64.5679 28.2297 61.6419 31.312C60.3634 32.6794 59.1094 34.0004 57.9783 35.2056ZM13.3267 10.9637V10.4075H33.4888V10.5466V15.4598V58.8912C28.5466 56.2028 28.1532 50.432 28.1532 50.432V22.1808C26.8008 22.1808 25.6944 21.1379 25.6944 19.8632C25.6944 19.8169 25.6944 19.7705 25.6944 19.7474C25.3747 19.8169 25.0551 19.8632 24.7109 19.8632C22.6455 19.8632 20.9489 18.2873 20.9489 16.3173C20.9489 16.0161 20.9981 15.7148 21.0719 15.4367H20.4326C14.679 15.4598 13.4004 12.0762 13.3267 10.9637ZM59.3799 10.9637V10.4075H39.2177V10.5466V15.4598V58.8912C44.1599 56.2028 44.5533 50.432 44.5533 50.432V22.1808C45.9057 22.1808 47.0121 21.1379 47.0121 19.8632C47.0121 19.8169 47.0121 19.7705 47.0121 19.7474C47.3318 19.8169 47.6514 19.8632 47.9956 19.8632C50.061 19.8632 51.7576 18.2873 51.7576 16.3173C51.7576 16.0161 51.7084 15.7148 51.6346 15.4367H52.2739C58.0521 15.4598 59.3061 12.0762 59.3799 10.9637ZM28.6695 65.6122C26.7517 62.6457 21.6374 57.5702 8.97459 57.547C10.5728 59.9109 13.7938 63.7349 18.1459 64.268C22.5471 64.8242 26.3091 65.3109 28.6695 65.6122ZM6.46662 54.8818C7.5239 54.8354 8.5566 54.8123 9.51553 54.8354C3.44231 51.8458 0.713056 44.2441 0.713056 44.221L0 42.2742L2.18833 42.4132C3.78655 42.5059 5.26183 42.6913 6.66334 42.8999C1.86869 38.4502 1.4261 30.7095 1.4261 30.6863L1.30316 28.6237L3.36855 29.3189C4.84382 29.8056 6.22075 30.3387 7.47474 30.8949C4.42583 25.24 6.63874 17.7311 6.63874 17.7079L7.20426 15.7148L8.92541 16.9894C24.0962 28.1833 21.5144 38.7978 20.5063 41.5094C23.0881 46.0518 22.5963 49.7831 22.5717 49.8063L22.5225 50.2234C25.9649 53.8157 26.5058 57.2921 26.5058 57.3153L27.268 60.0731C31.448 63.3409 32.4807 66.9332 32.4807 66.9564L33.0954 68.9726L30.8824 68.6714C30.8579 68.6714 24.6617 67.8139 17.7771 66.9795C9.81058 66.0061 5.21264 56.8749 5.21264 56.8285L4.25371 54.9745L6.46662 54.8818ZM22.9159 55.5539C21.3915 52.402 16.9411 46.7703 4.37665 45.3565C5.67981 47.8827 8.38449 52.0312 12.6382 53.0509C16.8181 54.0475 20.5555 54.9745 22.9159 55.5539ZM19.5966 47.1874C19.3999 45.9359 18.9081 44.2905 17.8017 42.4596C17.5804 42.2278 15.6625 40.142 12.8595 37.1292C10.7941 35.5532 8.11401 34.0468 4.62253 32.6794C5.16346 35.4373 6.58956 40.1188 10.4007 42.1815C14.1135 44.1746 17.482 46.0286 19.5966 47.1874ZM14.9249 35.2056C16.2772 36.2717 17.4083 37.3377 18.3426 38.427C18.8589 34.8811 18.2197 28.1138 8.99919 20.5817C8.55661 23.3628 8.3353 28.2297 11.2613 31.312C12.5644 32.6794 13.7938 34.0004 14.9249 35.2056Z" fill="#E1BD46"/>
</svg>
