<svg width="21" height="21" viewBox="0 0 21 21" fill="none" xmlns="http://www.w3.org/2000/svg">
<path d="M10.5 1.3125C8.58617 1.31476 6.75136 2.07603 5.39807 3.42932C4.04479 4.78261 3.28352 6.61741 3.28126 8.53125C3.27897 10.0952 3.78984 11.6168 4.73551 12.8625C4.73551 12.8625 4.93238 13.1217 4.96454 13.1591L10.5 19.6875L16.0381 13.1558C16.067 13.1211 16.2645 12.8625 16.2645 12.8625L16.2652 12.8605C17.2104 11.6154 17.721 10.0945 17.7188 8.53125C17.7165 6.61741 16.9552 4.78261 15.6019 3.42932C14.2487 2.07603 12.4138 1.31476 10.5 1.3125V1.3125ZM10.5 11.1562C9.98083 11.1562 9.47331 11.0023 9.04164 10.7139C8.60996 10.4254 8.2735 10.0155 8.07482 9.53579C7.87614 9.05614 7.82416 8.52834 7.92545 8.01914C8.02673 7.50994 8.27674 7.04221 8.64385 6.67509C9.01096 6.30798 9.4787 6.05797 9.9879 5.95669C10.4971 5.8554 11.0249 5.90739 11.5046 6.10607C11.9842 6.30475 12.3942 6.6412 12.6826 7.07288C12.9711 7.50456 13.125 8.01207 13.125 8.53125C13.1241 9.22718 12.8473 9.89435 12.3552 10.3864C11.8631 10.8785 11.1959 11.1554 10.5 11.1562V11.1562Z" fill="white"/>
</svg>
