<svg width="72" height="42" viewBox="0 0 72 42" fill="none" xmlns="http://www.w3.org/2000/svg">
<path d="M47.9134 3.30029H1.68501C0.754342 3.30029 0 4.05463 0 4.9853V6.67031V32.2595V33.9445C0 34.8751 0.754342 35.6295 1.68501 35.6295H16.3749V37.6304V39.561H13.7422C12.5405 39.561 11.5659 40.5355 11.5659 41.7373H38.0325C38.0325 40.5355 37.058 39.561 35.8562 39.561H33.2235V37.6304V35.6295H47.9134C48.8441 35.6295 49.5984 34.8751 49.5984 33.9445V32.2595V6.67031V4.9853C49.5984 4.05463 48.8441 3.30029 47.9134 3.30029Z" fill="#382B73"/>
<path d="M71.8523 4.4521C71.757 4.22626 71.6189 4.02306 71.4482 3.85286C71.3629 3.76753 71.2695 3.69021 71.1691 3.62279C70.9683 3.48748 70.7406 3.38942 70.4949 3.33897C70.3723 3.31398 70.245 3.30078 70.1149 3.30078H55.8532C55.723 3.30078 55.5957 3.31398 55.4732 3.33897C55.2275 3.38895 54.9993 3.48701 54.799 3.62279C54.6985 3.69068 54.6052 3.76753 54.5199 3.85286C54.3492 4.02353 54.211 4.22674 54.1158 4.4521C54.0206 4.67793 53.9678 4.92592 53.9678 5.18616V7.87115V34.8822V35.6286V38.0802V39.8505C53.9678 40.1108 54.0206 40.3587 54.1158 40.5846C54.211 40.8104 54.3492 41.0136 54.5199 41.1838C54.6052 41.2691 54.6985 41.3465 54.799 41.4139C54.9998 41.5492 55.228 41.6473 55.4732 41.6977C55.5957 41.7227 55.723 41.7359 55.8532 41.7359H62.051H63.9166H70.1145C70.2446 41.7359 70.3719 41.7227 70.4945 41.6977C70.7401 41.6473 70.9683 41.5497 71.1686 41.4139C71.2691 41.346 71.3624 41.2691 71.4478 41.1838C71.6184 41.0131 71.7566 40.8099 71.8518 40.5846C71.947 40.3587 71.9998 40.1108 71.9998 39.8505V38.0802V35.6286V34.8822V7.87115V5.18616C72.0003 4.92592 71.9475 4.67793 71.8523 4.4521Z" fill="#382B73"/>
<path d="M47.9134 32.3288H1.68501C0.754342 32.3288 0 31.5744 0 30.6438V3.37007C0 2.4394 0.754342 1.68506 1.68501 1.68506H47.9139C48.8445 1.68506 49.5989 2.4394 49.5989 3.37007V30.6438C49.5984 31.5744 48.8441 32.3288 47.9134 32.3288Z" fill="#043675"/>
<path d="M47.9134 30.6437H1.68501C0.754342 30.6437 0 29.8894 0 28.9587V1.68501C0 0.75434 0.754342 0 1.68501 0H47.9139C48.8445 0 49.5989 0.75434 49.5989 1.68501V28.9587C49.5984 29.8894 48.8441 30.6437 47.9134 30.6437Z" fill="#043675"/>
<path d="M46.3864 28.1167H3.21165C2.74631 28.1167 2.36914 27.7396 2.36914 27.2742V3.37009C2.36914 2.90476 2.74631 2.52759 3.21165 2.52759H46.3864C46.8517 2.52759 47.2289 2.90476 47.2289 3.37009V27.2742C47.2289 27.7396 46.8517 28.1167 46.3864 28.1167Z" fill="white"/>
<path d="M33.2237 30.6438H16.375V36.2599H33.2237V30.6438Z" fill="#043675"/>
<path d="M35.8567 36.2598H13.7427C12.5409 36.2598 11.5664 37.2343 11.5664 38.436H38.0329C38.0329 37.2343 37.0584 36.2598 35.8567 36.2598Z" fill="#043675"/>
<path d="M33.2237 32.3286H16.375V34.3295H33.2237V32.3286Z" fill="#136DA0"/>
<path d="M22.8973 23.3424H14.063C13.6967 23.3424 13.4699 22.9426 13.659 22.6281L18.0761 15.2747C18.259 14.9696 18.7013 14.9696 18.8842 15.2747L23.3013 22.6281C23.4899 22.9426 23.2636 23.3424 22.8973 23.3424Z" fill="#EF5A9D"/>
<path d="M28.2569 17.0592H21.407C21.1468 17.0592 20.9355 16.848 20.9355 16.5877V9.73831C20.9355 9.47806 21.1468 9.26685 21.407 9.26685H28.2564C28.5167 9.26685 28.7279 9.47806 28.7279 9.73831V16.5877C28.7284 16.8484 28.5171 17.0592 28.2569 17.0592Z" fill="#043675"/>
<path d="M33.1478 20.9935C33.545 18.5538 31.8893 16.254 29.4496 15.8568C27.01 15.4596 24.7102 17.1153 24.313 19.555C23.9158 21.9947 25.5715 24.2944 28.0112 24.6916C30.4508 25.0889 32.7506 23.4331 33.1478 20.9935Z" fill="#FEDE3A"/>
<path d="M5.8443 2.52759H3.21165C2.74631 2.52759 2.36914 2.90476 2.36914 3.37009V27.2742C2.36914 27.7396 2.74631 28.1167 3.21165 28.1167H5.8443V2.52759Z" fill="#E6E7E8"/>
<path d="M39.9102 28.1167H46.3862C46.8515 28.1167 47.2287 27.7396 47.2287 27.2742V3.37009C47.2287 2.90476 46.8515 2.52759 46.3862 2.52759H39.9102V28.1167Z" fill="#E6E7E8"/>
<path d="M46.3864 2.52759H3.21165C2.74631 2.52759 2.36914 2.90476 2.36914 3.37009V5.7392H47.2289V3.37009C47.2289 2.90476 46.8517 2.52759 46.3864 2.52759Z" fill="#FEDE3A"/>
<path d="M70.1144 0H55.8527C54.8112 0 53.9668 0.844391 53.9668 1.88585V36.5502C53.9668 37.5917 54.8112 38.436 55.8527 38.436H70.1144C71.1559 38.436 72.0003 37.5917 72.0003 36.5502V1.88585C72.0003 0.844391 71.1559 0 70.1144 0Z" fill="#043675"/>
<path d="M70.1144 36.6661H55.8527C54.8112 36.6661 53.9668 35.8217 53.9668 34.7803V36.5506C53.9668 37.5921 54.8112 38.4365 55.8527 38.4365H70.1144C71.1559 38.4365 72.0003 37.5921 72.0003 36.5506V34.7803C72.0003 35.8217 71.1559 36.6661 70.1144 36.6661Z" fill="#043675"/>
<path d="M63.9154 12.655H62.0498V38.4365H63.9154V12.655Z" fill="#043675"/>
<path d="M72.0003 1.88585C72.0003 0.844391 71.1559 0 70.1144 0H55.8527C54.8112 0 53.9668 0.844391 53.9668 1.88585V4.57084L62.0505 12.6545H63.9161L71.9998 4.57084V1.88585H72.0003Z" fill="#043675"/>
<path d="M62.9831 7.996C64.5071 7.996 65.7426 6.76054 65.7426 5.23653C65.7426 3.71251 64.5071 2.47705 62.9831 2.47705C61.4591 2.47705 60.2236 3.71251 60.2236 5.23653C60.2236 6.76054 61.4591 7.996 62.9831 7.996Z" fill="#043675"/>
<path d="M62.9833 7.23828C64.0889 7.23828 64.9851 6.34204 64.9851 5.23645C64.9851 4.13087 64.0889 3.23462 62.9833 3.23462C61.8777 3.23462 60.9814 4.13087 60.9814 5.23645C60.9814 6.34204 61.8777 7.23828 62.9833 7.23828Z" fill="#FEDE3A"/>
<path d="M64.1903 5.2365C64.1903 5.90268 63.65 6.44298 62.9838 6.44298C62.3176 6.44298 61.7773 5.90268 61.7773 5.2365C61.7773 4.57033 62.3176 4.03003 62.9838 4.03003C63.65 4.03003 64.1903 4.56985 64.1903 5.2365Z" fill="#E7AD27"/>
<path d="M63.6943 5.0201C63.9677 5.0201 64.1893 4.79846 64.1893 4.52506C64.1893 4.25166 63.9677 4.03003 63.6943 4.03003C63.4209 4.03003 63.1992 4.25166 63.1992 4.52506C63.1992 4.79846 63.4209 5.0201 63.6943 5.0201Z" fill="white"/>
<path d="M62.983 15.9816C62.7285 15.9816 62.5215 15.7751 62.5215 15.5201V14.3683C62.5215 14.1132 62.728 13.9067 62.983 13.9067C63.2376 13.9067 63.4446 14.1132 63.4446 14.3683V15.5201C63.4446 15.7751 63.2376 15.9816 62.983 15.9816Z" fill="#043675"/>
<path d="M62.983 17.5581C62.7285 17.5581 62.5215 17.3516 62.5215 17.0966C62.5215 16.842 62.728 16.635 62.983 16.635C63.2376 16.635 63.4446 16.8415 63.4446 17.0966C63.4446 17.3516 63.2376 17.5581 62.983 17.5581Z" fill="#FEDE3A"/>
<path d="M72.0003 31.5823H53.9668V32.3286H72.0003V31.5823Z" fill="#FEDE3A"/>
</svg>
