<svg width="60" height="45" viewBox="0 0 60 45" fill="none" xmlns="http://www.w3.org/2000/svg">
<g clip-path="url(#clip0_530_5861)">
<path d="M59 13.979C59 13.3471 58.8755 12.7213 58.6337 12.1375C58.3919 11.5537 58.0374 11.0232 57.5906 10.5764C57.1438 10.1296 56.6133 9.77512 56.0295 9.53329C55.4457 9.29147 54.8199 9.167 54.188 9.167H46.418C45.5171 9.16656 44.6344 8.91327 43.8703 8.43595C43.1063 7.95863 42.4915 7.27644 42.096 6.467L40.737 3.7C40.3415 2.89056 39.7267 2.20837 38.9627 1.73105C38.1986 1.25373 37.3159 1.00044 36.415 1H23.585C22.6841 1.00044 21.8014 1.25373 21.0373 1.73105C20.2733 2.20837 19.6585 2.89056 19.263 3.7L17.9 6.471C17.5045 7.28044 16.8897 7.96263 16.1257 8.43995C15.3616 8.91727 14.4789 9.17056 13.578 9.171H5.812C4.53647 9.171 3.31313 9.67743 2.41082 10.579C1.50851 11.4805 1.00106 12.7035 1 13.979V38.354C1 39.6303 1.50695 40.8544 2.40934 41.757C3.31174 42.6595 4.53569 43.1667 5.812 43.167H54.188C55.4643 43.1667 56.6883 42.6595 57.5907 41.757C58.4931 40.8544 59 39.6303 59 38.354V13.979Z" fill="white"/>
<path d="M6.43848 4.59998H8.87548C9.40591 4.59998 9.91462 4.81069 10.2897 5.18576C10.6648 5.56083 10.8755 6.06954 10.8755 6.59998V9.16698H4.43848V6.59998C4.43848 6.06954 4.64919 5.56083 5.02426 5.18576C5.39934 4.81069 5.90804 4.59998 6.43848 4.59998V4.59998Z" fill="#EF5350"/>
<path d="M36.167 9.16699L35.438 7.47799C35.2058 6.94008 34.8212 6.48194 34.3316 6.16011C33.842 5.83829 33.2689 5.66686 32.683 5.66699H27.317C26.7311 5.66686 26.158 5.83829 25.6684 6.16011C25.1788 6.48194 24.7942 6.94008 24.562 7.47799L23.833 9.16699H36.167Z" fill="white"/>
<path d="M30 38.25C36.9494 38.25 42.583 32.6164 42.583 25.667C42.583 18.7176 36.9494 13.084 30 13.084C23.0506 13.084 17.417 18.7176 17.417 25.667C17.417 32.6164 23.0506 38.25 30 38.25Z" fill="#80DEEA"/>
<path d="M51 19.666C52.5646 19.666 53.833 18.3976 53.833 16.833C53.833 15.2684 52.5646 14 51 14C49.4354 14 48.167 15.2684 48.167 16.833C48.167 18.3976 49.4354 19.666 51 19.666Z" fill="#EF5350"/>
<path d="M54.188 44.167H5.813C4.27178 44.1654 2.79415 43.5525 1.70434 42.4627C0.614538 41.3729 0.00158834 39.8952 0 38.354L0 13.979C0.00158877 12.4379 0.61457 10.9603 1.7044 9.8707C2.79424 8.78105 4.27188 8.16832 5.813 8.167H13.582C14.2948 8.16391 14.9926 7.96246 15.5973 7.58521C16.2021 7.20796 16.6898 6.6698 17.006 6.031L18.365 3.255C18.8471 2.28128 19.5907 1.46101 20.5127 0.886111C21.4347 0.31121 22.4985 0.00438054 23.585 0L36.415 0C37.5015 0.00438054 38.5653 0.31121 39.4873 0.886111C40.4093 1.46101 41.1529 2.28128 41.635 3.255L42.994 6.031C43.3102 6.6698 43.7979 7.20796 44.4027 7.58521C45.0074 7.96246 45.7052 8.16391 46.418 8.167H54.188C55.729 8.16859 57.2063 8.78143 58.296 9.87105C59.3856 10.9607 59.9984 12.438 60 13.979C60 14.2442 59.8946 14.4986 59.7071 14.6861C59.5196 14.8736 59.2652 14.979 59 14.979C58.7348 14.979 58.4804 14.8736 58.2929 14.6861C58.1054 14.4986 58 14.2442 58 13.979C57.9989 12.9683 57.597 11.9993 56.8823 11.2847C56.1677 10.57 55.1987 10.1681 54.188 10.167H46.418C45.3317 10.1623 44.2682 9.85517 43.3466 9.28009C42.425 8.70501 41.6817 7.88468 41.2 6.911L39.839 4.135C39.5228 3.49632 39.035 2.9583 38.4302 2.58122C37.8255 2.20413 37.1277 2.00288 36.415 2H23.585C22.8723 2.00288 22.1745 2.20413 21.5698 2.58122C20.965 2.9583 20.4772 3.49632 20.161 4.135L18.8 6.911C18.3182 7.88498 17.5746 8.70552 16.6526 9.28061C15.7306 9.85571 14.6666 10.1626 13.58 10.167H5.813C4.80215 10.1678 3.83291 10.5696 3.11803 11.2843C2.40316 11.999 2.00106 12.9681 2 13.979V38.354C2.00106 39.3649 2.40312 40.3342 3.11797 41.049C3.83282 41.7639 4.80205 42.1659 5.813 42.167H54.188C55.1988 42.1657 56.1678 41.7635 56.8824 41.0487C57.597 40.3339 57.9989 39.3648 58 38.354V18.167C58 17.9018 58.1054 17.6474 58.2929 17.4599C58.4804 17.2724 58.7348 17.167 59 17.167C59.2652 17.167 59.5196 17.2724 59.7071 17.4599C59.8946 17.6474 60 17.9018 60 18.167V38.354C59.9984 39.895 59.3856 41.3725 58.296 42.4623C57.2064 43.5521 55.729 44.1651 54.188 44.167V44.167Z" fill="#22242B"/>
<path d="M10.8755 10.167H4.43848C4.17326 10.167 3.91891 10.0616 3.73137 9.87408C3.54383 9.68655 3.43848 9.43219 3.43848 9.16698V6.59998C3.43848 5.80433 3.75455 5.04126 4.31716 4.47866C4.87977 3.91605 5.64283 3.59998 6.43848 3.59998H8.87548C9.67113 3.59998 10.4342 3.91605 10.9968 4.47866C11.5594 5.04126 11.8755 5.80433 11.8755 6.59998V9.16698C11.8755 9.43219 11.7701 9.68655 11.5826 9.87408C11.395 10.0616 11.1407 10.167 10.8755 10.167ZM5.43848 8.16698H9.87548V6.59998C9.87548 6.33476 9.77012 6.08041 9.58258 5.89287C9.39505 5.70533 9.14069 5.59998 8.87548 5.59998H6.43848C6.17326 5.59998 5.91891 5.70533 5.73137 5.89287C5.54383 6.08041 5.43848 6.33476 5.43848 6.59998V8.16698Z" fill="#22242B"/>
<path d="M36.1665 10.167H23.8325C23.6664 10.167 23.5029 10.1258 23.3568 10.0468C23.2107 9.9679 23.0865 9.85382 22.9955 9.71489C22.9045 9.57596 22.8495 9.41654 22.8356 9.25105C22.8216 9.08555 22.8491 8.91918 22.9155 8.76696L23.6435 7.07796C23.953 6.3609 24.4656 5.75012 25.1181 5.32097C25.7706 4.89182 26.5345 4.66308 27.3155 4.66296H32.6835C32.9487 4.66296 33.2031 4.76832 33.3906 4.95586C33.5782 5.14339 33.6835 5.39775 33.6835 5.66296C33.6835 5.92818 33.5782 6.18253 33.3906 6.37007C33.2031 6.55761 32.9487 6.66296 32.6835 6.66296H27.3155C26.9245 6.6634 26.5422 6.77843 26.2159 6.99384C25.8896 7.20925 25.6336 7.51559 25.4795 7.87496L25.3535 8.16696H34.6455L34.5195 7.87396C34.4642 7.75288 34.4336 7.62197 34.4295 7.48891C34.4254 7.35584 34.4479 7.22331 34.4958 7.09906C34.5436 6.97482 34.6157 6.86138 34.708 6.76539C34.8002 6.6694 34.9107 6.59279 35.0329 6.54006C35.1552 6.48733 35.2867 6.45954 35.4198 6.45831C35.5529 6.45709 35.685 6.48246 35.8082 6.53293C35.9313 6.5834 36.0432 6.65797 36.1372 6.75225C36.2312 6.84653 36.3054 6.95862 36.3555 7.08196L37.0835 8.77096C37.1499 8.92318 37.1774 9.08955 37.1635 9.25505C37.1495 9.42054 37.0945 9.57996 37.0035 9.71889C36.9125 9.85782 36.7884 9.9719 36.6422 10.0508C36.4961 10.1298 36.3326 10.171 36.1665 10.171V10.167Z" fill="#22242B"/>
<path d="M30 39.25C27.3133 39.2502 24.6868 38.4537 22.4528 36.9611C20.2188 35.4686 18.4775 33.3471 17.4493 30.8649C16.421 28.3827 16.1519 25.6513 16.676 23.0162C17.2001 20.381 18.4939 17.9605 20.3937 16.0607C22.2935 14.1609 24.7141 12.8671 27.3492 12.343C29.9843 11.8189 32.7157 12.088 35.1979 13.1162C37.6801 14.1445 39.8016 15.8858 41.2941 18.1198C42.7867 20.3538 43.5832 22.9803 43.583 25.667C43.5785 29.2681 42.146 32.7204 39.5997 35.2667C37.0534 37.813 33.6011 39.2455 30 39.25V39.25ZM30 14.083C27.7089 14.0828 25.4692 14.7621 23.564 16.0348C21.6589 17.3076 20.174 19.1167 19.2971 21.2333C18.4202 23.35 18.1906 25.6792 18.6375 27.9264C19.0844 30.1735 20.1876 32.2377 21.8076 33.8578C23.4276 35.478 25.4916 36.5813 27.7388 37.0284C29.9859 37.4754 32.3151 37.2461 34.4318 36.3694C36.5486 35.4926 38.3578 34.0079 39.6307 32.1029C40.9036 30.1979 41.583 27.9582 41.583 25.667C41.5788 22.5962 40.3571 19.6524 38.1858 17.4809C36.0146 15.3095 33.0708 14.0875 30 14.083V14.083Z" fill="#22242B"/>
<path d="M8.06836 37.25C7.80314 37.25 7.54879 37.1446 7.36125 36.9571C7.17372 36.7696 7.06836 36.5152 7.06836 36.25V14.75C7.06836 14.4848 7.17372 14.2304 7.36125 14.0429C7.54879 13.8554 7.80314 13.75 8.06836 13.75C8.33358 13.75 8.58793 13.8554 8.77547 14.0429C8.963 14.2304 9.06836 14.4848 9.06836 14.75V36.25C9.06836 36.5152 8.963 36.7696 8.77547 36.9571C8.58793 37.1446 8.33358 37.25 8.06836 37.25Z" fill="#22242B"/>
<path d="M51 37.25C50.7348 37.25 50.4804 37.1446 50.2929 36.9571C50.1054 36.7696 50 36.5152 50 36.25V25.667C50 25.4018 50.1054 25.1474 50.2929 24.9599C50.4804 24.7723 50.7348 24.667 51 24.667C51.2652 24.667 51.5196 24.7723 51.7071 24.9599C51.8946 25.1474 52 25.4018 52 25.667V36.25C52 36.5152 51.8946 36.7696 51.7071 36.9571C51.5196 37.1446 51.2652 37.25 51 37.25Z" fill="#22242B"/>
<path d="M21.7002 26.6669C21.435 26.6669 21.1806 26.5616 20.9931 26.3741C20.8056 26.1865 20.7002 25.9322 20.7002 25.6669C20.7031 23.2013 21.6839 20.8375 23.4273 19.0941C25.1708 17.3506 27.5346 16.3699 30.0002 16.3669C30.2654 16.3669 30.5198 16.4723 30.7073 16.6598C30.8948 16.8474 31.0002 17.1017 31.0002 17.3669C31.0002 17.6322 30.8948 17.8865 30.7073 18.074C30.5198 18.2616 30.2654 18.3669 30.0002 18.3669C28.0648 18.3693 26.2094 19.1392 24.8409 20.5077C23.4724 21.8762 22.7026 23.7316 22.7002 25.6669C22.7002 25.9322 22.5948 26.1865 22.4073 26.3741C22.2198 26.5616 21.9654 26.6669 21.7002 26.6669Z" fill="#22242B"/>
<path d="M51 20.667C50.2417 20.6672 49.5003 20.4425 48.8697 20.0214C48.2391 19.6002 47.7475 19.0015 47.4572 18.3009C47.1668 17.6004 47.0908 16.8295 47.2386 16.0857C47.3864 15.3419 47.7515 14.6586 48.2876 14.1223C48.8238 13.586 49.5069 13.2208 50.2507 13.0728C50.9944 12.9248 51.7654 13.0006 52.466 13.2908C53.1666 13.5809 53.7655 14.0723 54.1868 14.7029C54.6082 15.3334 54.833 16.0747 54.833 16.833C54.833 17.0982 54.7277 17.3526 54.5401 17.5401C54.3526 17.7277 54.0983 17.833 53.833 17.833C53.5678 17.833 53.3135 17.7277 53.1259 17.5401C52.9384 17.3526 52.833 17.0982 52.833 16.833C52.8328 16.4705 52.7252 16.1162 52.5236 15.8149C52.3221 15.5136 52.0358 15.2788 51.7008 15.1403C51.3659 15.0017 50.9973 14.9655 50.6418 15.0364C50.2863 15.1072 49.9598 15.2819 49.7036 15.5383C49.4473 15.7946 49.2728 16.1213 49.2022 16.4768C49.1315 16.8323 49.1679 17.2008 49.3067 17.5357C49.4454 17.8706 49.6804 18.1568 49.9818 18.3582C50.2832 18.5595 50.6375 18.667 51 18.667C51.2653 18.667 51.5196 18.7724 51.7071 18.9599C51.8947 19.1475 52 19.4018 52 19.667C52 19.9322 51.8947 20.1866 51.7071 20.3741C51.5196 20.5617 51.2653 20.667 51 20.667Z" fill="#22242B"/>
</g>
<defs>
<clipPath id="clip0_530_5861">
<rect width="60" height="44.167" fill="white"/>
</clipPath>
</defs>
</svg>
