<svg width="64" height="65" viewBox="0 0 64 65" fill="none" xmlns="http://www.w3.org/2000/svg">
<path d="M60.773 7.94641C61.5778 9.57837 62.011 11.3684 62.0414 13.1878C62.0717 15.0072 61.6985 16.8107 60.9485 18.4686C60.2643 19.9727 59.2851 21.3241 58.0689 22.4427C55.8005 24.5335 52.8279 25.6934 49.7429 25.6914C48.359 25.6931 46.9847 25.4607 45.6784 25.0039L25.1044 45.5779C25.4618 46.6 25.6817 47.665 25.7583 48.745C25.781 49.042 25.7907 49.3404 25.7907 49.6431C25.7962 52.6313 24.7082 55.5182 22.7319 57.7595C20.4787 60.3245 17.1736 61.9429 13.4908 61.9429C11.6021 61.9467 9.73823 61.5123 8.04576 60.6739L14.7226 53.9971L13.4398 49.6933L9.13628 48.4105L2.45945 55.0871C1.62105 53.3947 1.18666 51.5309 1.19045 49.6422C1.19045 49.5375 1.19207 49.4343 1.19477 49.3296C1.27955 45.91 2.76077 42.8353 5.09249 40.6572C6.73303 39.1249 8.7612 38.0702 10.9577 37.6071C13.1543 37.1439 15.4356 37.29 17.5552 38.0295L38.1292 17.4555C38.0482 17.2236 37.9723 16.9874 37.9059 16.7484C37.6864 15.9767 37.5448 15.185 37.483 14.3851C37.456 14.0571 37.442 13.7247 37.442 13.3907C37.4397 12.0729 37.6508 10.7633 38.0671 9.51295C39.6919 4.62082 44.3041 1.09219 49.7419 1.09084C51.6306 1.08708 53.4945 1.52146 55.1869 2.35984L46.9941 10.5527L47.8222 13.3305L48.276 14.8565L52.5798 16.1393L60.773 7.94641Z" fill="white"/>
<g opacity="0.3">
<path d="M59.9921 8.72737L60.7727 7.94653C61.6111 9.639 62.0455 11.5029 62.0417 13.3916C62.0417 20.1843 56.5337 25.6915 49.7416 25.6915C48.3576 25.6932 46.9834 25.4608 45.677 25.0041L25.103 45.5781C25.5597 46.8848 25.7919 48.2594 25.7899 49.6437C25.7899 56.435 20.2819 61.9422 13.49 61.9436C11.6013 61.9473 9.7374 61.5129 8.04492 60.6746L8.82576 59.8937C9.79993 60.1357 10.8001 60.2575 11.8039 60.2563C18.5965 60.255 23.3966 55.4549 23.3966 48.6636C23.3985 47.6885 23.2841 46.7167 23.0558 45.7687C22.8733 45.0205 23.0772 44.2313 23.6228 43.6867L43.8769 23.4329C44.4355 22.8743 45.2444 22.6283 46.0099 22.8149C46.9579 23.0432 47.9297 23.1575 48.9048 23.1556C55.6961 23.1556 60.355 18.4971 60.3563 11.7044C60.3569 10.7009 60.2346 9.70113 59.9921 8.72737V8.72737Z" fill="white"/>
</g>
<g opacity="0.65">
<path d="M52.6744 16.4692L60.8673 8.27637C61.4132 9.37625 61.7885 10.5528 61.9805 11.7656C61.793 11.1719 61.5599 10.5936 61.2831 10.036L53.7293 17.5897C53.536 17.783 53.2941 17.9205 53.0291 17.9875C52.7642 18.0546 52.486 18.0488 52.224 17.9707L48.9668 17.0157C48.7269 16.9454 48.5084 16.8162 48.3312 16.6398C48.154 16.4634 48.0238 16.2455 47.9524 16.0059L46.9023 12.484L47.5873 12.5599L48.3703 15.1878L52.6744 16.4692Z" fill="white"/>
</g>
<g opacity="0.65">
<path d="M37.8572 15.1496C37.857 15.8012 37.908 16.4518 38.0098 17.0954C37.6311 15.8968 37.4394 14.647 37.4414 13.39C37.4414 6.59865 42.9494 1.09146 49.7413 1.09011C51.63 1.08635 53.4939 1.52073 55.1864 2.35911L54.0634 3.48204C52.8042 3.06063 51.4849 2.84661 50.1571 2.84835C43.3644 2.85078 37.8572 8.35797 37.8572 15.1496Z" fill="white"/>
</g>
<g opacity="0.65">
<path d="M15.6998 50.2814L16.6559 53.5401C16.7336 53.802 16.7392 54.0801 16.672 54.3449C16.6048 54.6098 16.4673 54.8516 16.2741 55.0448L9.81623 61.5024C9.2846 61.3158 8.71193 61.1136 8.20703 60.9367L15.1539 53.9899L13.8711 49.6861L11.2435 48.9031L11.1684 48.2173L14.6913 49.2681C14.9307 49.3393 15.1485 49.4693 15.3247 49.6463C15.5008 49.8233 15.6298 50.0417 15.6998 50.2814V50.2814Z" fill="white"/>
</g>
<g opacity="0.65">
<path d="M15.5321 37.4753C16.1837 37.4751 16.8344 37.5261 17.478 37.6278C16.2793 37.2496 15.0295 37.0584 13.7725 37.0608C6.98122 37.0608 1.47403 42.5688 1.47268 49.3607C1.46889 51.2494 1.90327 53.1133 2.74168 54.8058L3.8665 53.6815C3.44498 52.4223 3.23096 51.103 3.23281 49.7751C3.23335 42.9825 8.74054 37.4753 15.5321 37.4753Z" fill="white"/>
</g>
<path d="M38.1295 17.4548L38.0815 17.5029C38.0574 17.3679 38.0321 17.2329 38.0107 17.0955C38.0485 17.2172 38.0869 17.336 38.1295 17.4548Z" fill="#08213D"/>
<g opacity="0.65">
<path d="M17.4257 37.9078C17.0164 42.852 42.8179 16.7022 37.9997 17.3338L17.4257 37.9078Z" fill="white"/>
</g>
<path opacity="0.45" d="M25.7585 48.7451C25.7812 49.0421 25.7909 49.3404 25.7909 49.6431C25.7964 52.6313 24.7084 55.5183 22.7321 57.7596L14.2716 54.4475L14.7228 53.9963L13.44 49.6925L9.13649 48.4097L6.24236 51.3055L1.19336 49.3296C1.27814 45.9101 2.75936 42.8353 5.09108 40.6572L25.7585 48.7451Z" fill="url(#paint0_linear_691_706)"/>
<path opacity="0.45" d="M56.1525 23.8896C54.5974 24.8378 52.8515 25.4295 51.0404 25.6222C49.2293 25.8149 47.3981 25.6037 45.6783 25.0039L42.0946 28.5879L31.2441 24.3394L38.1291 17.4544C38.0481 17.2225 37.9723 16.9863 37.9059 16.7473L56.1525 23.8896Z" fill="url(#paint1_linear_691_706)"/>
<path opacity="0.45" d="M29.2898 41.3927L25.624 45.0585L8.55078 38.3747C11.4015 37.129 14.6176 37.0057 17.5553 38.0296L18.4406 37.1443L29.2898 41.3927Z" fill="url(#paint2_linear_691_706)"/>
<path opacity="0.45" d="M60.9482 18.4686C60.264 19.9728 59.2848 21.3242 58.0686 22.4428L37.4825 14.3844C37.4555 14.0563 37.4414 13.7239 37.4414 13.3899C37.4391 12.0721 37.6502 10.7626 38.0665 9.51221L47.8218 13.3305L48.2757 14.8566L52.5795 16.1394L53.2596 15.4592L60.9482 18.4686Z" fill="url(#paint3_linear_691_706)"/>
<path d="M13.4913 62.5509C11.4806 62.5509 9.55764 62.1025 7.77591 61.2177C7.68957 61.1748 7.61466 61.112 7.55738 61.0345C7.5001 60.957 7.4621 60.8669 7.44651 60.7718C7.43092 60.6767 7.43819 60.5792 7.46772 60.4874C7.49725 60.3957 7.54819 60.3122 7.61634 60.2441L14.0372 53.8232L12.9518 50.1814L9.30978 49.096L2.88918 55.5166C2.82105 55.5848 2.73765 55.6359 2.64589 55.6654C2.55413 55.695 2.45665 55.7023 2.3615 55.6868C2.26636 55.6712 2.17628 55.6332 2.09874 55.5759C2.02119 55.5186 1.9584 55.4437 1.91556 55.3573C1.03077 53.5753 0.582031 51.6527 0.582031 49.6422C0.583651 42.525 6.3738 36.7346 13.4897 36.7346C14.8129 36.733 16.1285 36.9354 17.3901 37.3346L37.4341 17.29C37.0346 16.0286 36.832 14.7131 36.8333 13.3899C36.8333 6.27431 42.6235 0.483887 49.7407 0.483887C51.7511 0.483887 53.674 0.932627 55.4557 1.81742C55.5421 1.86028 55.617 1.92307 55.6743 2.0006C55.7316 2.07814 55.7696 2.16819 55.7852 2.26332C55.8007 2.35844 55.7935 2.45592 55.7639 2.54768C55.7344 2.63944 55.6835 2.72286 55.6153 2.79104L47.6773 10.729L48.7627 14.3711L52.4045 15.4565L60.3425 7.51847C60.4107 7.45032 60.4941 7.39938 60.5858 7.36984C60.6776 7.34031 60.7751 7.33304 60.8702 7.34863C60.9653 7.36422 61.0554 7.40223 61.1329 7.45951C61.2105 7.51679 61.2732 7.59169 61.3161 7.67804C62.2009 9.46004 62.6496 11.3827 62.6496 13.3931C62.648 20.5103 56.8579 26.3005 49.742 26.3005C48.4188 26.302 47.1032 26.0998 45.8416 25.7008L25.7976 45.7448C26.1968 47.0064 26.3992 48.322 26.3975 49.6452C26.3986 56.7594 20.6082 62.5496 13.4913 62.5509ZM9.09648 60.4822C10.4917 61.0506 11.9845 61.3406 13.491 61.3359C19.9383 61.3359 25.1836 56.0896 25.1836 49.6449C25.1856 48.3294 24.9646 47.023 24.5302 45.7812C24.4924 45.6733 24.4858 45.5568 24.5113 45.4453C24.5367 45.3337 24.5932 45.2316 24.6741 45.1508L45.2481 24.5768C45.329 24.4959 45.4311 24.4394 45.5426 24.4139C45.6541 24.3885 45.7706 24.395 45.8786 24.4329C47.1204 24.8671 48.4268 25.0879 49.7423 25.086C56.1883 25.086 61.4333 19.8407 61.4349 13.3934C61.4394 11.887 61.1493 10.3942 60.5809 8.99915L53.009 16.571C52.9316 16.6485 52.8347 16.7036 52.7285 16.7305C52.6223 16.7574 52.5108 16.7551 52.4058 16.7238L48.1023 15.4411C48.0056 15.4123 47.9175 15.3598 47.8462 15.2884C47.7748 15.2171 47.7223 15.129 47.6935 15.0323L46.4107 10.7288C46.3795 10.6238 46.3771 10.5124 46.404 10.4062C46.4308 10.3 46.4859 10.2031 46.5633 10.1256L54.1352 2.55371C52.7401 1.98527 51.2474 1.69516 49.7409 1.6997C43.2939 1.6997 38.0486 6.94634 38.0486 13.392C38.0467 14.7077 38.2675 16.0141 38.7017 17.256C38.7395 17.364 38.7461 17.4804 38.7207 17.592C38.6952 17.7035 38.6387 17.8056 38.5578 17.8865L17.9838 38.4605C17.9029 38.5413 17.8008 38.5977 17.6893 38.6231C17.5777 38.6485 17.4613 38.6419 17.3534 38.6041C16.1115 38.1699 14.8052 37.9491 13.4897 37.951C7.04367 37.951 1.79865 43.1963 1.79703 49.6436C1.79268 51.1498 2.08289 52.6422 2.65131 54.037L8.70714 47.9812C8.78461 47.9038 8.88156 47.8487 8.98773 47.8219C9.09391 47.795 9.20536 47.7974 9.31032 47.8287L13.6133 49.1109C13.71 49.1397 13.7981 49.1922 13.8694 49.2635C13.9408 49.3349 13.9933 49.4229 14.0221 49.5197L15.3049 53.8232C15.3362 53.9282 15.3385 54.0397 15.3116 54.1458C15.2847 54.252 15.2296 54.349 15.152 54.4264L9.09648 60.4822Z" fill="white"/>
<path d="M42.9549 35.7077L44.4226 37.1752C44.5773 37.3298 44.7609 37.4525 44.9629 37.5362C45.165 37.6199 45.3815 37.6629 45.6002 37.6629C45.8189 37.6629 46.0355 37.6199 46.2376 37.5362C46.4396 37.4525 46.6232 37.3298 46.7778 37.1752V37.1752C47.0902 36.8629 47.5137 36.6875 47.9553 36.6875C48.3969 36.6875 48.8205 36.8629 49.1328 37.1752L60.1299 48.1723C63.672 51.7144 63.7387 57.5788 60.1299 61.0513C56.6326 64.4163 51.0711 64.375 47.624 60.9279L36.5025 49.8063C36.3478 49.6517 36.2251 49.4681 36.1415 49.2661C36.0578 49.064 36.0147 48.8475 36.0147 48.6288C36.0147 48.4101 36.0578 48.1936 36.1415 47.9916C36.2251 47.7895 36.3478 47.606 36.5025 47.4514V47.4514C36.8147 47.139 36.9901 46.7155 36.9901 46.2739C36.9901 45.8323 36.8147 45.4087 36.5025 45.0964L35.0347 43.6287C34.7224 43.3165 34.2988 43.1411 33.8571 43.1411C33.4155 43.1411 32.9919 43.3165 32.6795 43.6287V43.6287C32.5249 43.7833 32.3413 43.906 32.1393 43.9897C31.9373 44.0734 31.7207 44.1165 31.5021 44.1165C31.2834 44.1165 31.0668 44.0734 30.8648 43.9897C30.6628 43.906 30.4792 43.7833 30.3246 43.6287L27.9426 41.247C27.6304 40.9346 27.4551 40.5111 27.4551 40.0694C27.4551 39.6278 27.6304 39.2042 27.9426 38.8918L38.2194 28.6153C38.5317 28.3031 38.9552 28.1277 39.3969 28.1277C39.8385 28.1277 40.262 28.3031 40.5743 28.6153L42.956 30.997C43.1106 31.1517 43.2333 31.3352 43.317 31.5373C43.4007 31.7394 43.4438 31.9559 43.4438 32.1746C43.4438 32.3933 43.4007 32.6099 43.317 32.8119C43.2333 33.014 43.1106 33.1976 42.956 33.3522V33.3522C42.6436 33.6645 42.468 34.088 42.4678 34.5297C42.4676 34.9714 42.6428 35.3952 42.9549 35.7077V35.7077Z" fill="#E1BD46"/>
<g opacity="0.3">
<path d="M42.9535 35.7071L44.4229 37.1761C44.5776 37.3307 44.7612 37.4533 44.9633 37.5369C45.1655 37.6205 45.3821 37.6635 45.6008 37.6633C45.8195 37.6632 46.0361 37.6199 46.2381 37.5361C46.4401 37.4522 46.6236 37.3293 46.7781 37.1745C46.9324 37.0197 47.1158 36.8969 47.3177 36.813C47.5196 36.7292 47.7361 36.6861 47.9547 36.6861C48.1733 36.6861 48.3898 36.7292 48.5917 36.813C48.7936 36.8969 48.977 37.0197 49.1314 37.1745L60.1293 48.1724C63.6712 51.7143 63.7376 57.5779 60.1277 61.0514C59.6128 61.5482 59.0397 61.9807 58.4207 62.3396C60.4052 58.8925 59.865 54.3333 56.9166 51.3849L45.9187 40.3872C45.7639 40.2327 45.5802 40.1102 45.3781 40.0267C45.176 39.9431 44.9595 39.9002 44.7408 39.9004C44.5221 39.9006 44.3056 39.9438 44.1036 40.0277C43.9017 40.1115 43.7182 40.2344 43.5637 40.3891C43.2515 40.7011 42.8283 40.8763 42.3869 40.8763C41.9456 40.8763 41.5223 40.7011 41.2101 40.3891L39.7408 38.9198C39.5859 38.7654 39.463 38.582 39.3791 38.3801C39.2953 38.1782 39.2521 37.9616 39.2521 37.743C39.2521 37.5243 39.2953 37.3078 39.3791 37.1059C39.463 36.9039 39.5859 36.7205 39.7408 36.5662C40.0531 36.254 40.2287 35.8306 40.229 35.3891C40.2293 34.9475 40.0543 34.5238 39.7424 34.2112L37.3591 31.8277C37.0464 31.5158 36.6228 31.3409 36.1812 31.3412C35.7396 31.3415 35.3161 31.517 35.0039 31.8293L38.2185 28.6163C38.373 28.4618 38.5565 28.3392 38.7584 28.2556C38.9603 28.1719 39.1767 28.1289 39.3952 28.1289C39.6137 28.1289 39.8301 28.1719 40.032 28.2556C40.2339 28.3392 40.4173 28.4618 40.5718 28.6163L42.9551 30.9999C43.1097 31.1544 43.2322 31.3378 43.3159 31.5397C43.3995 31.7416 43.4425 31.958 43.4425 32.1765C43.4425 32.3951 43.3995 32.6114 43.3159 32.8133C43.2322 33.0152 43.1097 33.1987 42.9551 33.3532C42.8 33.5075 42.6768 33.6909 42.5927 33.8929C42.5086 34.095 42.4652 34.3116 42.4651 34.5305C42.4649 34.7493 42.508 34.966 42.5918 35.1681C42.6756 35.3703 42.7986 35.5539 42.9535 35.7084V35.7071Z" fill="white"/>
</g>
<g opacity="0.65">
<path d="M60.7486 60.3211C60.4778 60.6771 60.18 61.0117 59.8576 61.3217C56.3605 64.6856 50.7993 64.6459 47.3522 61.1986L36.2299 50.0762C35.9178 49.7641 35.7426 49.3409 35.7426 48.8995C35.7426 48.4582 35.9178 48.035 36.2299 47.7229C36.385 47.5686 36.5082 47.3851 36.5923 47.1831C36.6764 46.9811 36.7198 46.7644 36.7199 46.5456C36.7201 46.3268 36.677 46.1101 36.5932 45.9079C36.5094 45.7058 36.3864 45.5222 36.2315 45.3677L34.7621 43.8983C34.6074 43.7437 34.4238 43.6211 34.2216 43.5375C34.0195 43.4539 33.8029 43.411 33.5842 43.4111C33.3655 43.4113 33.1489 43.4545 32.9469 43.5384C32.7449 43.6223 32.5614 43.7451 32.4069 43.8999C32.2526 44.0549 32.0692 44.1778 31.8673 44.2617C31.6654 44.3455 31.4489 44.3887 31.2303 44.3887C31.0116 44.3887 30.7951 44.3455 30.5932 44.2617C30.3913 44.1778 30.2079 44.0549 30.0536 43.8999L27.67 41.5167C27.3579 41.2045 27.1826 40.7812 27.1826 40.3399C27.1826 39.8985 27.3579 39.4752 27.67 39.1631L29.3322 37.5012C29.1776 37.6557 29.0551 37.8392 28.9714 38.0411C28.8878 38.243 28.8448 38.4593 28.8448 38.6779C28.8448 38.8964 28.8878 39.1128 28.9714 39.3147C29.0551 39.5166 29.1776 39.7 29.3322 39.8545L31.7155 42.2381C31.8698 42.3929 32.0532 42.5158 32.2552 42.5996C32.4571 42.6834 32.6736 42.7265 32.8923 42.7265C33.1109 42.7265 33.3274 42.6834 33.5293 42.5996C33.7313 42.5158 33.9147 42.3929 34.069 42.2381C34.2235 42.0832 34.407 41.9603 34.609 41.8764C34.811 41.7925 35.0275 41.7492 35.2463 41.749C35.465 41.7489 35.6816 41.7918 35.8837 41.8754C36.0859 41.959 36.2695 42.0816 36.4243 42.2362L37.8933 43.7056C38.0484 43.86 38.1713 44.0436 38.2552 44.2458C38.339 44.4479 38.3821 44.6646 38.382 44.8835C38.3818 45.1023 38.3385 45.319 38.2543 45.521C38.1702 45.7231 38.0469 45.9065 37.8917 46.0608C37.7372 46.2153 37.6146 46.3987 37.531 46.6006C37.4473 46.8025 37.4043 47.0189 37.4043 47.2374C37.4043 47.4559 37.4473 47.6723 37.531 47.8742C37.6146 48.0761 37.7372 48.2596 37.8917 48.4141L49.0144 59.5381C52.2174 62.7395 57.2483 63.0011 60.7486 60.3211Z" fill="white"/>
</g>
<path d="M53.9399 64.1526H53.8511C51.3501 64.1355 48.957 63.1312 47.1929 61.3583L36.071 50.2368C35.6458 49.8103 35.407 49.2326 35.407 48.6303C35.407 48.028 35.6458 47.4503 36.071 47.0238C36.1693 46.9256 36.2473 46.8089 36.3004 46.6806C36.3536 46.5522 36.381 46.4147 36.381 46.2757C36.381 46.1368 36.3536 45.9992 36.3004 45.8709C36.2473 45.7425 36.1693 45.6259 36.071 45.5277L34.6036 44.06C34.4052 43.8616 34.1361 43.7502 33.8555 43.7502C33.575 43.7502 33.3059 43.8616 33.1075 44.06C32.6814 44.486 32.1035 44.7253 31.501 44.7253C30.8985 44.7253 30.3206 44.486 29.8945 44.06L27.5126 41.6783C27.0874 41.2518 26.8486 40.6741 26.8486 40.0718C26.8486 39.4695 27.0874 38.8918 27.5126 38.4653L37.789 28.1888C38.2156 27.7637 38.7933 27.5249 39.3955 27.5249C39.9978 27.5249 40.5755 27.7637 41.002 28.1888L43.3837 30.5708C43.809 30.9973 44.0478 31.575 44.0478 32.1773C44.0478 32.7796 43.809 33.3573 43.3837 33.7838C43.1857 33.9824 43.0745 34.2514 43.0745 34.5318C43.0745 34.8122 43.1857 35.0812 43.3837 35.2798L44.8514 36.7476C45.0499 36.9459 45.3189 37.0573 45.5995 37.0573C45.88 37.0573 46.1491 36.9459 46.3475 36.7476C46.5585 36.5365 46.8091 36.369 47.0849 36.2548C47.3606 36.1405 47.6562 36.0817 47.9547 36.0817C48.2532 36.0817 48.5487 36.1405 48.8245 36.2548C49.1003 36.369 49.3508 36.5365 49.5618 36.7476L60.5587 47.7444C62.4009 49.5866 63.4431 52.1454 63.4177 54.7668C63.3929 57.3475 62.3742 59.7348 60.5492 61.4915C58.7758 63.204 56.4052 64.1585 53.9399 64.1526V64.1526ZM33.8557 42.535C34.1542 42.5342 34.45 42.5926 34.7259 42.7068C35.0017 42.8211 35.2522 42.9889 35.4627 43.2006L36.9304 44.668C37.3557 45.0945 37.5945 45.6722 37.5945 46.2745C37.5945 46.8768 37.3557 47.4545 36.9304 47.881C36.7323 48.0795 36.621 48.3486 36.621 48.6291C36.621 48.9095 36.7323 49.1786 36.9304 49.3771L48.052 60.4987C51.2356 63.6825 56.4641 63.7341 59.7071 60.614C61.295 59.0863 62.1814 57.0049 62.203 54.7531C62.2251 52.4567 61.312 50.2146 59.6998 48.6016L48.7027 37.6045C48.5043 37.4062 48.2353 37.2948 47.9548 37.2948C47.6743 37.2948 47.4053 37.4062 47.2069 37.6045C46.7804 38.0303 46.2024 38.2694 45.5997 38.2694C44.9971 38.2694 44.4191 38.0303 43.9926 37.6045L42.5248 36.1371C42.0997 35.7106 41.8609 35.1329 41.8609 34.5306C41.8609 33.9283 42.0997 33.3506 42.5248 32.9241C42.6231 32.8259 42.7011 32.7093 42.7543 32.5809C42.8074 32.4526 42.8348 32.315 42.8348 32.1761C42.8348 32.0371 42.8074 31.8996 42.7543 31.7712C42.7011 31.6429 42.6231 31.5262 42.5248 31.428L40.1432 29.0464C39.9446 28.8483 39.6756 28.7371 39.3951 28.7371C39.1147 28.7371 38.8457 28.8483 38.6471 29.0464L28.3706 39.322C28.1726 39.5206 28.0614 39.7896 28.0614 40.0701C28.0614 40.3505 28.1726 40.6195 28.3706 40.8181L30.7526 43.1998C30.9511 43.3979 31.22 43.5091 31.5005 43.5091C31.7809 43.5091 32.0499 43.3979 32.2484 43.1998C32.459 42.9882 32.7096 42.8205 32.9855 42.7064C33.2613 42.5923 33.5571 42.5341 33.8557 42.535V42.535Z" fill="white"/>
<g opacity="0.2">
<path d="M49.71 51.9327C51.8557 54.0784 52.6395 56.7735 51.87 57.5422C51.1005 58.3109 49.4864 56.4468 47.3407 54.3022C45.195 52.1576 43.331 50.5419 44.1007 49.7732C44.8705 49.0046 47.5643 49.787 49.71 51.9327Z" fill="white"/>
</g>
<path d="M9.15823 1.66748L15.2297 7.73897C15.9717 8.48006 16.4918 9.41372 16.7314 10.4347C16.9711 11.4556 16.9207 12.5232 16.5859 13.517L34.8536 31.9812L31.3069 35.5282L13.0384 17.0631C12.0446 17.3978 10.977 17.4482 9.95611 17.2086C8.93519 16.9689 8.00153 16.4488 7.2604 15.7069L1.18945 9.63545L9.15823 1.66748Z" fill="#043675"/>
<g opacity="0.65">
<path d="M3.86621 9.05499C3.80729 9.1132 3.76047 9.18249 3.72845 9.25887C3.69643 9.33525 3.67984 9.41722 3.67964 9.50004C3.67944 9.58286 3.69563 9.66491 3.72728 9.74144C3.75893 9.81798 3.80541 9.8875 3.86405 9.94599L8.24777 14.3297C9.59777 15.6797 11.0917 15.8306 12.7403 15.4184C12.9859 15.3558 13.2434 15.3577 13.4881 15.4239C13.7327 15.4901 13.956 15.6184 14.1365 15.7964L32.291 34.1474L30.85 35.5884L12.5823 17.1242C11.589 17.4588 10.522 17.5093 9.50152 17.27C8.48105 17.0306 7.54773 16.511 6.80678 15.7696L2.22541 11.188C1.88287 10.8454 1.69043 10.3808 1.69043 9.89631C1.69043 9.41184 1.88287 8.94722 2.22541 8.60463L8.62226 2.20752L9.99521 2.97999L3.86621 9.05499Z" fill="white"/>
</g>
<g opacity="0.65">
<path d="M2.71352 7.98521L1.27246 9.42627L1.4735 9.62731L2.91455 8.18625L2.71352 7.98521Z" fill="white"/>
</g>
<path d="M31.3058 36.1361H31.3039C31.2238 36.1359 31.1446 36.1198 31.0708 36.0888C30.997 36.0579 30.9301 36.0127 30.8738 35.9558L12.8648 17.7518C10.7085 18.335 8.42813 17.7335 6.83216 16.1378L1.90196 11.2076C1.48513 10.7906 1.25098 10.2251 1.25098 9.63548C1.25098 9.04588 1.48513 8.48041 1.90196 8.06341L7.58519 2.38045C8.00214 1.96364 8.56757 1.72949 9.15713 1.72949C9.74669 1.72949 10.3121 1.96364 10.7291 2.38045L15.6582 7.30957C17.255 8.90635 17.856 11.1892 17.2712 13.3462L35.2842 31.5534C35.3972 31.6675 35.4604 31.8217 35.46 31.9822C35.4596 32.1428 35.3956 32.2966 35.2821 32.4101L31.7353 35.9571C31.6215 36.0714 31.467 36.1357 31.3058 36.1361V36.1361ZM13.0381 16.4558C13.1184 16.4558 13.198 16.4716 13.2722 16.5026C13.3463 16.5335 13.4136 16.5788 13.4701 16.6359L31.3082 34.666L33.9958 31.9784L16.1534 13.9437C16.0741 13.8638 16.0187 13.7633 15.9932 13.6537C15.9678 13.544 15.9733 13.4294 16.0092 13.3227C16.3108 12.4365 16.3572 11.4834 16.1433 10.5721C15.9294 9.66078 15.4637 8.82789 14.7993 8.16844L9.86993 3.23959C9.68083 3.05064 9.42445 2.9445 9.15713 2.9445C8.88981 2.9445 8.63342 3.05064 8.44433 3.23959V3.23959L2.76137 8.92255C2.57234 9.11166 2.46615 9.3681 2.46615 9.63548C2.46615 9.90287 2.57234 10.1593 2.76137 10.3484L7.69049 15.2775C8.34994 15.9419 9.18282 16.4076 10.0942 16.6215C11.0055 16.8355 11.9586 16.789 12.8448 16.4874C12.9071 16.4665 12.9724 16.4558 13.0381 16.4558Z" fill="white"/>
<defs>
<linearGradient id="paint0_linear_691_706" x1="1.45102" y1="43.9128" x2="23.7969" y2="53.4358" gradientUnits="userSpaceOnUse">
<stop stop-color="white"/>
<stop offset="1" stop-color="#AAA0A0"/>
</linearGradient>
<linearGradient id="paint1_linear_691_706" x1="32.9335" y1="18.5898" x2="43.6822" y2="24.1055" gradientUnits="userSpaceOnUse">
<stop stop-color="white"/>
<stop offset="1" stop-color="#AAA0A0"/>
</linearGradient>
<linearGradient id="paint2_linear_691_706" x1="11.0133" y1="35.6636" x2="29.2104" y2="45.3751" gradientUnits="userSpaceOnUse">
<stop stop-color="white"/>
<stop offset="1" stop-color="#AAA0A0"/>
</linearGradient>
<linearGradient id="paint3_linear_691_706" x1="36.5708" y1="9.245" x2="48.0265" y2="15.7506" gradientUnits="userSpaceOnUse">
<stop stop-color="white"/>
<stop offset="1" stop-color="#AAA0A0"/>
</linearGradient>
</defs>
</svg>
