<svg width="60" height="40" viewBox="0 0 60 40" fill="none" xmlns="http://www.w3.org/2000/svg">
<g clip-path="url(#clip0_530_5878)">
<path d="M39.25 9.11096H4C2.34315 9.11096 1 10.4541 1 12.111V35.361C1 37.0178 2.34315 38.361 4 38.361H39.25C40.9069 38.361 42.25 37.0178 42.25 35.361V12.111C42.25 10.4541 40.9069 9.11096 39.25 9.11096Z" fill="white"/>
<path d="M46.544 32.111H42.25V15.361H46.544V26.361" fill="white"/>
<path d="M46.5439 15.361L53.0289 10.736H58.9999V36.736H53.0289L46.5439 32.111V15.361Z" fill="white"/>
<path d="M34.917 20.403H8.33301V14.736H34.917V17.153" fill="#80DEEA"/>
<path d="M12 32.737C13.8872 32.737 15.417 31.2071 15.417 29.32C15.417 27.4328 13.8872 25.903 12 25.903C10.1129 25.903 8.58301 27.4328 8.58301 29.32C8.58301 31.2071 10.1129 32.737 12 32.737Z" fill="#EF5350"/>
<path d="M34.25 31.986H22.417V27.653H34.25V29.32" fill="#80DEEA"/>
<path d="M31.875 1H12V4.486H31.875V1Z" fill="white"/>
<path d="M39.25 39.361H4C2.93913 39.361 1.92172 38.9395 1.17157 38.1894C0.421427 37.4392 0 36.4218 0 35.361V12.111C0 11.0501 0.421427 10.0327 1.17157 9.28253C1.92172 8.53239 2.93913 8.11096 4 8.11096H39.25C40.3109 8.11096 41.3283 8.53239 42.0784 9.28253C42.8286 10.0327 43.25 11.0501 43.25 12.111V35.361C43.25 36.4218 42.8286 37.4392 42.0784 38.1894C41.3283 38.9395 40.3109 39.361 39.25 39.361ZM4 10.111C3.46957 10.111 2.96086 10.3217 2.58579 10.6967C2.21071 11.0718 2 11.5805 2 12.111V35.361C2 35.8914 2.21071 36.4001 2.58579 36.7752C2.96086 37.1502 3.46957 37.361 4 37.361H39.25C39.7804 37.361 40.2891 37.1502 40.6642 36.7752C41.0393 36.4001 41.25 35.8914 41.25 35.361V12.111C41.25 11.5805 41.0393 11.0718 40.6642 10.6967C40.2891 10.3217 39.7804 10.111 39.25 10.111H4Z" fill="#22242B"/>
<path d="M46.544 33.111H42.25C41.9848 33.111 41.7304 33.0056 41.5429 32.8181C41.3554 32.6305 41.25 32.3762 41.25 32.111V15.361C41.25 15.0957 41.3554 14.8414 41.5429 14.6539C41.7304 14.4663 41.9848 14.361 42.25 14.361H46.544C46.8092 14.361 47.0636 14.4663 47.2511 14.6539C47.4386 14.8414 47.544 15.0957 47.544 15.361V26.361C47.544 26.6262 47.4386 26.8805 47.2511 27.0681C47.0636 27.2556 46.8092 27.361 46.544 27.361C46.2788 27.361 46.0244 27.2556 45.8369 27.0681C45.6494 26.8805 45.544 26.6262 45.544 26.361V16.361H43.25V31.111H46.544C46.8092 31.111 47.0636 31.2163 47.2511 31.4039C47.4386 31.5914 47.544 31.8457 47.544 32.111C47.544 32.3762 47.4386 32.6305 47.2511 32.8181C47.0636 33.0056 46.8092 33.111 46.544 33.111Z" fill="#22242B"/>
<path d="M58.9997 37.736H53.0277C52.8194 37.736 52.6163 37.671 52.4467 37.55L45.9627 32.925C45.849 32.8516 45.7514 32.7559 45.6757 32.6437C45.6001 32.5315 45.548 32.4051 45.5226 32.2721C45.4972 32.1392 45.4991 32.0025 45.5281 31.8703C45.5572 31.7381 45.6127 31.6132 45.6915 31.5031C45.7702 31.393 45.8704 31.3 45.9861 31.2298C46.1019 31.1596 46.2306 31.1136 46.3646 31.0946C46.4986 31.0756 46.6351 31.084 46.7657 31.1193C46.8964 31.1547 47.0185 31.2161 47.1247 31.3L53.3487 35.739H57.9997V11.739H53.3487L47.1247 16.178C47.0179 16.2543 46.897 16.3088 46.769 16.3384C46.6411 16.368 46.5085 16.3721 46.379 16.3504C46.2495 16.3288 46.1254 16.2819 46.014 16.2123C45.9027 16.1427 45.806 16.0519 45.7297 15.945C45.6534 15.8381 45.599 15.7172 45.5694 15.5893C45.5398 15.4613 45.5357 15.3288 45.5573 15.1993C45.579 15.0697 45.6259 14.9457 45.6955 14.8343C45.765 14.7229 45.8559 14.6263 45.9627 14.55L52.4467 9.92501C52.6163 9.80401 52.8194 9.73899 53.0277 9.73901H58.9997C59.265 9.73901 59.5193 9.84437 59.7069 10.0319C59.8944 10.2194 59.9997 10.4738 59.9997 10.739V36.739C59.999 37.0037 59.8932 37.2573 59.7058 37.4442C59.5183 37.6311 59.2644 37.736 58.9997 37.736Z" fill="#22242B"/>
<path d="M53.0283 25.4C52.7631 25.4 52.5087 25.2946 52.3212 25.1071C52.1337 24.9195 52.0283 24.6652 52.0283 24.4V10.736C52.0283 10.4707 52.1337 10.2164 52.3212 10.0289C52.5087 9.84132 52.7631 9.73596 53.0283 9.73596C53.2935 9.73596 53.5479 9.84132 53.7354 10.0289C53.923 10.2164 54.0283 10.4707 54.0283 10.736V24.4C54.0283 24.6652 53.923 24.9195 53.7354 25.1071C53.5479 25.2946 53.2935 25.4 53.0283 25.4Z" fill="#22242B"/>
<path d="M53.0283 30.32C52.7631 30.32 52.5087 30.2146 52.3212 30.0271C52.1337 29.8395 52.0283 29.5852 52.0283 29.32V27.653C52.0283 27.3877 52.1337 27.1334 52.3212 26.9458C52.5087 26.7583 52.7631 26.653 53.0283 26.653C53.2935 26.653 53.5479 26.7583 53.7354 26.9458C53.923 27.1334 54.0283 27.3877 54.0283 27.653V29.32C54.0283 29.5852 53.923 29.8395 53.7354 30.0271C53.5479 30.2146 53.2935 30.32 53.0283 30.32Z" fill="#22242B"/>
<path d="M34.917 21.4H8.33301C8.06779 21.4 7.81344 21.2946 7.6259 21.1071C7.43836 20.9195 7.33301 20.6652 7.33301 20.4V14.736C7.33301 14.4707 7.43836 14.2164 7.6259 14.0289C7.81344 13.8413 8.06779 13.736 8.33301 13.736H34.917C35.1822 13.736 35.4366 13.8413 35.6241 14.0289C35.8117 14.2164 35.917 14.4707 35.917 14.736V17.153C35.917 17.4182 35.8117 17.6725 35.6241 17.8601C35.4366 18.0476 35.1822 18.153 34.917 18.153C34.6518 18.153 34.3974 18.0476 34.2099 17.8601C34.0224 17.6725 33.917 17.4182 33.917 17.153V15.736H9.33301V19.4H34.917C35.1822 19.4 35.4366 19.5053 35.6241 19.6929C35.8117 19.8804 35.917 20.1347 35.917 20.4C35.917 20.6652 35.8117 20.9195 35.6241 21.1071C35.4366 21.2946 35.1822 21.4 34.917 21.4Z" fill="#22242B"/>
<path d="M12 33.736C11.1264 33.736 10.2723 33.4769 9.54595 32.9915C8.81956 32.5061 8.25342 31.8162 7.91914 31.0091C7.58486 30.2019 7.49744 29.3137 7.66795 28.4569C7.83847 27.6001 8.25924 26.813 8.87707 26.1953C9.4949 25.5776 10.282 25.157 11.1389 24.9867C11.9958 24.8164 12.8839 24.904 13.691 25.2385C14.4981 25.573 15.1879 26.1393 15.6731 26.8658C16.1583 27.5923 16.4172 28.4463 16.417 29.32C16.4154 30.4909 15.9495 31.6133 15.1215 32.4412C14.2935 33.269 13.1709 33.7347 12 33.736ZM12 26.9C11.522 26.9 11.0547 27.0417 10.6572 27.3073C10.2597 27.5729 9.94993 27.9504 9.76699 28.392C9.58406 28.8337 9.53619 29.3197 9.62945 29.7885C9.72271 30.2574 9.95291 30.688 10.2909 31.0261C10.629 31.3641 11.0596 31.5943 11.5285 31.6875C11.9973 31.7808 12.4833 31.7329 12.925 31.55C13.3666 31.3671 13.7441 31.0573 14.0097 30.6598C14.2753 30.2623 14.417 29.795 14.417 29.317C14.4165 28.6761 14.1617 28.0616 13.7085 27.6085C13.2553 27.1553 12.6409 26.9005 12 26.9Z" fill="#22242B"/>
<path d="M34.25 32.986H22.417C22.1518 32.986 21.8974 32.8806 21.7099 32.6931C21.5223 32.5055 21.417 32.2512 21.417 31.986V27.653C21.417 27.3877 21.5223 27.1334 21.7099 26.9458C21.8974 26.7583 22.1518 26.653 22.417 26.653H34.25C34.5152 26.653 34.7696 26.7583 34.9571 26.9458C35.1446 27.1334 35.25 27.3877 35.25 27.653V29.32C35.25 29.5852 35.1446 29.8395 34.9571 30.0271C34.7696 30.2146 34.5152 30.32 34.25 30.32C33.9848 30.32 33.7304 30.2146 33.5429 30.0271C33.3553 29.8395 33.25 29.5852 33.25 29.32V28.653H23.417V30.986H34.25C34.5152 30.986 34.7696 31.0913 34.9571 31.2788C35.1446 31.4664 35.25 31.7207 35.25 31.986C35.25 32.2512 35.1446 32.5055 34.9571 32.6931C34.7696 32.8806 34.5152 32.986 34.25 32.986Z" fill="#22242B"/>
<path d="M31.875 5.486H12C11.7348 5.486 11.4804 5.38064 11.2929 5.19311C11.1054 5.00557 11 4.75122 11 4.486V1C11 0.734784 11.1054 0.48043 11.2929 0.292893C11.4804 0.105357 11.7348 0 12 0L31.875 0C32.1402 0 32.3946 0.105357 32.5821 0.292893C32.7696 0.48043 32.875 0.734784 32.875 1V4.486C32.875 4.75122 32.7696 5.00557 32.5821 5.19311C32.3946 5.38064 32.1402 5.486 31.875 5.486ZM13 3.486H30.875V2H13V3.486Z" fill="#22242B"/>
<path d="M36 10.111C35.7348 10.111 35.4804 10.0057 35.2929 9.81815C35.1054 9.63061 35 9.37626 35 9.11104V6.86804C34.9989 6.03957 34.6694 5.24532 34.0835 4.6595C33.4977 4.07368 32.7035 3.7441 31.875 3.74304C31.6098 3.74304 31.3554 3.63769 31.1679 3.45015C30.9804 3.26261 30.875 3.00826 30.875 2.74304C30.875 2.47783 30.9804 2.22347 31.1679 2.03594C31.3554 1.8484 31.6098 1.74304 31.875 1.74304C33.2337 1.74463 34.5364 2.28509 35.4972 3.24587C36.4579 4.20665 36.9984 5.50929 37 6.86804V9.11104C37 9.37626 36.8946 9.63061 36.7071 9.81815C36.5196 10.0057 36.2652 10.111 36 10.111Z" fill="#22242B"/>
</g>
<defs>
<clipPath id="clip0_530_5878">
<rect width="60" height="39.361" fill="white"/>
</clipPath>
</defs>
</svg>
