<svg width="70" height="104" viewBox="0 0 70 104" fill="none" xmlns="http://www.w3.org/2000/svg">
<path d="M54.859 8.47122C55.7654 9.46402 58.9142 9.96082 58.9926 11.1392C59.071 12.3176 59.0614 12.7344 59.9606 13.0592C60.5374 13.2688 61.9774 14.9856 61.035 16.2424C60.0926 17.4992 61.4278 17.5784 61.5846 18.9136C61.7414 20.2488 61.9774 21.5056 61.271 23.4696C60.5646 25.4336 61.035 26.6112 61.431 27.1616C61.827 27.712 61.9806 28.968 60.8814 29.832C59.7822 30.696 60.331 32.5032 60.8814 33.3672C61.4318 34.2312 62.295 37.6072 61.3526 38.6304C60.4102 39.6536 61.5126 41.4576 61.5878 42.7144C61.663 43.9712 39.1198 49.708 37.7838 46.72C36.4478 43.732 36.8414 44.5208 37.7038 43.4208C38.5662 42.3208 38.175 41.3784 37.3894 40.2792C36.6038 39.18 37.2294 38.2368 38.175 37.0584C39.1206 35.88 39.1958 34.5448 37.8606 32.8184C36.5254 31.092 37.075 30.4616 37.5462 29.2832C38.0174 28.1048 36.1326 26.9264 36.3686 25.8272C36.6046 24.728 37.075 22.292 36.2086 21.1136C35.3422 19.9352 35.5806 17.8144 36.523 16.9536C37.4654 16.0928 36.9934 15.3736 36.6926 14.3976C36.3662 13.3352 37.2342 11.5312 38.491 11.3744C39.7478 11.2176 52.9238 6.35362 54.859 8.47122Z" fill="#B56A4B"/>
<path d="M39.2803 26.812C40.9555 27.504 43.6883 33.7216 40.2403 40.388C55.9835 38.2464 59.3371 37.172 59.3371 37.172C59.3371 37.172 55.1547 35.5568 58.7203 26.0464C51.0995 26.1232 39.2803 26.812 39.2803 26.812Z" fill="#814B32"/>
<path d="M67.7923 58.688C67.7923 58.688 68.6011 59.1536 68.8891 59.7056C69.1771 60.2576 69.3691 61.88 69.1291 62.1768C69.1659 62.7416 69.0491 63.1888 68.8659 63.1624C68.8939 63.6424 68.7187 64.0608 68.3859 64.1432C68.0531 64.2256 68.0275 63.044 68.0275 63.044C68.0275 63.044 67.2995 61.1664 67.1155 61.168C67.1763 61.9568 67.2251 62.7392 66.7867 62.928C66.3483 63.1168 66.2363 62.4 66.0555 61.5728C65.8747 60.7456 65.7603 59.0512 65.7603 59.0512L67.7923 58.688Z" fill="#FCC7A5"/>
<path d="M68.8682 63.192C68.8614 63.192 68.855 63.1895 68.85 63.1849C68.8451 63.1802 68.8422 63.1739 68.8418 63.1672C68.7525 62.3837 68.4783 61.6327 68.0418 60.976C68.0375 60.9699 68.0352 60.9627 68.0352 60.9552C68.0352 60.9478 68.0375 60.9405 68.0418 60.9344C68.0438 60.9319 68.0464 60.9299 68.0493 60.9285C68.0522 60.9271 68.0553 60.9264 68.0586 60.9264C68.0618 60.9264 68.065 60.9271 68.0679 60.9285C68.0708 60.9299 68.0733 60.9319 68.0754 60.9344C68.5194 61.6001 68.7988 62.3619 68.8906 63.1568C68.8915 63.1606 68.8917 63.1645 68.891 63.1684C68.8904 63.1722 68.889 63.1759 68.8869 63.1792C68.8848 63.1825 68.8821 63.1853 68.8789 63.1875C68.8756 63.1897 68.872 63.1913 68.8682 63.192V63.192Z" fill="#DE9173"/>
<path d="M69.1313 62.2064C69.1193 62.2064 69.1073 62.1976 69.1049 62.1816C68.8945 60.6216 68.3769 60.1888 68.3729 60.1816C68.3671 60.1767 68.3634 60.1698 68.3622 60.1624C68.361 60.1549 68.3625 60.1473 68.3665 60.1408C68.3676 60.1379 68.3695 60.1353 68.3718 60.1332C68.3742 60.1312 68.377 60.1297 68.38 60.1289C68.3831 60.1281 68.3863 60.1281 68.3893 60.1288C68.3924 60.1294 68.3952 60.1308 68.3977 60.1328C68.4201 60.1504 68.9377 60.5848 69.1513 62.1688C69.1529 62.1757 69.1519 62.1829 69.1485 62.1891C69.1451 62.1953 69.1395 62.2 69.1329 62.2024L69.1313 62.2064Z" fill="#DE9173"/>
<path d="M36.7295 58.4801C40.0727 44.7201 42.4895 38.7729 43.5207 36.1393C43.8123 36.2613 44.0933 36.4074 44.3607 36.5761C44.3607 36.5761 41.2279 43.8857 37.4463 58.7921C36.9895 58.8961 36.7543 58.6313 36.7295 58.4801Z" fill="#A26429"/>
<path d="M58.4898 35.4288C60.7202 38.132 63.1666 50.1232 68.2106 58.88C67.2842 59.6064 66.6218 60.208 65.3162 60.1488C57.5194 49.0928 54.5962 38.7496 54.5962 38.7496L58.4898 35.4288Z" fill="#F04E23"/>
<path d="M51.7489 91.5592C51.7489 91.5592 51.6865 95.044 51.5889 97.3992C51.8185 98.0032 56.1977 100.484 56.4457 99.212C56.5345 98.7576 52.9521 97.0104 52.9673 96.4968C53.0057 95.124 53.0641 92.4728 52.9937 91.5056C52.5649 91.3016 51.7489 91.5592 51.7489 91.5592Z" fill="#FCC7A5"/>
<path d="M51.5545 96.8129C51.3217 96.9073 51.0697 98.6393 51.4513 99.0529C51.8329 99.4665 55.5665 101.357 57.6953 101.378C59.0761 101.393 59.0697 100.785 58.4625 100.186C57.8361 99.5665 55.5249 98.2425 55.5249 98.2425C55.5249 98.2425 56.1049 98.7569 55.1657 98.9033C54.2105 99.0489 52.0857 97.7161 51.5545 96.8129Z" fill="#1D1D1D"/>
<path d="M48.5458 92.0801C48.5458 92.0801 48.4866 96.9601 48.5042 97.9497C48.6482 98.8041 49.1674 101.352 48.213 101.358C46.9242 101.369 47.1898 98.9073 47.1578 98.1137C47.1258 97.3201 47.1074 92.1393 47.1074 92.1393L48.5458 92.0801Z" fill="#FCC7A5"/>
<path d="M48.504 97.4113C48.756 97.7665 48.9984 98.4865 49.2408 99.6585C49.492 100.881 49.8504 102.978 48.7608 103.214C47.8504 103.414 46.9384 103.31 46.6864 101.397C46.4048 99.2801 47.1048 97.4681 47.1048 97.4681C47.1048 97.4681 47.1264 100.089 47.9464 100.163C48.7664 100.238 48.4368 98.9193 48.504 97.4113Z" fill="#1D1D1D"/>
<path d="M51.6393 31.4401C51.6393 31.4401 51.6465 32.6321 51.7441 33.4889C53.5217 33.8249 54.5241 34.0489 54.5241 34.0489C54.5241 34.0489 55.7961 40.1961 52.0657 40.3689C49.4865 40.4865 46.9937 35.5145 46.7017 34.6889C47.2161 34.5129 48.1209 34.1209 49.6969 33.5961L49.6129 31.5505L51.6393 31.4401Z" fill="#FCC7A5"/>
<path d="M51.4911 32.9728C51.0367 32.404 50.5191 32.5784 50.0335 33.0152L49.9023 31.6168L51.3703 31.5032C51.4191 32.1472 51.3751 31.648 51.4911 32.9728Z" fill="#EBAD86"/>
<path d="M58.7673 54.4304C58.7673 54.4304 59.2633 56.8304 58.3673 67.1096C57.9617 71.7696 55.3673 85.2488 54.5769 91.8424C54.2993 92.4136 52.0521 92.6224 51.3769 91.9624C50.9641 81.832 51.7945 67.3344 51.9369 64.4056C50.4465 74.2672 49.3633 88.8632 49.4121 92.2144C49.1329 92.784 46.3201 92.844 45.9929 92.1696C45.7113 81.088 45.5849 78.1632 45.5129 76.36C45.4409 74.5568 42.6329 58.312 44.2089 54.808C45.7849 51.304 58.7673 54.4304 58.7673 54.4304Z" fill="#4C4C4D"/>
<path d="M53.9736 33.7753C54.3056 34.5369 54.3312 38.3449 51.8264 38.5833C48.6224 38.8889 47.5288 35.4721 47.1472 34.4753C44.5184 35.3657 42.7904 36.4897 42.1016 37.5073C42.5728 38.5201 47.1608 44.9713 42.9816 56.2777C47.4072 59.3649 54.6872 59.1969 59.5584 56.3329C58.5984 51.8145 57.7184 48.8049 57.8224 47.2529C59.7712 46.0121 60.1424 45.1905 58.9208 40.9521C58.0944 38.0841 57.5808 35.5025 57.1312 35.0057C56.432 34.2401 53.9736 33.7753 53.9736 33.7753Z" fill="#00A79D"/>
<path d="M46.4561 34.6945C47.4961 37.5473 49.1217 48.2801 49.3809 61.2473C44.7129 61.5065 41.9897 58.7761 41.9897 58.7761C41.9897 58.7761 40.4969 51.6793 41.6217 37.6097C43.4401 35.4049 46.4561 34.6945 46.4561 34.6945Z" fill="#F04E23"/>
<path d="M54.588 33.86C55.704 36.88 55.2648 55.84 55.2648 61.1528C58.0648 61.852 59.9192 60.3528 59.9192 60.3528C59.9192 60.3528 61.1048 41.2496 58.308 35.3768C56.5232 34.0672 54.2224 33.9008 54.588 33.86Z" fill="#F04E23"/>
<path d="M36.6448 56.1929C36.6448 56.1929 35.1704 62.8329 35.7288 66.8329C35.796 67.3129 42.884 70.0937 44.9816 70.1401C47.0792 70.1865 46.2232 57.4385 45.9416 57.6249C45.66 57.8113 36.6448 56.1929 36.6448 56.1929Z" fill="#AF8568"/>
<path d="M45.7865 57.8913C45.7865 57.8913 37.8665 56.1505 37.0033 56.2369C36.6233 56.9969 35.9761 62.7833 40.0433 63.9705C45.0945 65.4457 45.7865 57.8913 45.7865 57.8913Z" fill="#805538"/>
<path d="M48.1966 57.28C48.1966 57.28 48.3342 65.4496 47.9998 69.048C46.7918 69.7192 44.9814 70.1424 44.9814 70.1424C44.9814 70.1424 45.1198 62.92 45.9198 57.556C46.1894 57.2208 48.0662 57.3776 48.1966 57.28Z" fill="#9C6C4B"/>
<path d="M48.1969 57.28C47.9065 56.9896 39.4145 55.3752 38.6097 55.3752C37.9393 55.4192 36.7793 55.7048 36.7793 55.7048C36.7793 55.7048 45.3177 57.6 45.8313 57.6456C46.3449 57.6912 47.7241 57.4696 48.1969 57.28Z" fill="#CDAB84"/>
<path d="M45.876 57.6232C45.876 57.6232 37.6464 55.6144 36.7792 55.7032C36.3992 56.4632 35.752 62.2488 39.8192 63.4368C44.8704 64.9096 45.876 57.6232 45.876 57.6232Z" fill="#BC9376"/>
<path d="M39.2378 63.9073C39.2302 63.9809 39.2373 64.0553 39.2586 64.1261C39.2799 64.197 39.315 64.2629 39.362 64.3201C39.4089 64.3774 39.4667 64.4247 39.532 64.4594C39.5974 64.4941 39.669 64.5156 39.7426 64.5225V64.5225C39.8162 64.53 39.8905 64.5229 39.9613 64.5015C40.032 64.4801 40.0979 64.445 40.155 64.3981C40.2121 64.3511 40.2594 64.2934 40.294 64.2281C40.3287 64.1628 40.3501 64.0913 40.357 64.0177L40.4482 63.0961C40.4559 63.0225 40.4488 62.9482 40.4276 62.8774C40.4063 62.8066 40.3713 62.7407 40.3244 62.6835C40.2776 62.6263 40.2198 62.5789 40.1546 62.5442C40.0893 62.5094 40.0178 62.4879 39.9442 62.4809V62.4809C39.8706 62.4733 39.7963 62.4803 39.7254 62.5016C39.6545 62.5229 39.5886 62.5581 39.5314 62.605C39.4742 62.6519 39.4268 62.7097 39.3921 62.7751C39.3574 62.8404 39.3359 62.912 39.329 62.9857L39.2378 63.9073Z" fill="#FEBE27"/>
<path d="M47.3313 58.1816C47.2161 44.0232 46.2225 37.68 45.8185 34.88C45.5066 34.9321 45.1997 35.0103 44.9009 35.1136C44.9009 35.1136 46.2825 42.9464 46.5601 58.32C46.9817 58.5312 47.2721 58.3272 47.3313 58.1816Z" fill="#FFCB05"/>
<path d="M38.0513 61.6617C38.0513 61.6617 37.6513 62.5025 37.7217 63.1209C37.7921 63.7393 38.5513 65.1881 38.9217 65.2953C39.2105 65.7817 39.5569 66.0865 39.6961 65.9593C39.9449 66.3721 40.3249 66.6177 40.6481 66.4961C40.9713 66.3745 40.3201 65.3865 40.3201 65.3865C40.3201 65.3865 39.8601 63.4265 40.0129 63.3233C40.4081 64.0081 40.8129 64.6833 41.2777 64.5881C41.7425 64.4929 41.4329 63.8409 41.1177 63.0569C40.8025 62.2729 39.9337 60.8169 39.9337 60.8169L38.0513 61.6617Z" fill="#FCC7A5"/>
<path d="M39.7089 65.9848C39.7118 65.9831 39.7144 65.9808 39.7164 65.9781C39.7183 65.9754 39.7198 65.9722 39.7205 65.969C39.7213 65.9657 39.7213 65.9622 39.7207 65.9589C39.7201 65.9556 39.7188 65.9524 39.7169 65.9496C39.3484 65.2521 39.1513 64.4769 39.1417 63.688C39.1419 63.6805 39.1396 63.6732 39.1351 63.6673C39.1306 63.6613 39.1242 63.657 39.1169 63.6552C39.1138 63.6545 39.1106 63.6545 39.1075 63.6552C39.1044 63.6559 39.1015 63.6573 39.099 63.6593C39.0965 63.6613 39.0945 63.6639 39.0932 63.6668C39.0919 63.6697 39.0912 63.6728 39.0913 63.676C39.1007 64.4759 39.3003 65.2621 39.6737 65.9696C39.6764 65.9763 39.6816 65.9816 39.6882 65.9845C39.6948 65.9873 39.7022 65.9875 39.7089 65.9848V65.9848Z" fill="#DE9173"/>
<path d="M38.9353 65.3209C38.941 65.3173 38.945 65.3115 38.9465 65.3049C38.948 65.2983 38.9469 65.2914 38.9433 65.2857C38.2353 63.8801 38.4169 63.2305 38.4185 63.2249C38.4205 63.2175 38.4198 63.2097 38.4166 63.2028C38.4134 63.1959 38.4078 63.1904 38.4009 63.1873C38.3982 63.1857 38.3951 63.1847 38.392 63.1845C38.3888 63.1843 38.3857 63.1847 38.3828 63.1859C38.3798 63.1871 38.3772 63.1889 38.3751 63.1912C38.373 63.1935 38.3714 63.1963 38.3705 63.1993C38.3617 63.2265 38.1801 63.8769 38.8993 65.3041C38.9021 65.3105 38.907 65.3158 38.9133 65.319C38.9196 65.3223 38.9268 65.3232 38.9337 65.3217L38.9353 65.3209Z" fill="#DE9173"/>
<path d="M42.0888 44.6936C41.6176 51.2944 40.5504 51.8976 40.8192 61.9992C39.6592 62.1968 38.7024 62.3992 37.5816 61.7264C34.8424 46.1865 41.6664 37.4865 41.6664 37.4865C41.6664 37.4865 42.3104 41.6 42.0888 44.6936Z" fill="#F04E23"/>
<path d="M59.3761 25.2376C57.9361 28.948 55.3401 31.852 51.9001 32.3248C48.4017 32.8048 43.3105 30.7312 41.1641 26.7448C38.2921 21.412 39.6553 11.8328 48.9921 11.2992C58.3289 10.7656 61.8625 18.82 59.3761 25.2376Z" fill="#FCC7A5"/>
<path d="M58.9537 24.96C58.8057 25.7736 57.9465 26.236 56.8737 26.1448C55.8377 26.056 54.8985 25.1408 55.1865 24.4048C55.4593 23.704 55.9865 24.0336 57.2361 23.76C58.4425 23.4952 59.1025 24.1464 58.9537 24.96Z" fill="#F79C84"/>
<path d="M44.2863 25.7449C44.4351 26.5585 45.2943 27.0209 46.3663 26.9297C47.4023 26.8409 48.3415 25.9257 48.0543 25.1889C47.7807 24.4889 47.2543 24.8185 46.0039 24.5449C44.7999 24.2801 44.1375 24.9321 44.2863 25.7449Z" fill="#F79C84"/>
<path d="M48.0296 7.28641C48.3832 6.55121 49.1496 6.11521 50.3448 5.95201C51.0368 5.85761 52.1456 5.85121 53.4888 6.56481C54.6184 7.16481 55.1624 7.10881 55.9688 7.61441C57.1016 8.32801 57.48 9.25121 58.3608 9.96481C59.216 10.6568 59.6976 11.7048 59.872 13.1968C60.1424 15.5088 60.732 18.6736 60.0176 18.5752C58.6816 18.392 58.9176 17.3448 58.2104 16.6376C57.5032 15.9304 55.8904 16.6464 55.3304 16.2712C54.4664 15.6952 53.6504 14.7512 52.8688 14.9112C52.0872 15.0712 50.3888 13.3504 50.0688 12.2512C49.9088 14.4504 48.8608 16.1712 47.7608 16.0912C46.6608 16.0112 45.8752 16.7984 45.7968 17.584C45.7184 18.3696 43.7544 19.7048 42.5768 19.6264C41.3992 19.548 41.9768 23.7728 40.3768 23.2136C37.992 21.0824 37.1496 13.8648 37.8752 11.7736C38.5832 9.73121 39.588 8.75361 40.9392 8.33361C41.7776 8.07201 43.1608 7.58241 44.0872 7.07441C45.388 6.35521 46.56 6.22401 48.0296 7.28641Z" fill="#B56A4B"/>
<path d="M40.3688 26.6744C40.5656 26.8232 41.268 27.6528 40.8424 28.2472C40.4424 28.5672 40.2352 28.3032 40.2352 28.3032C40.2352 28.3032 40.824 27.4088 40.0176 26.6824C40.1384 26.56 40.3688 26.6744 40.3688 26.6744Z" fill="#C72427"/>
<path d="M40.9784 23.5848C40.9784 23.5848 40.3648 22.0272 38.9488 22.2672C37.4568 22.5216 37.58 25.1824 38.8 26.5352C40.02 27.888 41.6896 27.6096 41.8256 26.172L40.9784 23.5848Z" fill="#FCC7A5"/>
<path d="M40.2562 26.5513C39.5834 27.4105 40.3258 28.5401 40.8426 28.2473C40.7066 28.4873 40.1546 28.6017 39.9434 28.5017C39.5106 28.3001 39.0274 27.4889 39.813 26.5977C39.933 26.4865 40.2146 26.4497 40.2562 26.5513Z" fill="#F04E23"/>
<path d="M38.8706 23.0696C39.7354 22.5232 40.921 23.912 39.9994 25.5624C40.0722 23.7104 39.6434 24.0296 39.1946 25.0504C39.053 24.5016 39.1898 24.0808 39.7674 23.9536C39.6962 23.7471 39.5783 23.5598 39.4227 23.4065C39.2671 23.2531 39.0781 23.1378 38.8706 23.0696V23.0696Z" fill="#D5956A"/>
<path d="M56.7136 17.9432C55.1176 17.4056 55.0272 18.7024 56.1256 18.6736C57.4112 18.64 57.772 18.8504 58.016 19.0856C57.9736 18.8168 57.6296 18.2512 56.7136 17.9432Z" fill="#C98960"/>
<path d="M46 18.5488C47.5472 17.884 47.7424 19.1696 46.6448 19.2296C45.3648 19.3 45.0184 19.5384 44.7944 19.7896C44.8104 19.52 45.108 18.9304 46 18.5488Z" fill="#C98960"/>
<path d="M52.5784 24.712C52.5919 24.7167 52.6066 24.7167 52.62 24.712C53.056 24.5456 53.296 24.1992 53.2648 23.7808C53.2368 23.3944 52.9752 23.0512 52.6592 22.9808C52.4608 22.9392 52.0728 22.9608 51.7144 23.612C51.7072 23.6257 51.7056 23.6418 51.7099 23.6567C51.7142 23.6716 51.7242 23.6843 51.7376 23.692C51.7444 23.6958 51.7518 23.6982 51.7596 23.6991C51.7673 23.7 51.7751 23.6993 51.7825 23.6972C51.7899 23.695 51.7969 23.6914 51.8029 23.6865C51.809 23.6816 51.814 23.6756 51.8176 23.6688C52.0576 23.2368 52.3424 23.0344 52.628 23.0984C52.9 23.1544 53.1176 23.4544 53.1432 23.788C53.1552 23.9632 53.1256 24.3896 52.5752 24.5968C52.5603 24.6032 52.5485 24.615 52.5421 24.6299C52.5357 24.6448 52.5352 24.6616 52.5408 24.6768C52.544 24.6851 52.549 24.6927 52.5555 24.6988C52.5621 24.7049 52.5699 24.7094 52.5784 24.712V24.712Z" fill="#CE7755"/>
<path d="M55.3723 26.6528C55.0291 28.6752 54.4035 30.2184 52.1355 30.3328C49.7715 30.4528 49.0779 28.9672 48.6099 26.9016C49.8491 27.0152 51.8755 26.3416 52.4451 26.8904C53.0131 26.32 54.1139 26.9968 55.3723 26.6528Z" fill="#F79C84"/>
<path d="M55.3723 26.6528C54.5675 28.8072 53.7059 29.336 52.0875 29.3952C50.4691 29.4544 49.6579 29.0032 48.6099 26.9016C49.3411 27.1584 50.6731 27.2968 51.9907 27.2592C53.3339 27.2208 54.6603 27.0008 55.3723 26.6528Z" fill="#4C1F1C"/>
<path d="M54.856 26.848C54.7982 26.9483 54.7274 27.0405 54.6456 27.1224C54.116 27.6096 53.7 27.8856 52.6376 27.9736C51.5928 28.0608 49.8592 27.8728 49.1768 27.1888C49.1268 27.1366 49.081 27.0804 49.04 27.0208C50.54 27.36 53.34 27.3032 54.856 26.848Z" fill="white"/>
<path d="M50.1953 28.9985C50.4785 28.5449 51.0217 28.3497 51.7273 28.5849C52.3753 28.2441 53.6833 28.4329 54.0665 28.7849C53.8098 28.9933 53.5134 29.1474 53.1953 29.2377C52.8331 29.3322 52.4615 29.3858 52.0873 29.3977C51.7153 29.4135 51.3428 29.3867 50.9769 29.3177C50.6991 29.2597 50.4343 29.1515 50.1953 28.9985V28.9985Z" fill="#ED756D"/>
<path d="M50.8471 28.7632C51.0687 28.636 51.5343 28.644 51.6239 28.7896C51.7319 28.964 51.2967 29.076 51.0399 29.04C50.7831 29.004 50.7039 28.844 50.8471 28.7632Z" fill="#F58F88"/>
<path d="M53.3103 29.5201C53.4655 29.3153 53.8959 29.1393 54.0359 29.2377C54.2031 29.3553 53.8471 29.6305 53.5983 29.6985C53.3495 29.7665 53.2119 29.6497 53.3103 29.5201Z" fill="#FCD6D1"/>
<path d="M53.053 26.8609C53.1722 26.8033 53.4098 26.8233 53.453 26.9001C53.5026 26.9929 53.2754 27.0361 53.1442 27.0097C53.013 26.9833 52.977 26.8977 53.053 26.8609Z" fill="#FCD6D1"/>
<path d="M48.253 21.5504C48.6858 22.444 48.3522 23.5 47.509 23.9088C46.6658 24.3176 45.629 23.924 45.1962 23.0288C44.7634 22.1336 45.0978 21.0784 45.941 20.6696C46.7842 20.2608 47.821 20.656 48.253 21.5504Z" fill="white"/>
<path d="M47.4103 21.6728C47.6767 22.224 47.4711 22.8728 46.9511 23.128C46.4311 23.3832 45.7919 23.1368 45.5247 22.5856C45.2575 22.0344 45.4639 21.3856 45.9839 21.1304C46.5039 20.8752 47.1431 21.12 47.4103 21.6728Z" fill="#232324"/>
<path d="M46.2793 21.844C46.2796 21.9038 46.2625 21.9624 46.2299 22.0125C46.1974 22.0627 46.1509 22.1022 46.0961 22.1263C46.0414 22.1503 45.9808 22.1578 45.9218 22.1478C45.8629 22.1379 45.8082 22.1109 45.7644 22.0702C45.7206 22.0295 45.6896 21.9769 45.6754 21.9188C45.6611 21.8608 45.6641 21.7998 45.6841 21.7434C45.704 21.6871 45.74 21.6378 45.7877 21.6017C45.8353 21.5655 45.8925 21.5441 45.9521 21.54C45.9936 21.5384 46.0349 21.545 46.0738 21.5594C46.1128 21.5739 46.1484 21.5958 46.1788 21.6241C46.2092 21.6523 46.2338 21.6863 46.251 21.724C46.2682 21.7618 46.2779 21.8026 46.2793 21.844V21.844Z" fill="white"/>
<path d="M47.2387 22.5256C47.2403 22.5504 47.237 22.5754 47.229 22.5989C47.221 22.6225 47.2084 22.6443 47.192 22.663C47.1756 22.6817 47.1557 22.697 47.1333 22.708C47.111 22.7191 47.0867 22.7256 47.0619 22.7272C47.037 22.7288 47.0121 22.7255 46.9885 22.7175C46.9649 22.7095 46.9432 22.697 46.9245 22.6805C46.9057 22.6641 46.8904 22.6442 46.8794 22.6219C46.8684 22.5995 46.8619 22.5752 46.8603 22.5504C46.8586 22.5255 46.8619 22.5006 46.8699 22.477C46.8779 22.4535 46.8905 22.4317 46.9069 22.413C46.9233 22.3943 46.9433 22.379 46.9656 22.3679C46.9879 22.3569 47.0122 22.3504 47.0371 22.3488C47.0619 22.3472 47.0868 22.3504 47.1104 22.3585C47.134 22.3665 47.1558 22.379 47.1745 22.3954C47.1932 22.4119 47.2085 22.4318 47.2195 22.4541C47.2305 22.4765 47.237 22.5008 47.2387 22.5256V22.5256Z" fill="white"/>
<path d="M44.8447 21.684C44.8447 21.684 46.0639 19.9976 48.0175 20.964C46.0303 19.144 44.8447 21.684 44.8447 21.684Z" fill="#734431"/>
<path d="M55.1098 20.9528C54.8386 21.9088 55.3498 22.8912 56.2514 23.148C57.153 23.4048 58.105 22.8384 58.377 21.8824C58.649 20.9264 58.137 19.944 57.2362 19.6872C56.3354 19.4304 55.3818 20 55.1098 20.9528Z" fill="white"/>
<path d="M55.4793 20.9705C55.3113 21.5601 55.6265 22.1657 56.1825 22.3241C56.7385 22.4825 57.3265 22.1329 57.4937 21.5441C57.6609 20.9553 57.3457 20.3481 56.7897 20.1897C56.2337 20.0313 55.6465 20.3817 55.4793 20.9705Z" fill="#232324"/>
<path d="M56.6225 20.9433C56.6324 21.0023 56.6593 21.0571 56.6999 21.101C56.7405 21.1448 56.7931 21.1759 56.8512 21.1903C56.9092 21.2046 56.9702 21.2017 57.0266 21.1818C57.083 21.1619 57.1323 21.126 57.1686 21.0784C57.2048 21.0308 57.2263 20.9737 57.2304 20.914C57.2346 20.8544 57.2212 20.7948 57.1919 20.7427C57.1626 20.6906 57.1186 20.6481 57.0655 20.6207C57.0124 20.5932 56.9524 20.5819 56.8929 20.5881C56.8518 20.5936 56.8122 20.6072 56.7764 20.628C56.7405 20.6489 56.7091 20.6766 56.684 20.7096C56.6589 20.7426 56.6405 20.7802 56.63 20.8203C56.6194 20.8604 56.6169 20.9022 56.6225 20.9433V20.9433Z" fill="white"/>
<path d="M55.7953 21.7808C55.8013 21.8176 55.8179 21.8517 55.8432 21.8791C55.8684 21.9065 55.9011 21.9259 55.9372 21.9349C55.9733 21.9438 56.0113 21.942 56.0464 21.9297C56.0815 21.9173 56.1122 21.8949 56.1348 21.8653C56.1573 21.8357 56.1706 21.8001 56.1731 21.7629C56.1757 21.7258 56.1672 21.6887 56.1489 21.6563C56.1306 21.6239 56.1031 21.5976 56.07 21.5806C56.0369 21.5637 55.9995 21.5568 55.9625 21.5608C55.937 21.5643 55.9125 21.5727 55.8904 21.5856C55.8682 21.5985 55.8488 21.6157 55.8332 21.6361C55.8177 21.6566 55.8064 21.6799 55.7999 21.7047C55.7933 21.7295 55.7918 21.7554 55.7953 21.7808V21.7808Z" fill="white"/>
<path d="M58.4903 20.496C58.4903 20.496 56.9975 19.0456 55.2407 20.332C56.8839 18.1992 58.4903 20.496 58.4903 20.496Z" fill="#734431"/>
<path d="M31.9203 54.1808C31.9203 54.1808 32.6867 54.6224 32.9603 55.1456C33.2339 55.6688 33.4187 57.2056 33.1867 57.4872C33.2211 58.0216 33.1147 58.4472 32.9371 58.4208C32.9643 58.876 32.7979 59.2712 32.4803 59.3504C32.1627 59.4296 32.1411 58.3104 32.1411 58.3104C32.1411 58.3104 31.4515 56.532 31.2771 56.5328C31.3347 57.2808 31.3811 58.0224 30.9651 58.1984C30.5491 58.3744 30.4443 57.6976 30.2731 56.9144C30.1019 56.1312 29.9971 54.5272 29.9971 54.5272L31.9203 54.1808Z" fill="#FCC7A5"/>
<path d="M32.9363 58.448C32.9243 58.448 32.9131 58.4392 32.9115 58.4248C32.8253 57.6824 32.5646 56.971 32.1507 56.3488C32.1464 56.3433 32.144 56.3365 32.144 56.3296C32.144 56.3226 32.1464 56.3159 32.1507 56.3104C32.1524 56.3079 32.1548 56.3059 32.1575 56.3045C32.1602 56.3031 32.1632 56.3024 32.1663 56.3024C32.1693 56.3024 32.1723 56.3031 32.175 56.3045C32.1777 56.3059 32.1801 56.3079 32.1819 56.3104C32.6029 56.9409 32.8678 57.6627 32.9547 58.416C32.9556 58.4193 32.9559 58.4228 32.9555 58.4262C32.9551 58.4296 32.954 58.4329 32.9523 58.4359C32.9505 58.4389 32.9482 58.4415 32.9455 58.4436C32.9427 58.4456 32.9396 58.4471 32.9363 58.448Z" fill="#DE9173"/>
<path d="M33.1856 57.5145C33.1736 57.5145 33.1624 57.5065 33.16 57.4913C32.96 56.0137 32.4712 55.6001 32.4672 55.6001C32.4617 55.5953 32.4581 55.5888 32.457 55.5816C32.4558 55.5745 32.4571 55.5671 32.4608 55.5609C32.462 55.5582 32.4638 55.5558 32.466 55.5539C32.4683 55.552 32.471 55.5507 32.4738 55.55C32.4767 55.5493 32.4797 55.5493 32.4825 55.5499C32.4854 55.5505 32.4881 55.5518 32.4904 55.5537C32.512 55.5697 33.0024 55.9817 33.2048 57.4825C33.2061 57.4891 33.205 57.4961 33.2016 57.5019C33.1982 57.5078 33.1928 57.5123 33.1864 57.5145H33.1856Z" fill="#DE9173"/>
<path d="M23.1042 32.1465C25.2194 34.7065 27.5354 46.0665 32.313 54.3633C31.433 55.0513 30.8082 55.6217 29.5706 55.5633C22.185 45.0913 19.417 35.2929 19.417 35.2929L23.1042 32.1465Z" fill="#0E0D0D"/>
<path d="M16.9593 94.7929L16.8921 97.4745L18.2601 97.476L18.2905 94.696L16.9593 94.7929Z" fill="#FCC7A5"/>
<path d="M16.5602 98.8896C16.3514 99.0104 16.3202 99.7008 16.597 99.9368C16.9786 100.257 19.9074 101.95 22.305 102.139C24.529 102.314 25.0138 101.478 25.0818 101.07C25.177 100.496 24.7138 99.9841 24.7138 99.9841L16.5602 98.8896Z" fill="#D0D1D2"/>
<path d="M16.9089 96.9177C16.6345 96.9673 16.2345 97.9033 16.4777 98.9273C17.7513 100.118 20.9665 101.054 22.4641 101.275C23.9617 101.496 25.0937 100.875 24.8297 99.9153C24.6225 99.1665 21.9009 98.5553 20.9441 97.8649C19.9873 97.1745 19.6729 96.6153 19.1841 96.5225C18.6953 96.4297 17.7361 96.5961 17.8913 97.2849C17.5528 97.1942 17.2238 97.0713 16.9089 96.9177V96.9177Z" fill="#353535"/>
<path d="M18.5495 97.4352C18.9703 97.0816 19.5159 96.9664 20.0415 97.0256C20.5671 97.0848 20.7991 97.552 20.5367 97.612C20.1975 97.692 19.9215 97.608 19.0559 98.1392C18.5935 98.4224 18.0983 97.8152 18.5495 97.4352Z" fill="#FFCF01"/>
<path d="M19.5863 98.2968C19.9863 97.92 20.5255 97.7744 21.0535 97.8048C21.5815 97.8352 21.8391 98.2848 21.5807 98.3648C21.2463 98.4608 20.9655 98.3952 20.1311 98.9728C19.6855 99.28 19.1567 98.7 19.5863 98.2968Z" fill="#FFCF01"/>
<path d="M9.39844 96.2233L9.36084 98.4496L10.6824 98.3433L10.8664 96.1208L9.39844 96.2233Z" fill="#FCC7A5"/>
<path d="M7.8737 101.13C7.7513 101.303 7.5409 101.956 7.8633 102.464C8.1857 102.972 9.1121 103.278 9.8753 103.286C10.5953 103.293 11.4521 102.996 11.7449 102.521C12.0377 102.046 11.6689 101.127 11.6689 101.127L7.8737 101.13Z" fill="#D0D1D2"/>
<path d="M8.52229 98.0729C8.82069 97.3929 10.6823 97.2729 11.5111 98.0729C11.7311 98.5481 12.1215 101.175 11.5111 101.883C10.8711 102.626 8.43909 102.699 7.92389 101.306C7.56789 100.337 8.19109 98.8265 8.52229 98.0729Z" fill="#353535"/>
<path d="M8.96023 98.1152C8.68743 98.2448 8.44023 98.8353 8.94103 98.7449C9.40263 98.6649 10.2682 98.4624 10.905 98.716C11.5418 98.9696 11.357 98.316 11.0114 98.1184C10.5794 97.8704 9.65943 97.7848 8.96023 98.1152Z" fill="#FFCF01"/>
<path d="M8.94412 99.1552C8.67132 99.2848 8.42412 99.8752 8.92492 99.7848C9.38732 99.7048 10.2529 99.5024 10.8897 99.756C11.5265 100.01 11.3409 99.356 10.9953 99.1576C10.5601 98.9104 9.64252 98.824 8.94412 99.1552Z" fill="#FFCF01"/>
<path d="M6.1416 58.0905C6.1416 58.0905 7.6096 91.6017 8.0696 95.8353C8.9744 96.9177 11.7664 96.4633 12.0752 95.9449C13.4264 78.2249 14.6352 65.5617 14.764 65.2137C14.8928 64.8657 15.844 93.1657 16.1912 95.2865C17.1696 95.9017 20.148 95.9265 20.5808 95.1769C22.0672 72.9481 23.0056 60.6697 23.1464 57.9193C19.7248 56.7033 6.1416 58.0905 6.1416 58.0905Z" fill="#AAACAE"/>
<path d="M21.0787 59.4576C21.0787 59.4576 20.8027 60.8568 21.8939 61.5928C21.8501 61.9663 21.7803 62.3363 21.6851 62.7C21.6851 62.7 19.6691 61.5256 19.9003 59.66C20.28 59.5311 20.6777 59.4628 21.0787 59.4576V59.4576Z" fill="#68696C"/>
<path d="M8.88008 59.8744C8.88008 59.8744 9.07208 61.2872 7.93848 61.9544C7.96028 62.3305 8.00786 62.7048 8.08088 63.0744C8.08088 63.0744 10.1609 62.0232 10.0441 60.144C9.67273 59.9933 9.27987 59.9023 8.88008 59.8744Z" fill="#68696C"/>
<path d="M13.4928 26.3488C13.4928 26.3488 13.2832 28.1208 13.2624 28.8232C11.5448 28.772 9.98242 29.3696 9.98242 29.3696C9.98242 29.3696 12.0816 31.6992 15.3768 31.2504C18.672 30.8016 18.7792 29.8672 18.7792 29.8672C18.7792 29.8672 16.7528 29.0256 15.216 28.784C15.2704 26.988 15.408 26.3088 15.408 26.3088L13.4928 26.3488Z" fill="#FCC7A5"/>
<path d="M15.06 28.8049C15.1136 27.3777 15.22 26.8289 15.22 26.8289L13.5808 26.8697C13.5808 26.8697 13.4496 28.0401 13.3984 28.7897C13.6232 28.5385 14.72 28.3289 15.06 28.8049Z" fill="#EBAD86"/>
<path d="M11.736 28.9144C12.216 29.9056 16.568 30.6608 16.8096 29.1048C18.052 29.3768 22.7616 31.3152 23.496 32.8648C24.2304 34.4144 22.7336 40.116 22.696 45.2344C22.6584 50.3528 23.5688 57.7576 23.2408 58.2952C22.9128 58.8328 9.10801 59.7112 5.82161 58.56C5.08081 58.4984 4.48401 38.132 4.68561 32.0664C4.63041 31.3192 9.07521 29.0304 11.736 28.9144Z" fill="#4C4C4D"/>
<path d="M23.3059 57.108C23.3267 57.7536 23.3131 58.1776 23.2435 58.292C22.9147 58.8296 9.10828 59.7112 5.82188 58.5576C5.70588 58.548 5.59388 58.044 5.48828 57.1768C10.1475 57.7984 20.7955 57.5128 23.3059 57.108Z" fill="#0E0D0D"/>
<path d="M10.8145 29.004C11.0545 28.8744 11.6049 28.7152 12.0281 28.924C12.6553 29.5096 15.7353 30.4024 16.6753 29.0432C17.0865 29.0168 17.6849 29.2496 17.8545 29.4496C17.3849 30.1392 16.4905 30.5432 14.8497 30.6104C12.6401 30.7 11.1497 29.5608 10.8145 29.004Z" fill="white"/>
<path d="M1.3602 54.6168C1.3602 54.6168 0.977802 55.4168 1.0482 56C1.1186 56.5832 1.8338 57.9584 2.1842 58.0592C2.4578 58.5208 2.7858 58.8096 2.9178 58.6888C3.153 59.0792 3.513 59.312 3.8194 59.1976C4.1258 59.0832 3.5114 58.1464 3.5114 58.1464C3.5114 58.1464 3.0746 56.2888 3.2194 56.1912C3.5946 56.8408 3.9746 57.4784 4.4194 57.3912C4.8642 57.304 4.5666 56.6832 4.265 55.9408C3.9634 55.1984 3.145 53.8152 3.145 53.8152L1.3602 54.6168Z" fill="#FCC7A5"/>
<path d="M2.93034 58.7128C2.93311 58.7112 2.93553 58.7091 2.93742 58.7066C2.93932 58.704 2.94065 58.7011 2.94133 58.698C2.94201 58.6949 2.94203 58.6917 2.94137 58.6886C2.94072 58.6855 2.93941 58.6826 2.93754 58.68C2.58847 58.0189 2.40173 57.2843 2.39274 56.5368C2.39283 56.5298 2.39061 56.5229 2.38642 56.5173C2.38222 56.5116 2.37629 56.5075 2.36953 56.5056C2.36654 56.5048 2.36342 56.5048 2.3604 56.5055C2.35739 56.5061 2.35457 56.5075 2.35217 56.5094C2.34977 56.5114 2.34785 56.5138 2.34656 56.5166C2.34527 56.5194 2.34464 56.5225 2.34474 56.5256C2.35376 57.2836 2.54297 58.0287 2.89674 58.6992C2.89954 58.7053 2.90459 58.7101 2.91083 58.7127C2.91708 58.7152 2.92406 58.7152 2.93034 58.7128V58.7128Z" fill="#DE9173"/>
<path d="M2.19697 58.084C2.19972 58.0824 2.20212 58.0803 2.20403 58.0778C2.20593 58.0753 2.2073 58.0724 2.20805 58.0693C2.2088 58.0662 2.20891 58.0631 2.20838 58.0599C2.20785 58.0568 2.20669 58.0538 2.20497 58.0512C1.53377 56.7192 1.70657 56.1032 1.70817 56.0984C1.70984 56.0914 1.70909 56.084 1.70604 56.0775C1.70299 56.0709 1.69782 56.0656 1.69137 56.0624C1.68874 56.0609 1.68582 56.0601 1.68282 56.0599C1.67981 56.0597 1.6768 56.0601 1.67399 56.0612C1.67118 56.0622 1.66863 56.0639 1.66652 56.066C1.66441 56.0682 1.66279 56.0708 1.66177 56.0736C1.65377 56.0992 1.48177 56.7136 2.16337 58.068C2.16588 58.0742 2.17063 58.0794 2.17669 58.0823C2.18275 58.0853 2.18969 58.0859 2.19617 58.084H2.19697Z" fill="#DE9173"/>
<path d="M5.18488 38.5416C4.73848 44.7952 3.72728 45.3664 3.98488 54.9368C2.88568 55.124 1.97928 55.316 0.916875 54.6784C-1.67752 39.9584 4.78727 31.7184 4.78727 31.7184C4.78727 31.7184 5.39448 35.6072 5.18488 38.5416Z" fill="#0E0D0D"/>
<path d="M3.39065 6.86403C7.09945 1.21683 15.7811 -1.39597 21.1755 2.73363C25.1203 5.75203 22.6083 9.14003 22.6083 9.14003C22.6083 9.14003 26.4851 7.20083 27.3283 12.0896C27.5595 13.432 26.5115 18.3384 23.9267 18.3008C23.9267 18.3008 17.8379 18.052 14.3819 17.7784C10.9267 18.052 4.14905 18.3008 4.14905 18.3008C-0.0653457 12.2584 2.08025 8.85683 3.39065 6.86403Z" fill="#704D3E"/>
<path d="M23.8714 17.9657C23.8714 23.3521 19.6666 28.1905 14.4786 28.1889C9.29065 28.1873 5.08904 23.3489 5.08984 17.9617C5.09064 12.5745 9.29544 8.40006 14.4802 8.40406C19.665 8.40806 23.8722 12.5793 23.8714 17.9657Z" fill="#FCC7A5"/>
<path d="M23.4971 18.0056C23.4971 18.0056 23.6235 16.912 24.9435 16.7216C26.3363 16.5216 26.9435 18.34 26.2235 19.4536C25.5035 20.5672 23.9483 20.6256 23.4419 19.7824L23.4971 18.0056Z" fill="#FCC7A5"/>
<path d="M25.229 17.1913C24.3154 17.0641 23.6402 18.6881 24.901 19.4737C24.341 18.3641 24.801 17.9593 25.4722 18.4745C25.4514 18.1065 25.217 17.8825 24.6722 17.9425C24.6954 17.4545 25.229 17.1913 25.229 17.1913Z" fill="#D48566"/>
<path d="M5.40586 18.0065C5.40586 18.0065 5.28026 16.9121 3.96026 16.7201C2.56746 16.5201 1.96026 18.3377 2.68026 19.4513C3.40026 20.5649 4.95466 20.6241 5.46106 19.7817L5.40586 18.0065Z" fill="#FCC7A5"/>
<path d="M3.67386 17.1913C4.58826 17.0641 5.26346 18.6889 4.00186 19.4737C4.56186 18.3641 4.10186 17.9593 3.43066 18.4745C3.45146 18.1065 3.68666 17.8825 4.23066 17.9425C4.20746 17.4545 3.67386 17.1913 3.67386 17.1913Z" fill="#D48566"/>
<path d="M10.1987 14.0624C9.92509 13.1352 8.18669 13.2384 7.62109 14.8304C8.39229 13.9904 10.1987 14.0624 10.1987 14.0624Z" fill="#704D3E"/>
<path d="M18.7627 14.0624C19.0363 13.1352 20.7755 13.2384 21.3403 14.8304C20.5691 13.9904 18.7627 14.0624 18.7627 14.0624Z" fill="#704D3E"/>
<path d="M17.7347 16.7904C17.3891 17.6968 17.8035 18.6968 18.6595 19.0232C19.5155 19.3496 20.4907 18.8792 20.8355 17.972C21.1803 17.0648 20.7667 16.0648 19.9115 15.7376C19.0563 15.4104 18.0803 15.8832 17.7347 16.7904Z" fill="white"/>
<path d="M18.329 17.0169C18.1162 17.5769 18.3714 18.1929 18.8994 18.3937C19.4274 18.5945 20.0282 18.3049 20.241 17.7449C20.4538 17.1849 20.1986 16.5689 19.6706 16.3681C19.1426 16.1673 18.5418 16.4577 18.329 17.0169Z" fill="#232324"/>
<path d="M19.4441 17.0873C19.4481 17.1456 19.4692 17.2015 19.5047 17.248C19.5402 17.2945 19.5886 17.3295 19.6438 17.3488C19.699 17.3682 19.7587 17.3708 19.8154 17.3566C19.8721 17.3424 19.9235 17.3118 19.963 17.2687C20.0026 17.2256 20.0286 17.1718 20.0379 17.1141C20.0472 17.0563 20.0394 16.9971 20.0154 16.9438C19.9915 16.8904 19.9524 16.8453 19.903 16.8139C19.8536 16.7825 19.7962 16.7663 19.7377 16.7673C19.6565 16.7712 19.5801 16.807 19.5251 16.8669C19.4701 16.9268 19.441 17.006 19.4441 17.0873V17.0873Z" fill="white"/>
<path d="M18.5681 17.832C18.5709 17.8681 18.5843 17.9026 18.6065 17.9313C18.6287 17.9599 18.6588 17.9814 18.6931 17.9932C18.7274 18.0049 18.7643 18.0063 18.7994 17.9973C18.8345 17.9883 18.8662 17.9692 18.8906 17.9423C18.9149 17.9155 18.9309 17.8821 18.9365 17.8463C18.9421 17.8105 18.9371 17.7739 18.9222 17.7409C18.9072 17.7079 18.8829 17.68 18.8522 17.6606C18.8216 17.6413 18.786 17.6313 18.7497 17.632C18.7246 17.6331 18.7 17.6392 18.6773 17.6499C18.6546 17.6606 18.6342 17.6756 18.6173 17.6942C18.6004 17.7128 18.5874 17.7345 18.579 17.7582C18.5705 17.7818 18.5668 17.8069 18.5681 17.832V17.832Z" fill="white"/>
<path d="M21.064 16.6321C21.064 16.6321 19.7336 15.0937 17.9136 16.1969C19.6944 14.2593 21.064 16.6321 21.064 16.6321Z" fill="#734431"/>
<path d="M11.0088 16.7904C11.3544 17.6968 10.94 18.6968 10.084 19.0232C9.22804 19.3496 8.25364 18.8792 7.90804 17.972C7.56244 17.0648 7.97684 16.0648 8.83284 15.7376C9.68884 15.4104 10.6632 15.8832 11.0088 16.7904Z" fill="white"/>
<path d="M10.4143 17.0169C10.6271 17.5769 10.3719 18.1929 9.84469 18.3937C9.31749 18.5945 8.71509 18.3049 8.50229 17.7449C8.28949 17.1849 8.54469 16.5689 9.07269 16.3681C9.60069 16.1673 10.2015 16.4577 10.4143 17.0169Z" fill="#232324"/>
<path d="M9.29933 17.0873C9.29526 17.1456 9.27417 17.2015 9.23867 17.248C9.20317 17.2945 9.15483 17.3295 9.09961 17.3488C9.04439 17.3682 8.98472 17.3708 8.92799 17.3566C8.87126 17.3424 8.81994 17.3118 8.7804 17.2687C8.74085 17.2256 8.7148 17.1718 8.70548 17.1141C8.69616 17.0563 8.70397 16.9971 8.72795 16.9438C8.75193 16.8904 8.79102 16.8453 8.84039 16.8139C8.88976 16.7825 8.94725 16.7663 9.00573 16.7673C9.08702 16.771 9.16352 16.8067 9.21853 16.8667C9.27354 16.9267 9.30259 17.0059 9.29933 17.0873V17.0873Z" fill="white"/>
<path d="M10.1753 17.832C10.1725 17.8682 10.1591 17.9027 10.1369 17.9314C10.1147 17.96 10.0845 17.9815 10.0502 17.9932C10.0158 18.0049 9.97883 18.0063 9.94372 17.9972C9.90861 17.9881 9.87693 17.9689 9.85261 17.942C9.82828 17.9151 9.81237 17.8817 9.80685 17.8458C9.80133 17.81 9.80643 17.7733 9.82153 17.7403C9.83663 17.7073 9.86106 17.6795 9.8918 17.6602C9.92255 17.641 9.95826 17.6312 9.99452 17.632C10.0195 17.6332 10.0441 17.6394 10.0667 17.6501C10.0893 17.6608 10.1096 17.6759 10.1264 17.6945C10.1432 17.7131 10.1562 17.7348 10.1646 17.7584C10.173 17.782 10.1766 17.807 10.1753 17.832Z" fill="white"/>
<path d="M7.68018 16.6321C7.68018 16.6321 9.01058 15.0937 10.8298 16.1969C9.04898 14.2593 7.68018 16.6321 7.68018 16.6321Z" fill="#734431"/>
<path d="M11.2547 21.452C12.1019 20.8848 12.4219 21.7768 14.3195 21.772C16.2579 21.7656 16.5275 20.8336 17.4603 21.5552C18.2219 22.1448 17.5715 25.4888 14.3963 25.4584C11.2003 25.4248 10.4483 21.9912 11.2547 21.452Z" fill="#542425"/>
<path d="M16.5827 24.7552C16.0555 25.1792 15.3371 25.4656 14.3963 25.4568C13.5163 25.448 12.8195 25.1808 12.2915 24.7872C12.8291 24.6048 13.5515 24.4792 14.4843 24.4768C15.3739 24.4744 16.0651 24.5864 16.5827 24.7552Z" fill="#ED756D"/>
<path d="M11.564 21.3C12.212 21.1032 12.6696 21.776 14.3192 21.7704C15.9904 21.7648 16.4208 21.072 17.1056 21.3432C17.0944 22.2504 15.6872 22.9192 14.3448 22.9064C13.0024 22.8936 11.5528 22.1984 11.564 21.3Z" fill="white"/>
<path d="M13.3602 19.2112C13.3453 19.2114 13.3306 19.2084 13.317 19.2024C13.3037 19.1968 13.2917 19.1885 13.2817 19.1782C13.2716 19.1679 13.2637 19.1557 13.2583 19.1424C13.253 19.129 13.2503 19.1147 13.2505 19.1003C13.2507 19.0859 13.2537 19.0717 13.2594 19.0584C13.4906 18.5232 13.9338 18.1904 14.4162 18.1904C14.8986 18.1904 15.3426 18.5224 15.5738 19.0568C15.5795 19.0701 15.5826 19.0843 15.5828 19.0987C15.583 19.1131 15.5804 19.1275 15.5751 19.1409C15.5698 19.1543 15.5619 19.1665 15.5518 19.1769C15.5418 19.1872 15.5298 19.1955 15.5166 19.2012C15.5033 19.207 15.4891 19.21 15.4747 19.2102C15.4603 19.2105 15.4459 19.2078 15.4325 19.2025C15.4191 19.1972 15.4069 19.1893 15.3965 19.1793C15.3862 19.1692 15.3779 19.1573 15.3722 19.144C15.1762 18.6912 14.8122 18.4096 14.4162 18.4096C14.0202 18.4096 13.657 18.692 13.461 19.1456C13.4525 19.1653 13.4384 19.182 13.4205 19.1936C13.4025 19.2053 13.3816 19.2114 13.3602 19.2112V19.2112Z" fill="#D78B6B"/>
<path d="M23.8872 17.12C23.8872 17.12 20.3568 14.48 20.8968 11.2C19.656 12.4192 17.1296 14.4176 14.2192 13.3264C13.156 12.9264 12.824 11.7648 13.2592 10.6688C10.8 12.532 7.37676 13.44 7.43996 11.8008C6.32876 12.8008 5.75196 13.8808 4.98076 17.1496C2.68876 9.40882 15.9872 3.84962 23.32 10.3392C25.2608 12.3624 23.8872 17.12 23.8872 17.12Z" fill="#704D3E"/>
<path d="M15.8121 17.7673C15.4291 16.8663 15.1907 15.9106 15.1057 14.9353C15.1027 14.8888 15.1093 14.8422 15.1251 14.7984C15.1408 14.7546 15.1654 14.7145 15.1972 14.6805C15.2291 14.6465 15.2676 14.6195 15.3103 14.601C15.353 14.5825 15.3991 14.5729 15.4457 14.5729H23.3201C23.4089 14.5726 23.4942 14.6072 23.5579 14.669C23.6216 14.7309 23.6586 14.8153 23.6609 14.9041C23.6698 15.8112 23.5593 16.7155 23.3321 17.5937C22.8273 19.4625 21.8001 20.5241 20.3625 20.6641C20.1905 20.6809 20.0201 20.6889 19.8553 20.6889C18.0457 20.6889 16.6481 19.6801 15.8121 17.7673ZM15.8265 15.2553C15.9303 16.031 16.138 16.7893 16.4441 17.5097C17.2441 19.3209 18.5393 20.1553 20.2961 19.9849C22.6473 19.7561 22.9417 16.3441 22.9761 15.2553H15.8265Z" fill="#303133"/>
<path d="M8.5936 20.6641C7.1536 20.5241 6.1288 19.4641 5.624 17.5937C5.39669 16.7155 5.28588 15.8112 5.2944 14.9041C5.2971 14.8154 5.33417 14.7313 5.39777 14.6695C5.46137 14.6077 5.54652 14.573 5.6352 14.5729H13.5096C13.5565 14.5726 13.6029 14.5819 13.646 14.6004C13.6891 14.6188 13.7279 14.646 13.76 14.6801C13.7918 14.7142 13.8163 14.7544 13.8322 14.7983C13.848 14.8421 13.8547 14.8887 13.852 14.9353C13.766 15.9105 13.5274 16.8661 13.1448 17.7673C12.3096 19.6785 10.9112 20.6889 9.1016 20.6889C8.9352 20.6889 8.7648 20.6809 8.5936 20.6641ZM5.9792 15.2553C6.0128 16.3441 6.304 19.7561 8.6592 19.9849C8.8088 19.9993 8.9568 20.0065 9.0992 20.0065C10.6336 20.0065 11.7808 19.1665 12.5104 17.5089C12.8165 16.7888 13.0242 16.0308 13.128 15.2553H5.9792Z" fill="#303133"/>
<path d="M13.3353 15.2552H15.4457C15.4919 15.2574 15.5381 15.2503 15.5814 15.2341C15.6248 15.218 15.6644 15.1932 15.6979 15.1613C15.7314 15.1294 15.758 15.091 15.7762 15.0485C15.7945 15.006 15.8039 14.9602 15.8039 14.914C15.8039 14.8677 15.7945 14.822 15.7762 14.7795C15.758 14.7369 15.7314 14.6986 15.6979 14.6667C15.6644 14.6348 15.6248 14.61 15.5814 14.5939C15.5381 14.5777 15.4919 14.5706 15.4457 14.5728H13.3353C13.2477 14.577 13.1651 14.6148 13.1045 14.6784C13.044 14.7419 13.0103 14.8262 13.0103 14.914C13.0103 15.0017 13.044 15.0861 13.1045 15.1496C13.1651 15.2131 13.2477 15.2509 13.3353 15.2552V15.2552Z" fill="#303133"/>
</svg>
