<svg width="81" height="51" viewBox="0 0 81 51" fill="none" xmlns="http://www.w3.org/2000/svg">
<path d="M75.9113 29.2095L42.631 23.4121L13.4063 32.5835C13.0433 32.6248 12.7105 32.8147 12.6458 33.1957C12.6241 33.398 12.6779 33.6012 12.796 33.7637C12.9142 33.9261 13.0878 34.0354 13.2812 34.0692L13.3224 34.0763C13.3224 34.0763 34.7758 38.465 34.7758 42.2115C34.7758 47.2967 13.515 42.2615 13.4847 42.26C13.3029 42.2516 13.1249 42.3151 12.9865 42.4378C12.8481 42.5604 12.7598 42.733 12.7394 42.9206C12.7189 43.1082 12.7679 43.2969 12.8764 43.4485C12.9849 43.6001 13.1448 43.7033 13.3238 43.7372L49.4727 50.5993C50.5254 50.7997 51.6103 50.7102 52.6192 50.3395L76.9289 41.408C78.1163 40.9716 79.1443 40.1641 79.8713 39.0965C80.5983 38.0289 80.9886 36.7537 80.9886 35.4465C80.9889 33.9518 80.4792 32.5054 79.5497 31.3637C78.6203 30.2219 77.3313 29.4588 75.9113 29.2095Z" fill="#1A75BB"/>
<path d="M49.548 39.2472C54.1096 41.4965 53.2996 50.1369 47.14 50.1369C47.0905 50.1369 47.0451 50.1369 47.0024 50.1369L49.4847 50.6079C50.5374 50.8083 51.6223 50.7188 52.6312 50.3481L76.9409 41.4166C78.0694 41.0023 79.0553 40.2521 79.7753 39.2597C80.4952 38.2672 80.9174 37.0766 80.989 35.8365C81.0606 34.5965 80.7785 33.362 80.1779 32.2874C79.5772 31.2128 78.6848 30.3458 77.612 29.7947L49.548 39.2472Z" fill="#FF5121"/>
<path d="M47.1401 50.1398C47.2776 50.1398 47.4014 50.1398 47.532 50.127C47.4927 50.1568 47.4519 50.1845 47.4096 50.2097L46.9971 50.1312C47.0438 50.1312 47.0906 50.1398 47.1401 50.1398Z" fill="#FF5121"/>
<g style="mix-blend-mode:screen">
<g style="mix-blend-mode:screen">
<path d="M80.9949 35.4495C80.9942 36.7569 80.6032 38.0321 79.8757 39.0996C79.1483 40.1671 78.1201 40.9746 76.9325 41.411L74.354 42.3601C76.7689 41.4495 78.3573 39.0047 78.3573 36.3372C78.3577 35.1599 78.0407 34.0059 77.4422 33.0059C76.8436 32.0058 75.9873 31.1995 74.9701 30.6783L77.6078 29.7905C78.6244 30.3125 79.4803 31.1189 80.0788 32.1188C80.6773 33.1187 80.9946 34.2723 80.9949 35.4495Z" fill="#FF5121"/>
</g>
</g>
<g style="mix-blend-mode:screen">
<g style="mix-blend-mode:screen">
<path d="M76.7718 36.9579C76.7731 38.2699 76.3835 39.5502 75.6562 40.6234C74.9289 41.6965 73.8996 42.51 72.7094 42.9522L70.1309 43.9099C72.5457 42.995 74.1341 40.5359 74.1341 37.8528C74.1359 36.6707 73.8196 35.5116 73.221 34.506C72.6223 33.5004 71.765 32.6882 70.7456 32.161L73.3791 31.2661C74.3987 31.7936 75.2563 32.6056 75.8557 33.6111C76.455 34.6166 76.7722 35.7756 76.7718 36.9579Z" fill="#FF5121"/>
</g>
</g>
<g style="mix-blend-mode:screen">
<g style="mix-blend-mode:screen">
<path d="M72.554 38.3867C72.5597 39.7128 72.1725 41.0086 71.4449 42.0987C70.7173 43.1888 69.6844 44.0204 68.4862 44.481L65.9062 45.4515C68.3211 44.5209 69.9095 42.0262 69.9095 39.2902C69.9158 38.0942 69.6025 36.9199 69.0046 35.8975C68.4067 34.8752 67.5475 34.0448 66.5224 33.4985L69.16 32.5894C70.1865 33.1361 71.047 33.9672 71.646 34.9905C72.2451 36.0138 72.5594 37.1894 72.554 38.3867Z" fill="#FF5121"/>
</g>
</g>
<g style="mix-blend-mode:screen">
<g style="mix-blend-mode:screen">
<path d="M68.324 39.8939C68.324 42.6527 66.6971 45.1132 64.2616 46.031L61.6899 47.0157C64.1048 46.0781 65.6932 43.559 65.6932 40.8087C65.7008 39.6069 65.3884 38.4262 64.7904 37.397C64.1925 36.3677 63.3323 35.5298 62.3047 34.9757L64.9368 34.0623C65.9634 34.6172 66.8227 35.4551 67.4202 36.484C68.0178 37.5128 68.3305 38.6926 68.324 39.8939Z" fill="#FF5121"/>
</g>
</g>
<g style="mix-blend-mode:screen">
<g style="mix-blend-mode:screen">
<path d="M64.1003 41.3581C64.1003 44.1483 62.4734 46.6388 60.0379 47.5708L57.458 48.5599C59.8729 47.6122 61.4613 45.0646 61.4613 42.2801C61.4613 39.7225 60.1053 37.4675 58.0741 36.3814L60.7118 35.4565C62.7388 36.5455 64.1003 38.802 64.1003 41.3581Z" fill="#FF5121"/>
</g>
</g>
<g style="mix-blend-mode:screen">
<g style="mix-blend-mode:screen">
<path d="M59.8758 42.8621C59.8758 45.688 58.2503 48.21 55.8134 49.1562L53.2349 50.1553C55.6497 49.1947 57.2381 46.6143 57.2381 43.7956C57.2381 41.2051 55.8808 38.9187 53.851 37.8198L56.4886 36.8821C58.5157 37.9839 59.8758 40.2703 59.8758 42.8621Z" fill="#FF5121"/>
</g>
</g>
<g style="mix-blend-mode:screen">
<g style="mix-blend-mode:screen">
<path d="M55.6527 44.2882C55.6527 47.1084 54.0258 49.6232 51.5903 50.568L51.3675 50.6551H51.3592C51.0709 50.6912 50.7805 50.7075 50.4901 50.7036C52.0537 49.4519 53.015 47.4067 53.015 45.223C53.015 42.6383 51.6577 40.3562 49.6265 39.2587L51.8598 38.4708L52.2641 38.3281C52.2641 38.3281 52.2641 38.3281 52.2738 38.3281C54.2953 39.4242 55.6527 41.7078 55.6527 44.2882Z" fill="#FF5121"/>
</g>
</g>
<path d="M47.1569 38.7176C46.8818 38.7176 13.4063 32.5806 13.4063 32.5806C13.0433 32.622 12.7105 32.8118 12.6458 33.1928C12.6241 33.3951 12.6779 33.5983 12.796 33.7608C12.9142 33.9232 13.0878 34.0325 13.2812 34.0663L13.3224 34.0734C13.3224 34.0734 35.0701 40.0849 35.0701 42.0059C35.0701 44.6135 13.5218 42.26 13.4916 42.2586C13.3098 42.2501 13.1317 42.3137 12.9934 42.4363C12.855 42.5589 12.7667 42.7315 12.7462 42.9192C12.7258 43.1068 12.7748 43.2955 12.8833 43.4471C12.9918 43.5987 13.1517 43.7019 13.3307 43.7358L47.1376 50.1583C52.8792 51.8167 56.1164 38.8532 47.1569 38.7176Z" fill="#14588C"/>
<path d="M47.8707 40.352L14.1655 34.3291V42.4828L46.457 48.6199C47.0406 48.7305 47.6406 48.7064 48.2142 48.5493C48.7879 48.3923 49.3212 48.106 49.7763 47.711C50.2314 47.3159 50.5971 46.8217 50.8474 46.2635C51.0978 45.7053 51.2266 45.0967 51.2249 44.4809C51.2241 43.4929 50.8872 42.5369 50.2735 41.7815C49.6599 41.0261 48.8089 40.5198 47.8707 40.352Z" fill="white"/>
<g style="mix-blend-mode:multiply">
<g style="mix-blend-mode:multiply">
<path d="M49.8479 20.7546L13.4047 32.5835C13.0416 32.6249 12.7088 32.8147 12.6442 33.1957C12.6203 33.3447 12.6445 33.4977 12.713 33.631C12.8034 33.8125 12.9545 33.9535 13.1379 34.0278C13.1823 34.0463 13.2284 34.0602 13.2754 34.0692L14.1597 34.329V37.2419C14.1597 37.2419 40.5542 42.34 40.6491 42.3699L44.2714 38.4865L49.8479 20.7546Z" fill="#DEDEDE"/>
</g>
</g>
<path d="M67.7408 16.403L32.1089 10.196L0.825502 20.0125C0.434941 20.0567 0.0801359 20.258 0.00999986 20.6676C-0.0628866 21.0958 0.272666 21.5239 0.690731 21.6024L0.734737 21.611C0.734737 21.611 24.0171 28.0449 24.0171 30.1044C24.0171 32.8932 0.947896 30.3741 0.913516 30.3727C0.71801 30.3625 0.526121 30.4301 0.376985 30.5617C0.22785 30.6933 0.132702 30.879 0.11095 31.0809C0.0891983 31.2828 0.14248 31.4857 0.259927 31.6482C0.377375 31.8107 0.550143 31.9206 0.74299 31.9555L39.4429 39.3014C40.5708 39.5141 41.7326 39.4156 42.8122 39.016L68.8368 29.4536C70.108 28.9866 71.2085 28.1223 71.987 26.9796C72.7654 25.8369 73.1836 24.4719 73.1839 23.0725C73.1821 21.4726 72.6345 19.925 71.6381 18.7042C70.6418 17.4833 69.2611 16.6681 67.7408 16.403Z" fill="#361F4D"/>
<path d="M36.9579 26.5791C36.6636 26.5791 0.825502 20.0139 0.825502 20.0139C0.434941 20.0582 0.0801359 20.2594 0.00999986 20.669C-0.0628866 21.0972 0.272666 21.5253 0.690731 21.6038L0.734737 21.6124C0.734737 21.6124 24.0171 28.0463 24.0171 30.1058C24.0171 32.8946 0.947896 30.3756 0.913516 30.3741C0.71801 30.3639 0.526121 30.4315 0.376985 30.5631C0.22785 30.6947 0.132702 30.8804 0.11095 31.0823C0.0891983 31.2842 0.14248 31.4871 0.259927 31.6496C0.377375 31.8121 0.550143 31.9221 0.74299 31.9569L39.4429 39.3028C40.5708 39.5155 41.7326 39.417 42.8122 39.0174C42.8122 39.0174 45.7373 26.6405 36.9579 26.5791Z" fill="#241533"/>
<path d="M39.517 27.1471C44.4004 29.5534 43.5368 38.8047 36.9358 38.8047C36.8835 38.8047 36.834 38.8047 36.7817 38.7961L39.44 39.3014C40.5678 39.514 41.7297 39.4156 42.8093 39.0159L68.8339 29.4535C70.0425 29.0105 71.0984 28.2075 71.8696 27.145C72.6407 26.0825 73.093 24.8076 73.1697 23.4798C73.2465 22.152 72.9444 20.8301 72.3011 19.6796C71.6578 18.529 70.702 17.6008 69.5531 17.011L39.517 27.1471Z" fill="#36A39D"/>
<path d="M37.721 28.329L1.63672 21.8794V30.6026L36.2083 37.1678C36.8318 37.2862 37.4727 37.2609 38.0857 37.0938C38.6987 36.9266 39.2689 36.6217 39.7557 36.2005C40.2426 35.7794 40.6344 35.2523 40.9033 34.6566C41.1721 34.0609 41.3116 33.4112 41.3117 32.7534C41.3119 31.6949 40.9517 30.6704 40.2947 29.8609C39.6377 29.0513 38.7261 28.5087 37.721 28.329Z" fill="white"/>
<path d="M62.2142 27.1972C62.2206 28.2699 61.9975 29.3307 61.5612 30.3031C61.1248 31.2755 60.4859 32.1353 59.6907 32.8205L49.3449 36.6212C51.7337 35.5108 53.3014 32.9389 53.3014 30.0659C53.3068 28.3948 52.763 26.7717 51.7598 25.4646C51.2004 24.7412 50.5051 24.1435 49.7162 23.7076C49.135 23.3879 48.509 23.1649 47.8611 23.0468L12.0449 16.4916L21.1406 13.6443L56.7697 20.1738C57.3624 20.282 57.9371 20.4776 58.4763 20.7547C59.3293 21.1964 60.0799 21.8244 60.6767 22.5958C61.6776 23.9041 62.2198 25.5268 62.2142 27.1972Z" fill="#FFD33E"/>
<path d="M62.2135 27.1973C62.2199 28.2699 61.9969 29.3307 61.5605 30.3031C61.1241 31.2755 60.4853 32.1353 59.69 32.8205L49.3442 36.6212C51.733 35.5108 53.3007 32.939 53.3007 30.066C53.3061 28.3949 52.7623 26.7718 51.7591 25.4646C51.2055 24.7354 50.5089 24.1366 49.7155 23.7077C49.5987 23.6463 58.4757 20.7505 58.4757 20.7505C59.3286 21.1921 60.0793 21.8202 60.676 22.5916C61.6778 23.901 62.22 25.5254 62.2135 27.1973Z" fill="#F9F06F"/>
<path d="M59.2417 4.98672L30.6221 0L5.49142 7.88398C5.17924 7.91966 4.8932 8.08379 4.83681 8.41063C4.81872 8.58517 4.86561 8.76029 4.96788 8.90012C5.07014 9.03995 5.22005 9.13392 5.3869 9.16278H5.42128C5.42128 9.16278 24.1242 14.3322 24.1242 15.9849C24.1242 18.2256 5.59318 16.2018 5.56705 16.2004C5.40951 16.1913 5.25458 16.2451 5.13407 16.3508C5.01355 16.4565 4.93659 16.606 4.91899 16.7688C4.9014 16.9315 4.94449 17.0951 5.03944 17.2258C5.13438 17.3566 5.27396 17.4447 5.42953 17.4721L36.5094 23.3736C37.415 23.5453 38.3482 23.4676 39.2158 23.1481L60.1191 15.4683C61.1401 15.0943 62.0243 14.4013 62.6503 13.4846C63.2763 12.5679 63.6133 11.4724 63.6149 10.3488C63.615 9.06257 63.1757 7.81797 62.375 6.83621C61.5743 5.85444 60.4641 5.19912 59.2417 4.98672Z" fill="#D12B53"/>
<path d="M34.5158 13.1589C34.2793 13.1589 5.49874 7.87817 5.49874 7.87817C5.18656 7.91385 4.90052 8.07799 4.84414 8.40482C4.82604 8.57936 4.87293 8.75448 4.9752 8.89431C5.07746 9.03414 5.22737 9.12811 5.39422 9.15696H5.4286C5.4286 9.15696 24.1315 14.3264 24.1315 15.9791C24.1315 18.2198 5.60051 16.196 5.57438 16.1946C5.41684 16.1855 5.26191 16.2393 5.14139 16.345C5.02087 16.4507 4.94392 16.6002 4.92632 16.763C4.90872 16.9257 4.95181 17.0892 5.04676 17.22C5.1417 17.3508 5.28128 17.4389 5.43685 17.4663L36.5167 23.3678C37.4224 23.5395 38.3555 23.4617 39.2232 23.1423C39.2232 23.1423 41.5693 13.2046 34.5158 13.1589Z" fill="#B52548"/>
<path d="M59.5086 5.04517L34.5155 13.1589C40.5994 13.1746 40.5857 22.9797 34.5017 22.9797C34.4591 22.9797 34.4192 22.9797 34.3779 22.9725L36.5123 23.3793C37.4179 23.5509 38.3511 23.4732 39.2187 23.1538L60.122 15.4739C61.1946 15.0807 62.1146 14.3356 62.7428 13.3513C63.371 12.3671 63.6732 11.1973 63.6038 10.019C63.5343 8.84059 63.0969 7.71776 62.3578 6.82035C61.6187 5.92294 60.618 5.29979 59.5073 5.04517H59.5086Z" fill="#EF67A5"/>
<path d="M35.1291 14.5649L6.14502 9.3855V16.3917L33.9106 21.6653C34.4115 21.7603 34.9263 21.7398 35.4187 21.6054C35.9111 21.4711 36.3691 21.226 36.7602 20.8877C37.1513 20.5494 37.4659 20.126 37.6819 19.6475C37.8979 19.169 38.01 18.6471 38.0102 18.1187C38.0105 17.2689 37.7216 16.4464 37.1945 15.7962C36.6673 15.146 35.9358 14.7099 35.1291 14.5649Z" fill="white"/>
<path d="M39.5942 23.054C39.5942 23.054 46.0976 18.5168 42.0242 10.7699C42.0242 10.7699 48.4878 11.4121 48.4878 19.6971C48.4878 19.6971 53.1539 14.7504 49.3597 8.33645C49.3597 8.33645 55.5825 9.19278 55.5825 17.014C55.5825 17.014 59.1828 13.9469 56.0253 6.20703C56.0253 6.20703 62.8464 8.18944 60.2376 15.2656L39.5942 23.054Z" fill="#FC8FA4"/>
</svg>
