<svg width="100" height="107" viewBox="0 0 86 107" fill="none" xmlns="http://www.w3.org/2000/svg">
<mask id="mask0_526_997" style="mask-type:alpha" maskUnits="userSpaceOnUse" x="0" y="0" width="86" height="107">
<rect width="100" height="106.895" fill="#D9D9D9"/>
</mask>
<g mask="url(#mask0_526_997)">
<path d="M71.7642 83.2675C71.7642 83.2675 72.2462 85.6369 72.546 86.92C72.1354 87.1399 71.6783 87.2488 71.2166 87.2369L70.0898 83.3569L71.7642 83.2675Z" fill="#FCC7A5"/>
<path d="M55.6225 83.3544C55.6225 83.3544 54.123 85.2094 53.3373 86.2405C52.9124 86.0431 52.5435 85.735 52.2662 85.346L54.4954 82.0566L55.6225 83.3544Z" fill="#FCC7A5"/>
<path d="M73.8538 87.9247C74.2243 88.5625 74.7873 91.0131 73.215 91.5034C71.4562 92.0624 70.8597 89.8703 70.8452 88.9568C71.7524 88.3628 72.7851 88.0086 73.8538 87.9247Z" fill="#E3DFD8"/>
<path d="M72.4179 85.9057C73.724 86.7768 74.9036 89.8574 72.9327 90.5936C70.9619 91.3297 70.4196 88.0547 70.8586 86.3472C72.1259 86.3329 72.4179 85.9057 72.4179 85.9057Z" fill="#90494A"/>
<path d="M50.982 85.8477C50.5237 86.0273 50.042 86.7694 50.1428 88.1808C50.2436 89.5921 50.5831 91.5735 52.1962 91.9044C52.3826 91.9726 52.5829 91.9884 52.7771 91.9502C52.9712 91.912 53.1522 91.8211 53.3018 91.6868C53.4513 91.5524 53.5642 91.3793 53.6289 91.185C53.6937 90.9906 53.7081 90.7819 53.6706 90.5799L50.982 85.8477Z" fill="#E3DFD8"/>
<path d="M52.4389 84.9038C51.9772 85.014 50.6645 85.6668 50.7284 86.7487C50.7923 87.8306 50.9709 90.8096 52.581 91.0818C54.1911 91.354 54.0642 89.9333 53.8999 89.0011C53.7401 87.9691 53.6303 86.9293 53.5708 85.8858C53.5708 85.8858 52.9735 86.0567 52.4389 84.9038Z" fill="#90494A"/>
<path d="M65.2721 58.9893C65.2721 58.9893 69.8856 60.2986 76.4247 53.4376C77.0245 53.7317 77.6791 53.3706 78.4403 52.6723C79.1283 52.3629 79.543 52.0307 79.3767 51.7829C79.2104 51.5352 78.4649 51.9279 78.2684 52.0025C78.2684 52.0025 79.141 51.3785 79.3185 51.23C79.733 50.8925 79.4742 50.4358 79.0646 50.6662C78.6551 50.8966 77.9737 51.3393 77.9338 51.3628C77.8939 51.3863 78.7521 50.576 78.9145 50.4336C79.3466 50.0363 78.9801 49.4785 78.4733 49.9226C78.1292 50.2297 77.546 50.7901 77.491 50.8198C77.436 50.8494 77.8281 50.2671 78.0068 49.9368C78.2978 49.3866 77.9023 49.0709 77.4774 49.6122C77.1393 50.042 76.2847 51.0285 76.2847 51.0285C76.2847 51.0285 76.1017 50.1348 75.6298 50.2455C75.1578 50.3563 75.522 51.9033 75.522 51.9033C75.522 51.9033 71.8663 57.3807 65.2591 56.9691C63.8219 57.6981 65.2721 58.9893 65.2721 58.9893Z" fill="#FCC7A5"/>
<path d="M67.5985 57.0421C67.6702 57.3483 67.8283 58.0509 67.9646 58.6264C68.5893 58.5515 69.2 58.382 69.7776 58.1232C69.4324 58.0989 68.986 57.9998 68.8705 57.6371C68.7187 57.164 69.3653 56.643 69.6377 56.4413C68.9834 56.7252 68.2988 56.9269 67.5985 57.0421Z" fill="#EBAD86"/>
<path d="M76.5877 52.1672C76.5774 52.1569 76.5713 52.1429 76.5706 52.128C76.5699 52.1132 76.5746 52.0986 76.5837 52.0872C76.6376 52.0021 76.674 51.9063 76.6907 51.8058C76.7074 51.7053 76.7041 51.6023 76.6809 51.5032C76.6576 51.4041 76.6151 51.311 76.5558 51.2298C76.4965 51.1486 76.4218 51.081 76.3363 51.0312C76.326 51.0209 76.3199 51.0069 76.3192 50.992C76.3184 50.9772 76.3231 50.9626 76.3323 50.9512C76.3422 50.9405 76.3557 50.9342 76.3699 50.9334C76.3842 50.9327 76.3982 50.9376 76.4091 50.9471C76.5028 51.0064 76.5843 51.0845 76.6487 51.1769C76.7131 51.2693 76.7592 51.3741 76.7844 51.4852C76.8095 51.5964 76.813 51.7116 76.7949 51.8242C76.7768 51.9368 76.7373 52.0445 76.6788 52.141C76.676 52.1503 76.6709 52.1587 76.6642 52.1655C76.6574 52.1723 76.6491 52.1772 76.6401 52.1798C76.631 52.1824 76.6215 52.1826 76.6124 52.1804C76.6032 52.1782 76.5947 52.1737 76.5877 52.1672Z" fill="#CE7755"/>
<path d="M58.6788 60.9293C54.6281 62.125 50.3228 62.0024 46.3401 60.5779C45.8987 61.0986 45.1562 61.0314 44.1863 60.7303C43.4426 60.7433 42.9328 60.6102 42.99 60.3131C43.0471 60.016 43.876 60.0626 44.0857 60.046C44.0549 60.0477 43.0489 59.8448 42.8253 59.7872C42.3051 59.6493 42.3767 59.1269 42.8302 59.1615C43.2837 59.196 44.0958 59.3184 44.1421 59.3213C44.1012 59.3235 43.0966 58.9441 42.8986 58.8851C42.3453 58.7008 42.4613 58.0371 43.1024 58.2327C43.5351 58.3646 44.2875 58.6292 44.3594 58.6307C44.3578 58.5987 43.8281 58.2688 43.5448 58.0433C43.0698 57.6784 43.3031 57.2062 43.904 57.5216C44.3783 57.7689 45.5449 58.3107 45.5449 58.3107C45.5449 58.3107 45.3619 57.417 45.8347 57.3223C46.3074 57.2275 46.5851 58.7898 46.5851 58.7898C50.2511 60.1058 54.2187 60.204 57.9398 59.0708C59.4935 59.1375 58.6788 60.9293 58.6788 60.9293Z" fill="#FCC7A5"/>
<path d="M55.6266 61.4987L57.7992 61.1046C57.7992 61.1046 58.8821 59.5445 57.3079 59.4789C56.6353 59.6259 55.9546 59.7301 55.2698 59.7909C56.0958 59.7788 56.5078 60.8421 55.6266 61.4987Z" fill="#EBAD86"/>
<path d="M45.6312 59.5359L45.6005 59.5375C45.5092 59.4739 45.431 59.3922 45.3703 59.2969C45.3095 59.2017 45.2676 59.0949 45.2467 58.9826C45.2259 58.8704 45.2266 58.755 45.2488 58.643C45.2711 58.5311 45.3144 58.4249 45.3763 58.3305C45.3868 58.3209 45.4001 58.3152 45.4141 58.3145C45.428 58.3137 45.4418 58.3179 45.4532 58.3264C45.4634 58.3368 45.4695 58.3508 45.4702 58.3656C45.471 58.3805 45.4663 58.395 45.4571 58.4064C45.4012 58.488 45.3614 58.5803 45.3402 58.6781C45.319 58.7759 45.3168 58.8771 45.3336 58.9757C45.3505 59.0744 45.386 59.1687 45.4383 59.2528C45.4906 59.337 45.5585 59.4095 45.638 59.466C45.6483 59.4763 45.6544 59.4904 45.6551 59.5052C45.6558 59.52 45.6512 59.5346 45.642 59.546C45.638 59.5431 45.6344 59.5397 45.6312 59.5359Z" fill="#CE7755"/>
<path d="M58.8896 58.3519C58.8896 58.3519 60.0682 57.5833 60.8116 57.1479C60.7147 56.5403 60.5509 55.9463 60.3233 55.3777L61.7763 54.8617C61.7763 54.8617 62.2029 56.2182 62.3075 56.774C63.4538 56.8036 64.9651 56.7389 64.9651 56.7389C64.9651 56.7389 66.4966 60.0841 62.6887 60.8382C61.6821 61.0363 59.074 59.9994 58.8896 58.3519Z" fill="#FCC7A5"/>
<path d="M61.5955 54.9408L60.3781 55.4442C60.5809 55.8629 60.7355 56.3051 60.8388 56.7615C61.2907 56.6992 61.7345 56.584 62.1617 56.4182C62.0045 55.9132 61.8154 55.4197 61.5955 54.9408Z" fill="#EBAD86"/>
<path d="M60.0205 57.6446C59.4653 57.9416 57.8637 58.6687 56.2789 59.32C56.7764 60.1382 56.6663 61.4378 56.424 62.2474C57.0491 62.2312 57.6682 62.117 58.2606 61.9087C58.5662 65.2765 57.9711 68.4947 57.4745 71.8359C59.9774 74.4769 67.8252 72.8869 69.9483 70.9772C69.3487 69.8597 68.6497 63.8398 67.5428 59.7395C67.5385 59.6542 68.3492 59.5414 68.8773 59.3207C69.0479 57.5848 67.9174 56.8379 67.8397 56.6175C66.5238 56.6877 64.0055 56.7367 63.41 56.7364C64.2695 58.8504 60.8067 59.4203 60.0205 57.6446Z" fill="#F2C94C"/>
<path d="M72.9047 86.9061C72.5406 86.8572 72.1707 86.8928 71.8215 87.0103C71.4723 87.1279 71.1524 87.3245 70.8848 87.5861C70.8311 87.6502 70.7965 87.7292 70.7852 87.8135C70.774 87.8978 70.7865 87.9837 70.8214 88.0606C70.8563 88.1376 70.9119 88.2024 70.9815 88.2469C71.0512 88.2915 71.1318 88.314 71.2135 88.3116C71.7785 88.1009 72.354 87.922 72.9375 87.7758C73.7215 87.643 73.3678 87.0311 72.9047 86.9061Z" fill="#E3DFD8"/>
<path d="M54.2985 87.5045C54.0877 87.1907 53.8119 86.93 53.4916 86.7418C53.1714 86.5535 52.8147 86.4423 52.4477 86.4165C52.367 86.4193 52.2887 86.4463 52.2223 86.4943C52.1559 86.5423 52.1042 86.6092 52.0734 86.687C52.0426 86.7648 52.0339 86.8502 52.0486 86.933C52.0632 87.0158 52.1004 87.0925 52.1557 87.1538C52.687 87.4455 53.2032 87.7659 53.7024 88.1137C54.3287 88.6309 54.5302 87.9305 54.2985 87.5045Z" fill="#E3DFD8"/>
<path d="M70.1344 36.842C71.7737 40.4968 73.3283 51.8655 63.4944 55.7482C53.6606 59.6309 47.3778 53.027 45.0385 45.9185C42.1953 37.3453 48.203 31.0526 54.0333 29.4634C63.1207 26.9892 67.9422 31.9764 70.1344 36.842Z" fill="#FCC7A5"/>
<path d="M65.5751 46.3667C65.7041 47.3114 67.1175 47.8614 68.4463 47.3253C69.0169 47.1366 69.5026 46.7394 69.814 46.207C70.1254 45.6745 70.2413 45.0427 70.1405 44.428C69.9307 43.4074 68.5832 42.7363 67.3608 43.967C66.216 45.1081 65.4289 45.3854 65.5751 46.3667Z" fill="#F9B09B"/>
<path d="M68.9838 44.3882C69.0061 44.4527 69.0514 44.5058 69.1103 44.5365C69.1691 44.5672 69.2371 44.5731 69.3 44.5531C69.4536 44.5449 69.5597 44.4056 69.5331 44.284C69.5065 44.1625 69.3743 44.084 69.2218 44.1135C69.1552 44.1171 69.0928 44.148 69.0481 44.1995C69.0035 44.251 68.9804 44.3189 68.9838 44.3882Z" fill="#FDD9C2"/>
<path d="M60.9124 44.8835C60.9187 45.0115 61.1019 45.0819 61.2849 45.0454C61.468 45.0089 61.5901 44.8848 61.5687 44.763C61.5472 44.6411 61.3846 44.5696 61.2013 44.6008C61.018 44.632 60.8961 44.7614 60.9124 44.8835Z" fill="#FDD9C2"/>
<path d="M50.4274 49.7313C50.6959 51.0054 52.0235 51.6883 53.6462 51.4893C55.2689 51.2904 56.5859 49.7926 56.1132 48.647C55.6406 47.5014 54.8747 48.1037 52.9882 47.7447C51.1016 47.3856 50.1537 48.4574 50.4274 49.7313Z" fill="#F9B09B"/>
<path d="M51.4122 48.8713C51.4354 48.9334 51.4805 48.9839 51.5382 49.0126C51.5959 49.0413 51.6619 49.046 51.7228 49.0258C51.8646 48.9861 51.9615 48.8687 51.9352 48.7525C51.9248 48.7216 51.9087 48.6932 51.8876 48.6688C51.8666 48.6445 51.8412 48.6248 51.8127 48.6109C51.7843 48.597 51.7535 48.5891 51.7221 48.5878C51.6907 48.5864 51.6594 48.5916 51.63 48.603C51.4879 48.6374 51.3859 48.7551 51.4122 48.8713Z" fill="#FDD9C2"/>
<path d="M65.5984 36.8919C64.1263 36.5054 63.8709 38.1871 64.8348 38.1624C65.7988 38.1376 66.7561 38.4981 66.8996 38.3889C67.1599 38.1504 66.4255 37.1097 65.5984 36.8919Z" fill="#3E281B"/>
<path d="M52.2958 39.7837C53.4953 38.8161 54.3724 40.2502 53.4771 40.6241C52.5819 40.998 51.8536 41.7373 51.6919 41.6871C51.3482 41.5879 51.6191 40.3224 52.2958 39.7837Z" fill="#3E281B"/>
<path d="M64.1991 47.1887C64.1991 47.1887 65.2051 52.7753 61.4384 53.6341C57.6717 54.4929 57.701 48.8724 57.701 48.8724C57.701 48.8724 60.5437 49.3621 64.1991 47.1887Z" fill="#4C1F1C"/>
<path d="M60.7179 48.6309C60.7258 50.0312 60.4609 52.0395 59.012 53.0525C57.6624 51.7185 57.6843 48.8464 57.6843 48.8464C58.6998 48.9631 59.7271 48.8901 60.7179 48.6309Z" fill="#321614"/>
<path d="M63.5541 52.0988C63.3234 52.5181 63.0056 52.8783 62.6239 53.153C62.2423 53.4278 61.8064 53.6102 61.3482 53.6869C59.4747 54.1077 58.5362 52.8854 58.1653 51.6168C58.3213 51.4144 58.5379 51.2722 58.7805 51.2127C59.0231 51.1533 59.2779 51.18 59.5043 51.2886C60.0745 50.1569 62.5207 50.8281 63.5541 52.0988Z" fill="#ED756D"/>
<path d="M58.7994 51.4546C58.9292 51.3963 59.0692 51.3666 59.2106 51.3673C59.352 51.3681 59.4917 51.3992 59.621 51.4589C59.6948 51.2836 59.8167 51.1349 59.9714 51.0315C60.1262 50.9281 60.3068 50.8747 60.4906 50.8778C61.9057 50.7381 63.7231 52.1861 61.9467 53.0134C60.1703 53.8407 57.7525 51.981 58.7994 51.4546Z" fill="#F58F88"/>
<path d="M61.7281 51.4105C61.4153 51.1064 60.6776 50.932 60.4578 51.1576C60.238 51.3832 60.8884 51.7654 61.3163 51.8014C61.7441 51.8373 61.9325 51.5974 61.7281 51.4105Z" fill="#F8B1AE"/>
<path d="M63.1038 47.7711C63.1657 47.9035 63.1987 48.0485 63.2002 48.1957C63.2017 48.3429 63.1717 48.4886 63.1125 48.6222C63.0533 48.7559 62.9663 48.8741 62.8578 48.9684C62.7493 49.0627 62.622 49.1307 62.4851 49.1675C61.7184 49.525 60.9005 49.7493 60.0641 49.8314C59.2039 49.8774 58.7604 49.5268 58.7661 48.9171C60.2583 48.7594 61.72 48.3733 63.1038 47.7711Z" fill="white"/>
<path d="M61.422 46.3586C61.4081 46.3597 61.3943 46.3566 61.3821 46.3497C61.3699 46.3427 61.3599 46.3323 61.3533 46.3195C61.3477 46.3117 61.3439 46.3026 61.3421 46.293C61.3404 46.2834 61.3408 46.2735 61.3433 46.2641C61.3458 46.2547 61.3504 46.246 61.3566 46.2387C61.3628 46.2313 61.3706 46.2256 61.3793 46.2219C61.5766 46.1323 61.7374 45.9733 61.8335 45.7727C61.9296 45.5721 61.9549 45.3427 61.905 45.1246C61.8724 44.9402 61.7873 44.7702 61.6607 44.6368C61.5342 44.5034 61.372 44.4128 61.1953 44.3766C60.8553 44.352 60.5567 44.6459 60.3482 45.2024C60.3422 45.2211 60.3294 45.2366 60.3125 45.2455C60.2957 45.2544 60.2761 45.256 60.2581 45.25C60.2492 45.247 60.241 45.2421 60.2341 45.2356C60.2271 45.2291 60.2215 45.2212 60.2177 45.2123C60.2139 45.2035 60.2119 45.1939 60.2119 45.1841C60.2118 45.1744 60.2137 45.1648 60.2175 45.1559C60.5244 44.3055 60.9716 44.2121 61.1985 44.2321C61.4066 44.2687 61.5989 44.3714 61.7489 44.526C61.899 44.6807 61.9996 44.8798 62.037 45.0961C62.0851 45.3411 62.0523 45.5957 61.9442 45.8188C61.836 46.0419 61.6587 46.2204 61.4409 46.3255L61.422 46.3586Z" fill="#CE7755"/>
<path d="M63.4248 41.301C63.3738 41.7563 63.4518 42.2173 63.6493 42.6271C63.8468 43.0369 64.1551 43.3776 64.5362 43.6072C64.9173 43.8368 65.3545 43.9454 65.7941 43.9194C66.2336 43.8935 66.6561 43.7342 67.0097 43.4611C67.3632 43.1881 67.6323 42.8133 67.7838 42.3829C67.9352 41.9525 67.9624 41.4853 67.862 41.0389C67.7616 40.5926 67.538 40.1865 67.2187 39.8707C66.8994 39.555 66.4984 39.3434 66.0652 39.262C65.763 39.2143 65.4549 39.2292 65.1584 39.306C64.8618 39.3828 64.5829 39.5199 64.3375 39.7094C64.0921 39.8989 63.8851 40.1371 63.7285 40.4102C63.5718 40.6834 63.4686 40.9861 63.4248 41.301Z" fill="#EBAD86"/>
<path d="M64.5504 43.513C63.8321 43.7278 63.7218 44.0919 64.3098 44.3545C65.0688 44.6119 65.8829 44.6353 66.6542 44.4218C67.3725 44.207 67.4828 43.8429 66.8999 43.58C66.1392 43.3228 65.3234 43.2996 64.5504 43.513Z" fill="#EBAD86"/>
<path d="M63.6664 41.3095C63.616 41.7597 63.6932 42.2153 63.8885 42.6204C64.0837 43.0255 64.3885 43.3623 64.7652 43.5893C65.142 43.8163 65.5743 43.9236 66.0088 43.8979C66.4433 43.8723 66.861 43.7148 67.2105 43.4449C67.56 43.175 67.8261 42.8045 67.9758 42.379C68.1255 41.9535 68.1524 41.4917 68.0532 41.0504C67.954 40.6091 67.7329 40.2076 67.4173 39.8954C67.1017 39.5833 66.7054 39.374 66.277 39.2935C65.6741 39.2012 65.0608 39.3616 64.5714 39.7395C64.0821 40.1174 63.7566 40.682 63.6664 41.3095Z" fill="white"/>
<path d="M63.9481 41.503C63.9953 41.2476 64.0838 41.0024 64.2099 40.7779C64.1606 40.9116 64.1228 41.0496 64.0969 41.1903C63.9962 41.7355 64.1034 42.3002 64.3958 42.7646C64.6881 43.229 65.1426 43.5567 65.6629 43.6782C65.9694 43.7311 66.2836 43.7062 66.5789 43.6058C66.8742 43.5053 67.1419 43.3322 67.3592 43.1011C67.1541 43.4111 66.8686 43.654 66.536 43.8014C66.2034 43.9489 65.8373 43.9948 65.4805 43.9339C65.2266 43.879 64.9856 43.7726 64.7712 43.6207C64.5568 43.4689 64.3732 43.2745 64.2309 43.0488C64.0886 42.8231 63.9903 42.5704 63.9418 42.3051C63.8933 42.0399 63.8955 41.7673 63.9481 41.503Z" fill="#DADBDC"/>
<path d="M64.3189 42.2584C64.3805 42.4959 64.5075 42.7094 64.6842 42.8727C64.861 43.0359 65.0797 43.1418 65.3135 43.1771C65.5472 43.2125 65.7858 43.1759 65.9998 43.0717C66.2137 42.9676 66.3937 42.8005 66.5175 42.591C66.6413 42.3816 66.7035 42.139 66.6965 41.8931C66.6895 41.6473 66.6135 41.4089 66.4779 41.2074C66.3424 41.0059 66.1532 40.8502 65.9337 40.7593C65.7141 40.6684 65.4739 40.6464 65.2426 40.6961C64.9218 40.7769 64.6447 40.9864 64.4717 41.279C64.2987 41.5717 64.2438 41.9237 64.3189 42.2584Z" fill="#8EC4D5"/>
<path d="M64.8147 42.2051C64.8522 42.3464 64.9286 42.4733 65.0344 42.5701C65.1401 42.6669 65.2707 42.7294 65.4101 42.75C65.5495 42.7707 65.6916 42.7484 65.8191 42.6861C65.9465 42.6238 66.0536 42.5241 66.1273 42.3992C66.2011 42.2743 66.2382 42.1297 66.2341 41.9832C66.23 41.8366 66.1849 41.6945 66.1044 41.5742C66.0238 41.4539 65.9113 41.3607 65.7807 41.3061C65.65 41.2515 65.5068 41.2378 65.3688 41.2666C65.1766 41.3159 65.0107 41.4419 64.907 41.6175C64.8033 41.7931 64.7702 42.0042 64.8147 42.2051Z" fill="#231F20"/>
<path d="M65.5272 41.5682C65.5418 41.6546 65.5887 41.7315 65.6576 41.7819C65.7265 41.8324 65.8118 41.8523 65.8948 41.8373C65.9738 41.8127 66.0409 41.7582 66.083 41.6844C66.1251 41.6106 66.139 41.523 66.1219 41.4391C66.1048 41.3551 66.058 41.2809 65.9907 41.2312C65.9235 41.1815 65.8408 41.16 65.7591 41.1709C65.678 41.1921 65.6082 41.2456 65.5649 41.32C65.5215 41.3944 65.5079 41.4835 65.5272 41.5682Z" fill="white"/>
<path d="M64.921 42.6966C64.9262 42.7212 64.9361 42.7446 64.95 42.7652C64.964 42.7859 64.9816 42.8035 65.0021 42.8171C65.0225 42.8306 65.0454 42.8399 65.0692 42.8442C65.0931 42.8486 65.1176 42.848 65.1413 42.8426C65.1649 42.8371 65.1873 42.8268 65.2072 42.8123C65.227 42.7978 65.2439 42.7794 65.2569 42.7581C65.2699 42.7368 65.2788 42.7131 65.283 42.6882C65.2872 42.6633 65.2866 42.6378 65.2813 42.6132C65.2775 42.5876 65.2688 42.563 65.2557 42.5409C65.2425 42.5189 65.2252 42.4998 65.2048 42.4849C65.1844 42.47 65.1613 42.4596 65.1369 42.4543C65.1125 42.4489 65.0874 42.4487 65.0629 42.4538C65.0381 42.4596 65.0146 42.4705 64.9939 42.486C64.9732 42.5015 64.9557 42.5211 64.9424 42.5438C64.9292 42.5664 64.9204 42.5917 64.9168 42.6179C64.9131 42.6442 64.9145 42.6709 64.921 42.6966Z" fill="white"/>
<path d="M51.9479 43.8333C51.8957 44.2889 51.9727 44.7505 52.1696 45.1612C52.3664 45.5718 52.6744 45.9135 53.0555 46.144C53.4366 46.3745 53.8742 46.4837 54.3142 46.4582C54.7541 46.4327 55.1773 46.2735 55.5313 46.0004C55.8853 45.7273 56.1547 45.3521 56.3063 44.9212C56.4578 44.4904 56.4849 44.0227 56.384 43.576C56.2832 43.1292 56.059 42.7229 55.739 42.4073C55.419 42.0917 55.0173 41.8805 54.5834 41.7999C53.975 41.7063 53.3559 41.8678 52.8618 42.249C52.3677 42.6302 52.0391 43.1999 51.9479 43.8333Z" fill="#EBAD86"/>
<path d="M53.0738 46.0507C52.3554 46.2655 52.2502 46.6293 52.8331 46.8922C53.5938 47.1497 54.4097 47.1729 55.1826 46.9592C55.8956 46.7394 56.0061 46.3806 55.423 46.1124C54.6618 45.8573 53.8462 45.8359 53.0738 46.0507Z" fill="#EBAD86"/>
<path d="M52.1894 43.8417C52.1368 44.2933 52.2124 44.751 52.4069 45.1584C52.6014 45.5658 52.9063 45.905 53.2838 46.134C53.6613 46.3631 54.0949 46.4719 54.5311 46.4471C54.9673 46.4224 55.3869 46.265 55.7381 45.9946C56.0893 45.7242 56.3566 45.3525 56.5071 44.9255C56.6576 44.4984 56.6847 44.0348 56.5849 43.5919C56.4852 43.149 56.2629 42.7462 55.9458 42.4332C55.6286 42.1203 55.2304 41.9109 54.8004 41.831C54.1984 41.74 53.5864 41.9002 53.0974 42.2768C52.6084 42.6533 52.2821 43.2157 52.1894 43.8417Z" fill="white"/>
<path d="M52.4715 44.0353C52.5198 43.7802 52.6082 43.5352 52.7333 43.3102C52.6848 43.4442 52.647 43.5821 52.6203 43.7226C52.5196 44.2678 52.6268 44.8325 52.9192 45.2969C53.2115 45.7613 53.666 46.089 54.1863 46.2105C54.4925 46.2645 54.8066 46.2408 55.102 46.1412C55.3974 46.0417 55.6653 45.8693 55.8829 45.6387C55.677 45.9478 55.3913 46.1899 55.0589 46.3372C54.7265 46.4846 54.3609 46.5311 54.0042 46.4715C53.4917 46.3582 53.0429 46.0385 52.7558 45.5821C52.4687 45.1257 52.3665 44.5697 52.4715 44.0353Z" fill="#DADBDC"/>
<path d="M52.8426 44.7961C52.905 45.033 53.0327 45.2458 53.2098 45.4082C53.3869 45.5707 53.6057 45.6757 53.8393 45.7103C54.0729 45.7449 54.3111 45.7076 54.5246 45.6031C54.7381 45.4986 54.9175 45.3313 55.0408 45.1219C55.1642 44.9125 55.226 44.6701 55.2188 44.4245C55.2115 44.1789 55.1355 43.9408 55 43.7396C54.8645 43.5384 54.6755 43.3828 54.4562 43.292C54.237 43.2012 53.997 43.1791 53.7659 43.2284C53.4441 43.3092 53.1662 43.5196 52.9931 43.8135C52.82 44.1073 52.7659 44.4607 52.8426 44.7961Z" fill="#8EC4D5"/>
<path d="M53.338 44.7375C53.3749 44.8795 53.4508 45.0071 53.5565 45.1047C53.6622 45.2023 53.7931 45.2655 53.9329 45.2865C54.0727 45.3075 54.2153 45.2854 54.3431 45.223C54.471 45.1605 54.5784 45.0604 54.6523 44.9351C54.7261 44.8097 54.763 44.6646 54.7585 44.5176C54.754 44.3706 54.7082 44.2281 54.6268 44.1079C54.5454 43.9877 54.4321 43.8949 54.3006 43.841C54.1692 43.7871 54.0255 43.7744 53.8873 43.8046C53.6964 43.8537 53.5317 43.9792 53.429 44.1537C53.3262 44.3283 53.2935 44.538 53.338 44.7375Z" fill="#231F20"/>
<path d="M54.0507 44.1165C54.0572 44.1589 54.0718 44.1996 54.0937 44.236C54.1156 44.2724 54.1443 44.3038 54.1781 44.3284C54.2119 44.3531 54.2501 44.3704 54.2904 44.3793C54.3307 44.3883 54.3724 44.3887 54.4129 44.3806C54.4971 44.3626 54.571 44.3105 54.6183 44.2358C54.6656 44.1611 54.6825 44.0698 54.6652 43.9821C54.6479 43.8944 54.5979 43.8175 54.5261 43.7682C54.4544 43.7189 54.3667 43.7013 54.2825 43.7192C54.2421 43.7291 54.2039 43.7472 54.1702 43.7726C54.1365 43.798 54.1081 43.8302 54.0865 43.8672C54.0649 43.9042 54.0506 43.9453 54.0445 43.9881C54.0383 44.0309 54.0404 44.0746 54.0507 44.1165Z" fill="white"/>
<path d="M53.4435 45.2183C53.4479 45.2442 53.4572 45.2688 53.4709 45.2909C53.4846 45.3129 53.5024 45.3319 53.5232 45.3467C53.544 45.3615 53.5675 45.3719 53.5922 45.3772C53.6168 45.3825 53.6423 45.3826 53.667 45.3775C53.7053 45.3707 53.7407 45.3522 53.7688 45.3243C53.7969 45.2964 53.8163 45.2604 53.8246 45.2209C53.8329 45.1814 53.8297 45.1402 53.8154 45.1027C53.8011 45.0651 53.7763 45.0328 53.7442 45.01C53.7122 44.9872 53.6743 44.9748 53.6355 44.9746C53.5967 44.9743 53.5587 44.9861 53.5264 45.0085C53.494 45.0309 53.4689 45.0628 53.4541 45.1002C53.4393 45.1376 53.4357 45.1787 53.4435 45.2183Z" fill="white"/>
<path d="M46.2993 50.7537C47.1558 51.4617 48.3611 49.5743 47.0198 48.8226C49.0467 48.2866 48.7937 45.4613 47.2957 44.8623C48.5435 44.4535 48.257 43.0253 46.9672 42.8964C48.8676 41.9823 50.2987 39.4733 48.7773 37.9881C50.5638 39.2292 51.311 37.3181 51.096 36.0893C52.1339 37.4506 57.7903 34.7373 57.0817 32.5618C58.541 35.59 60.3606 33.5628 60.7864 32.3158C60.7599 34.9903 64.7138 34.2819 65.3026 32.9032C65.7237 35.2866 67.3924 35.0852 67.7763 34.0275C68.1471 35.8094 69.2075 35.7634 69.4276 35.5432C70.2407 37.1357 70.7005 39.3672 71.1299 40.884C72.5436 41.1293 73.886 38.176 72.6539 36.8304C74.2745 35.1399 72.9551 33.4835 72.4978 32.8557C73.6595 32.0559 73.0677 28.9225 71.6057 29.0487C73.1717 26.3614 70.1603 21.6412 66.5222 22.6107C67.5117 18.9598 63.6293 19.5575 63.2389 22.0376C60.7188 18.0128 55.3318 19.7387 54.8664 21.9502C53.2888 18.0889 51.6522 21.0098 52.0702 21.8803C50.0747 17.8756 46.1946 21.8306 48.4162 23.4602C45.3729 22.4466 41.8202 26.0686 41.6196 28.7525C39.403 26.3956 38.0328 29.7193 41.045 30.3122C36.4767 31.3635 36.2092 37.1517 38.6084 37.3925C35.7452 39.3899 37.1036 45.1448 40.5473 43.3623C39.855 44.2065 40.2618 45.1632 41.5227 44.9141C39.9325 46.389 41.4143 48.7317 42.5196 48.7636C42.5021 51.6194 45.2265 50.7575 45.2265 50.7575C45.2265 50.7575 45.3679 49.9854 46.2993 50.7537Z" fill="#4F3628"/>
<path d="M72.1619 35.2902C71.3874 35.0964 70.6463 33.0937 71.3291 31.4373C70.7785 32.9637 67.9965 31.7329 67.3956 28.3113C66.5491 30.2919 62.3576 31.5904 62.3935 27.7605C61.7791 29.5523 58.3212 32.6026 56.2318 28.2554C57.2251 31.4101 50.9799 33.2246 49.4913 31.2618C49.8014 33.063 47.1633 36.0802 44.6157 34.297C47.3029 38.5855 44.4661 42.3564 43.2305 42.3903C45.083 42.5801 45.7275 44.3955 43.9339 44.9778C45.3688 45.548 42.7024 48.3048 41.8494 45.597C42.3345 47.6134 42.598 48.4761 43.3129 48.192C43.3249 50.6079 44.7553 50.5689 44.7553 50.5689C44.7553 50.5689 45.3206 50.0629 46.2316 50.7306C46.2536 50.4844 46.2007 50.2373 46.0805 50.024C45.9603 49.8108 45.7789 49.6422 45.5618 49.5421C47.8879 48.9313 47.5754 45.7349 45.8525 45.0517C47.2671 44.5912 47.2852 42.8848 45.8299 42.7327C48.3006 40.7937 48.5025 38.4466 47.1277 36.9161C49.1486 38.3265 50.3931 36.5065 50.1533 35.0865C51.3232 36.6279 57.7421 33.5531 56.9573 31.0822C58.611 34.5117 60.6687 32.2152 61.153 30.7993C61.1232 33.8215 65.6069 33.0314 66.2788 31.4665C66.7519 34.1731 68.6452 33.9437 69.0837 32.7441C69.5022 34.764 70.0965 35.1546 70.3419 34.9277C70.2594 35.8516 70.9355 37.2697 71.5826 40.0687C72.1552 40.1236 72.8325 37.9436 71.8369 37.8471C72.2536 37.4506 72.2785 36.813 72.1619 35.2902Z" fill="#3E281B"/>
<path d="M46.3109 28.4217C45.0992 26.3479 46.5849 23.5954 49.4797 25.8573C46.2876 25.1564 46.3109 28.4217 46.3109 28.4217Z" fill="#3E281B"/>
<path d="M66.6039 26.1242C67.4128 23.0764 69.8742 23.95 69.3398 27.6675C68.4337 24.4066 66.6039 26.1242 66.6039 26.1242Z" fill="#3E281B"/>
<path d="M42.3433 37.3373C38.4046 37.1093 39.6883 33.4908 42.7345 34.8732C39.6697 36.0152 42.3433 37.3373 42.3433 37.3373Z" fill="#3E281B"/>
<path d="M59.4881 23.5104C59.3461 19.4067 62.9281 20.4129 61.8859 23.7245C60.5121 20.6596 59.4881 23.5104 59.4881 23.5104Z" fill="#3E281B"/>
<path d="M47.4663 47.4782C47.1507 47.0526 46.7109 46.7451 46.2131 46.602C45.7153 46.4589 45.1865 46.4879 44.706 46.6847C42.8939 47.4124 43.5366 50.2276 45.2996 51.3043C47.0626 52.3809 49.0866 51.5778 48.9927 49.995L47.4663 47.4782Z" fill="#FCC7A5"/>
<path d="M44.9405 46.7418C45.3074 46.5872 45.7074 46.5382 46.0988 46.5997C45.8162 46.5602 45.5286 46.6033 45.2682 46.7243C43.6013 47.4816 44.346 49.5589 45.4533 50.4567C46.9568 51.6863 48.5648 51.0871 48.9533 49.81C49.0265 51.287 47.1441 52.0452 45.4937 51.0641C43.8432 50.083 43.2392 47.4261 44.9405 46.7418Z" fill="#EBAD86"/>
<path d="M44.7347 47.5707C45.7191 46.7162 47.8643 48.5637 46.9957 50.6149C46.7472 48.6073 45.8571 48.3608 45.4973 49.5936C45.2199 49.0738 45.3164 48.534 46.0052 48.2406C45.8574 48.0344 45.6658 47.8666 45.4454 47.7504C45.225 47.6341 44.9817 47.5726 44.7347 47.5707Z" fill="#EBAD86"/>
<path d="M54.2414 49.5008C51.1732 49.7449 48.522 47.2187 48.274 43.8745C48.026 40.5303 50.3096 37.6122 53.3525 37.3748C56.3954 37.1375 59.0718 39.6569 59.3147 43.0014C59.5576 46.3459 57.2651 49.2912 54.2414 49.5008ZM53.3913 37.9502C50.6554 38.1658 48.6043 40.8041 48.8265 43.8343C49.0486 46.8645 51.4618 49.1467 54.2128 48.9249C56.9638 48.7031 59.0049 46.0707 58.7776 43.0408C58.5504 40.0109 56.1116 37.73 53.3708 37.9513L53.3913 37.9502Z" fill="#F2C94C"/>
<path d="M67.0237 46.8987C65.5993 46.9705 64.2054 46.452 63.1468 45.4566C62.0882 44.4612 61.4511 43.0698 61.3748 41.5868C61.141 38.4237 63.2988 35.662 66.2042 35.448C69.1097 35.234 71.62 37.6127 71.8539 40.7758C72.0878 43.939 69.9027 46.6701 67.0237 46.8987ZM66.2205 35.9818C64.9614 36.1601 63.8156 36.8325 63.0171 37.8616C62.2187 38.8907 61.8279 40.1986 61.9249 41.518C62.0218 42.8374 62.5989 44.0686 63.5384 44.9599C64.4779 45.8512 65.7087 46.3352 66.9792 46.313C69.5362 46.1122 71.4666 43.63 71.274 40.7801C71.212 39.4471 70.6454 38.1939 69.6983 37.2946C68.7512 36.3953 67.5007 35.9233 66.2205 35.9818Z" fill="#F2C94C"/>
<path d="M59.1564 43.4375C59.0849 43.4499 59.0115 43.4321 58.9525 43.3881C58.8936 43.3442 58.8538 43.2776 58.8419 43.2031C58.83 43.1286 58.8471 43.0522 58.8893 42.9908C58.9315 42.9294 58.9954 42.8879 59.0669 42.8756L61.657 42.2026C61.7282 42.184 61.8037 42.1955 61.8668 42.2347C61.9298 42.274 61.9754 42.3377 61.9933 42.4119C62.0113 42.4861 62.0003 42.5647 61.9626 42.6303C61.925 42.696 61.8638 42.7434 61.7925 42.7621L59.2025 43.4351L59.1564 43.4375Z" fill="#F2C94C"/>
<path d="M45.1773 48.8355C45.1354 48.8374 45.0936 48.83 45.0547 48.8136C45.0158 48.7972 44.9807 48.7723 44.9518 48.7406C44.9021 48.6844 44.8759 48.6099 44.8788 48.5336C44.8818 48.4573 44.9137 48.3853 44.9676 48.3334L48.5672 44.9334C48.6218 44.8816 48.694 44.8545 48.7678 44.858C48.8417 44.8616 48.9111 44.8956 48.9609 44.9525C49.0107 45.0094 49.0368 45.0845 49.0334 45.1614C49.03 45.2383 48.9974 45.3106 48.9427 45.3624L45.3431 48.7625C45.2958 48.8029 45.2382 48.8283 45.1773 48.8355Z" fill="#F2C94C"/>
<path d="M42.9195 28.25C42.6075 26.203 40.8727 23.9326 39.3336 25.1964C38.4359 21.2774 33.2808 24.6803 35.4711 26.4024C32.5176 27.0948 34.564 31.2999 37.0042 29.7796C38.6666 31.2091 40.4582 30.7926 41.7226 29.8911C42.987 28.9895 42.9195 28.25 42.9195 28.25Z" fill="#4F3628"/>
<path d="M42.4719 26.8785C41.243 28.9116 39.7091 29.0363 39.2402 30.7614C39.7387 31.0137 40.2827 31.1541 40.8366 31.1733C40.8366 31.1733 43.1825 29.9253 43.2827 28.0114C43.2367 27.3937 42.4719 26.8785 42.4719 26.8785Z" fill="#F2C94C"/>
<path d="M68.852 23.2134C68.9604 20.326 70.4518 19.3428 71.8585 20.3797C72.4721 16.9146 76.4921 19.5067 74.652 21.1179C77.2412 21.5677 75.7983 25.184 73.5973 23.9704C72.2104 25.3008 71.0977 25.3282 69.9682 24.6026C68.8387 23.877 68.852 23.2134 68.852 23.2134Z" fill="#4F3628"/>
<path d="M69.2024 21.9918C69.8105 21.7294 72.7172 24.4397 72.1972 25.2374C71.7738 25.4825 71.3052 25.6315 70.8225 25.6744C70.8225 25.6744 68.7215 24.7173 68.5449 23.0213C68.5597 22.4912 69.2024 21.9918 69.2024 21.9918Z" fill="#F2C94C"/>
<path d="M64.3477 56.5955C64.3477 56.5955 64.5182 60.0347 64.625 62.1889C64.7191 62.2886 64.8324 62.3665 64.9575 62.4173C65.0826 62.4681 65.2166 62.4906 65.3507 62.4835C65.4848 62.4763 65.6158 62.4396 65.7352 62.3757C65.8546 62.3119 65.9597 62.2224 66.0434 62.1131L65.4719 56.5942L64.3477 56.5955Z" fill="#F2C94C"/>
<path d="M58.5779 58.176C58.5779 58.176 59.4585 61.3368 59.9362 63.4123C60.0461 63.4927 60.171 63.548 60.3028 63.5747C60.4345 63.6013 60.5702 63.5987 60.701 63.567C60.8317 63.5353 60.9545 63.4752 61.0614 63.3907C61.1682 63.3061 61.2567 63.199 61.3211 63.0764L59.7085 57.7842L58.5779 58.176Z" fill="#F2C94C"/>
<path d="M66.1664 61.5933C66.1664 61.5933 62.1948 62.7731 59.4391 62.5889C59.6112 66.0601 59.4692 68.3719 57.7589 67.7362C57.4233 71.3201 57.046 76.756 53.9457 81.8401C54.4953 82.57 54.6482 83.893 56.9412 84.0646C59.3025 81.3669 63.5511 76.1465 64.0414 74.9549C65.5015 76.5503 68.5889 82.4908 69.915 84.799C72.103 84.6127 72.8196 83.4303 72.8196 83.4303C72.8196 83.4303 70.5482 71.7898 69.3806 67.1903C68.0022 67.1409 66.1664 61.5933 66.1664 61.5933Z" fill="#6791A0"/>
<path d="M64.8435 62.5567C64.8424 62.6144 64.8521 62.6717 64.8722 62.7254C64.8922 62.7792 64.9223 62.8282 64.9606 62.8699C64.9989 62.9115 65.0447 62.9449 65.0954 62.9681C65.146 62.9913 65.2006 63.0039 65.256 63.0052C65.3113 63.0064 65.3663 62.9963 65.4179 62.9754C65.4695 62.9545 65.5166 62.9233 65.5566 62.8834C65.5966 62.8435 65.6286 62.7959 65.6509 62.7431C65.6732 62.6903 65.6853 62.6335 65.6865 62.5759C65.6888 62.4595 65.6467 62.3468 65.5694 62.2627C65.4921 62.1786 65.3858 62.13 65.274 62.1274C65.1623 62.1249 65.0541 62.1687 64.9734 62.2492C64.8926 62.3297 64.8459 62.4404 64.8435 62.5567Z" fill="#8EC4D5"/>
<path d="M60.2312 63.2468C60.2296 63.3333 60.2527 63.4183 60.2975 63.4912C60.3423 63.564 60.4068 63.6215 60.4829 63.6562C60.5589 63.6909 60.6432 63.7014 60.725 63.6863C60.8067 63.6712 60.8824 63.6313 60.9423 63.5715C61.0023 63.5116 61.0439 63.4347 61.0619 63.3502C61.0799 63.2658 61.0735 63.1777 61.0435 63.0971C61.0135 63.0164 60.9612 62.9468 60.8932 62.8971C60.8253 62.8473 60.7447 62.8196 60.6616 62.8175C60.6061 62.8154 60.5507 62.8249 60.4987 62.8455C60.4468 62.866 60.3993 62.8973 60.3592 62.9373C60.319 62.9773 60.287 63.0254 60.265 63.0785C60.243 63.1317 60.2315 63.1889 60.2312 63.2468Z" fill="#8EC4D5"/>
<path d="M65.5308 64.4074L60.6939 65.0132C60.6939 65.0132 61.0166 69.4494 63.787 68.9967C66.5574 68.544 65.5308 64.4074 65.5308 64.4074Z" fill="#F2C94C"/>
<path d="M58.7807 70.7503C58.4531 71.514 57.9458 72.1792 57.3056 72.6842C57.4498 73.0027 57.7484 73.5374 57.7484 73.5374C57.7484 73.5374 59.5262 72.3251 59.7934 70.9849C59.4438 70.9816 59.0987 70.9016 58.7807 70.7503Z" fill="#F2C94C"/>
<path d="M69.0287 70.4596C69.3218 71.2374 69.8012 71.9241 70.4214 72.4542C70.2626 72.7728 69.9495 73.2921 69.9495 73.2921C69.9495 73.2921 68.2269 71.994 68.0164 70.6473C68.3627 70.6581 68.7073 70.5942 69.0287 70.4596Z" fill="#F2C94C"/>
<path d="M72.7822 81.7428C72.7822 81.7428 70.5663 83.1283 68.6727 83.1439C69.0274 83.732 69.4383 84.2815 69.8989 84.7838C69.8989 84.7838 72.0291 84.777 72.9727 83.7215C72.8425 82.3384 72.7822 81.7428 72.7822 81.7428Z" fill="#F2C94C"/>
<path d="M57.9683 83.2557C57.9683 83.2557 55.2047 82.4998 53.921 81.0447C53.6624 81.8337 53.3053 82.7082 53.3053 82.7082C53.3053 82.7082 55.3055 84.7399 56.6861 84.7303C57.5537 83.6949 57.9683 83.2557 57.9683 83.2557Z" fill="#F2C94C"/>
<path d="M13.7044 89.2609C13.351 89.0713 12.6729 89.1663 11.8925 89.9939C11.1121 90.8215 10.1592 92.102 10.8398 93.3007C10.9017 93.4517 11.0002 93.5834 11.1256 93.6831C11.2509 93.7827 11.399 93.8468 11.5552 93.8692C11.7114 93.8915 11.8705 93.8713 12.017 93.8106C12.1634 93.7498 12.2923 93.6506 12.3909 93.5225L13.7044 89.2609Z" fill="#E3DFD8"/>
<path d="M14.8971 89.5929C14.4249 89.3882 13.6336 88.9601 13.0382 89.5853C12.4429 90.2105 10.8139 91.9388 11.5234 93.0985C12.2329 94.2582 13.0079 93.4255 13.4491 92.7978C13.8264 92.3539 14.3034 92.0144 14.8376 91.8095L14.8971 89.5929Z" fill="#F2C94C"/>
<path d="M14.2679 92.3317C14.335 92.029 14.3366 91.7145 14.2727 91.4109C14.2089 91.1074 14.081 90.8224 13.8985 90.5765C13.5829 90.3207 13.3865 90.6038 13.3087 90.7951C13.2055 91.0947 13.5494 91.6109 13.5881 92.2878C13.6268 92.9647 14.1331 92.7185 14.2679 92.3317Z" fill="#E3DFD8"/>
<path d="M12.5424 88.6065C12.6797 88.9948 12.5031 89.6779 11.6037 90.3835C10.7044 91.0891 9.37426 91.9087 8.32061 91.0561C8.17892 90.9743 8.06066 90.8548 7.97798 90.7097C7.89529 90.5647 7.85116 90.3993 7.85011 90.2306C7.84906 90.062 7.89114 89.8961 7.97201 89.75C8.05289 89.6039 8.16965 89.4828 8.31031 89.3993L12.5424 88.6065Z" fill="#E3DFD8"/>
<path d="M12.3617 87.3333C12.4957 87.8607 12.8051 88.7157 12.1384 89.2485C11.4718 89.7813 9.61448 91.2545 8.60047 90.373C7.58646 89.4916 8.46994 88.7761 9.12509 88.4257C9.59463 88.0908 9.9778 87.6407 10.2409 87.1151L12.3617 87.3333Z" fill="#F2C94C"/>
<path d="M9.67154 87.6533C9.96861 87.6213 10.2688 87.6588 10.5502 87.7631C10.8317 87.8674 11.0871 88.0358 11.2981 88.2561C11.5057 88.6139 11.2067 88.7956 11.0138 88.838C10.7243 88.9016 10.2674 88.4876 9.63044 88.3773C8.9935 88.2669 9.28504 87.7274 9.67154 87.6533Z" fill="#E3DFD8"/>
<path d="M15.7364 78.0536C14.0635 78.3782 8.91458 79.006 7.97437 80.4409C7.22523 81.5876 10.0666 87.846 10.0666 87.846C10.0666 87.846 11.6381 88.4785 12.3352 87.4201C12.3219 85.9919 12.186 84.5678 11.929 83.1648C13.4411 83.0648 14.9469 82.8808 16.44 82.6138C16.6 83.5622 18.0329 83.6781 18.4344 83.4909C18.8682 86.0286 18.8559 87.6439 18.5853 88.2945C18.3147 88.9452 14.5723 89.4659 14.5723 89.4659C14.2362 89.7176 14.0015 90.0899 13.9134 90.5112C13.8253 90.9325 13.89 91.3728 14.095 91.7475C16.773 92.9517 20.3002 92.0255 21.6205 91.3188C23.5458 90.2857 24.8115 82.0597 24.8167 78.8517C21.8276 78.236 18.7821 77.9684 15.7364 78.0536Z" fill="#1081A1"/>
<path d="M10.7506 79.2717L14.6809 78.3988L24.4329 78.9739C24.4329 78.9739 24.2903 82.7239 23.5564 85.1101C22.0905 80.8098 15.4611 78.9131 10.7506 79.2717Z" fill="#0D6B85"/>
<path d="M19.4493 66.1631C19.4493 66.1631 23.8778 67.0546 29.5517 60.1382C30.1381 60.3688 30.7289 59.9631 31.3978 59.2697C32.0279 58.9313 32.3907 58.5858 32.2206 58.365C32.0505 58.1442 31.3734 58.5707 31.2079 58.649C31.2079 58.649 31.9819 58.0035 32.1386 57.8508C32.5063 57.4997 32.2347 57.0972 31.8664 57.3307C31.4981 57.5643 30.8751 58.0466 30.8762 58.068C30.8772 58.0893 31.5913 57.2706 31.7179 57.1302C32.0979 56.7196 31.719 56.2212 31.2696 56.6836C30.9667 56.9939 30.4558 57.5611 30.3959 57.5964C30.3361 57.6317 30.6767 57.0468 30.8252 56.7288C31.0599 56.1816 30.6621 55.9248 30.2989 56.4682C30.0118 56.8898 29.2754 57.8808 29.2754 57.8808C29.2754 57.8808 29.0447 57.0591 28.6099 57.1946C28.1751 57.3301 28.6157 58.7607 28.6157 58.7607C28.6157 58.7607 25.5521 64.1691 19.3193 64.2668C18.0081 65.0532 19.4493 66.1631 19.4493 66.1631Z" fill="#FCC7A5"/>
<path d="M21.5111 64.1603C21.5919 64.4447 21.7885 65.0971 21.9594 65.644C22.5416 65.5211 23.1035 65.311 23.6278 65.0203C23.3001 65.0378 22.8752 64.9589 22.7464 64.6396C22.5709 64.2053 23.1448 63.6667 23.3862 63.4614C22.7891 63.7688 22.1599 64.0034 21.5111 64.1603Z" fill="#EBAD86"/>
<path d="M29.6249 58.9313C29.6161 58.9212 29.6109 58.9083 29.6102 58.8946C29.6095 58.881 29.6134 58.8676 29.6212 58.8566C29.6638 58.774 29.6899 58.6833 29.6981 58.59C29.7063 58.4966 29.6964 58.4025 29.669 58.3132C29.6416 58.2239 29.5972 58.1412 29.5385 58.0701C29.4798 57.999 29.408 57.9409 29.3273 57.8993C29.3199 57.8968 29.3131 57.8927 29.3075 57.8871C29.3019 57.8815 29.2976 57.8746 29.2948 57.867C29.2921 57.8594 29.2911 57.8513 29.2919 57.8432C29.2926 57.8352 29.2951 57.8274 29.2992 57.8205C29.3033 57.8136 29.3088 57.8077 29.3154 57.8034C29.3219 57.799 29.3293 57.7963 29.3371 57.7954C29.3448 57.7945 29.3527 57.7954 29.36 57.7981C29.3673 57.8008 29.374 57.8052 29.3794 57.811C29.4718 57.8591 29.554 57.9261 29.621 58.0079C29.688 58.0898 29.7385 58.1849 29.7695 58.2875C29.8005 58.3902 29.8112 58.4982 29.8012 58.6053C29.7912 58.7123 29.7606 58.8162 29.7112 58.9106C29.7106 58.921 29.7068 58.9308 29.7003 58.9388C29.6939 58.9467 29.6852 58.9522 29.6755 58.9545C29.6658 58.9568 29.6556 58.9558 29.6465 58.9516C29.6374 58.9475 29.6298 58.9403 29.6249 58.9313Z" fill="#CE7755"/>
<path d="M13.3865 68.465C9.65675 69.8872 5.59773 70.0853 1.75571 69.0328C1.38119 69.5553 0.677329 69.5448 -0.252159 69.3325C-0.958758 69.3702 -1.43918 69.3103 -1.40684 69.0306C-1.37451 68.7509 -0.590051 68.7303 -0.396538 68.6986C-0.42726 68.7003 -1.38782 68.5858 -1.6004 68.5437C-2.08726 68.4575 -2.0655 67.9644 -1.62922 67.9625C-1.19294 67.9606 -0.430392 68.0161 -0.38943 68.0139L-1.58613 67.6929C-2.10609 67.5603 -2.05024 66.9265 -1.43732 67.0702C-1.02215 67.1602 -0.293681 67.3566 -0.227117 67.353C-0.228704 67.321 -0.755804 67.0444 -1.03696 66.8616C-1.50394 66.5551 -1.31648 66.0907 -0.73385 66.3483C-0.267303 66.5425 0.862735 66.9687 0.862735 66.9687C0.862735 66.9687 0.631769 66.1417 1.07221 66.0165C1.51265 65.8914 1.8721 67.3425 1.8721 67.3425C5.40514 68.3109 9.13957 68.1115 12.5581 66.7717C14.0241 66.7255 13.3865 68.465 13.3865 68.465Z" fill="#FCC7A5"/>
<path d="M10.5543 69.2203L12.5815 68.6897C12.5815 68.6897 13.4908 67.1495 11.9944 67.2027C11.3754 67.3865 10.7467 67.5325 10.1114 67.6401C10.8881 67.5666 11.3418 68.5367 10.5543 69.2203Z" fill="#EBAD86"/>
<path d="M1.03618 68.0821L1.01057 68.0835C0.919851 68.0312 0.840071 67.9605 0.775882 67.8757C0.711693 67.7909 0.664391 67.6936 0.636759 67.5895C0.609127 67.4854 0.601716 67.3767 0.614955 67.2696C0.628195 67.1625 0.661814 67.0593 0.713858 66.9659C0.722945 66.9556 0.735545 66.9495 0.748948 66.9487C0.76235 66.948 0.775494 66.9528 0.78555 66.9621C0.797175 66.9682 0.806413 66.9783 0.811706 66.9907C0.816998 67.003 0.818014 67.0169 0.814582 67.03C0.767713 67.1101 0.736686 67.1992 0.723307 67.292C0.709927 67.3847 0.714469 67.4794 0.736671 67.5703C0.758874 67.6612 0.798285 67.7466 0.852597 67.8215C0.906909 67.8964 0.97502 67.9592 1.05295 68.0063C1.06283 68.0158 1.06875 68.0289 1.06944 68.0429C1.07013 68.0569 1.06554 68.0705 1.05665 68.081C1.04997 68.0828 1.04301 68.0832 1.03618 68.0821Z" fill="#CE7755"/>
<path d="M13.4149 66.0308C13.4149 66.0308 14.468 65.2154 15.138 64.7519C14.9983 64.1906 14.7992 63.6472 14.5443 63.1316L15.8696 62.5262C15.8696 62.5262 16.3627 63.7723 16.4961 64.2891C17.5765 64.2314 18.9898 64.0543 18.9898 64.0543C18.9898 64.0543 20.655 67.093 17.1358 68.0775C16.2198 68.3456 13.7013 67.5606 13.4149 66.0308Z" fill="#FCC7A5"/>
<path d="M15.7297 62.6086L14.6127 63.1708C14.8317 63.5504 15.0069 63.9556 15.1347 64.3779C15.5552 64.2849 15.9648 64.1447 16.3563 63.9598C16.1763 63.4955 15.9669 63.0441 15.7297 62.6086Z" fill="#EBAD86"/>
<path d="M14.43 65.2763C13.9325 65.5969 12.4682 66.4022 11.0307 67.1259C11.5495 67.8573 11.5328 69.0718 11.3563 69.8618C11.943 69.8056 12.5175 69.6541 13.059 69.4127C13.5742 72.5555 13.582 76.0248 12.5425 78.4594C15.0691 80.7516 24.2717 80.7038 26.1359 78.7491C25.5813 75.9506 24.4309 71.0774 21.6312 66.6933C21.5868 66.6262 22.3789 66.4502 22.8548 66.211C22.9013 64.5618 21.7928 63.9474 21.7056 63.7435C20.4753 63.8841 18.1312 64.1323 17.5532 64.1739C18.501 66.1013 15.2854 66.8933 14.43 65.2763Z" fill="#F2C94C"/>
<path d="M13.9861 73.8112C13.904 75.3017 13.6497 76.7765 13.2285 78.2035C15.3223 79.0165 19.7772 81.0614 25.2269 78.6318C25.1613 75.9622 23.8218 72.7619 23.8218 72.7619C23.8218 72.7619 24.7059 77.3392 19.3396 78.5507C13.9732 79.7622 13.9861 73.8112 13.9861 73.8112Z" fill="#F2C94C"/>
<path d="M0.685334 45.3633C-0.341051 49.3048 0.0117067 60.9729 10.502 63.0804C20.9923 65.1878 26.1727 57.4317 27.3335 49.8849C28.7358 40.7909 21.6651 35.5871 15.5653 35.0521C6.04843 34.2506 2.06247 40.1092 0.685334 45.3633Z" fill="#FCC7A5"/>
<path d="M7.01018 54.8999C7.03271 55.8718 5.70694 56.675 4.29059 56.3764C3.68816 56.2919 3.13538 55.9832 2.73433 55.5074C2.33328 55.0315 2.11106 54.4207 2.10868 53.7878C2.14795 52.7164 3.38138 51.8112 4.81242 52.82C6.15271 53.7589 6.98069 53.8911 7.01018 54.8999Z" fill="#F9B09B"/>
<path d="M3.26008 53.5071C3.2487 53.5768 3.21221 53.6394 3.15803 53.682C3.10386 53.7247 3.03609 53.7441 2.96856 53.7365C2.81495 53.7447 2.68086 53.6289 2.68476 53.5004C2.68865 53.3719 2.81728 53.2741 2.97654 53.2763C3.04317 53.2697 3.10971 53.2899 3.16246 53.3329C3.21521 53.3758 3.25015 53.4382 3.26008 53.5071Z" fill="#FCD3C5"/>
<path d="M11.2595 51.7486C11.2656 51.8712 11.1065 51.976 10.9217 51.9751C10.7368 51.9743 10.5879 51.87 10.5867 51.7418C10.5854 51.6135 10.7397 51.5144 10.9245 51.5152C11.1094 51.516 11.2637 51.6254 11.2595 51.7486Z" fill="#FEE2D1"/>
<path d="M22.5713 54.6996C22.514 56.0285 21.2967 56.949 19.6429 57.0373C17.989 57.1256 16.4176 55.873 16.7006 54.6443C16.9836 53.4156 17.8434 53.8775 19.7077 53.1685C21.5721 52.4594 22.6033 53.3774 22.5713 54.6996Z" fill="#F9B09B"/>
<path d="M21.4392 54.0169C21.4266 54.0825 21.3903 54.1407 21.3378 54.1793C21.2853 54.2179 21.2205 54.234 21.1569 54.2244C21.0084 54.2324 20.8897 54.1157 20.8941 53.9979C20.9119 53.9357 20.949 53.8815 20.9996 53.8436C21.0502 53.8057 21.1114 53.7864 21.1736 53.7886C21.2359 53.7907 21.2957 53.8143 21.3438 53.8556C21.3918 53.8969 21.4254 53.9536 21.4392 54.0169Z" fill="#FCD3C5"/>
<path d="M5.22563 44.5861C6.63075 43.9337 7.1679 45.5516 6.20086 45.7209C5.15623 45.8783 4.33518 46.4033 4.17708 46.3208C3.88621 46.1493 4.44378 44.97 5.22563 44.5861Z" fill="#312B27"/>
<path d="M19.139 46.2433C17.7775 45.4981 17.1274 47.0886 18.093 47.3043C19.1311 47.5322 19.9096 48.1161 20.06 48.0439C20.3905 47.8766 19.9042 46.6622 19.139 46.2433Z" fill="#312B27"/>
<path d="M8.36406 54.6513C8.36406 54.6513 8.29123 60.4291 12.2219 60.5988C16.1526 60.7684 15.1659 55.1594 15.1659 55.1594C15.1659 55.1594 12.387 56.1632 8.36406 54.6513Z" fill="#4C1F1C"/>
<path d="M12.0889 55.4465C12.3126 56.8513 12.913 58.8134 14.5364 59.5607C15.6646 57.9821 15.1645 55.1432 15.1645 55.1432C14.1643 55.4313 13.1233 55.534 12.0889 55.4465Z" fill="#321614"/>
<path d="M9.8289 59.4541C10.1318 59.8296 10.5112 60.1302 10.9396 60.3339C11.368 60.5376 11.8345 60.6393 12.3053 60.6316C14.2503 60.7202 14.9819 59.3232 15.1567 57.9826C14.9658 57.8096 14.7249 57.7078 14.4723 57.6932C14.2196 57.6786 13.9695 57.7521 13.7615 57.9021C12.9866 56.8743 10.6546 57.9879 9.8289 59.4541Z" fill="#ED756D"/>
<path d="M14.4774 57.9441C14.3391 57.909 14.1953 57.9042 14.0552 57.9301C13.9151 57.956 13.7817 58.012 13.6635 58.0945C13.5562 57.9375 13.4075 57.8164 13.2354 57.7458C13.0633 57.6753 12.8752 57.6584 12.694 57.6972C11.2519 57.8117 9.70723 59.5836 11.596 60.0922C13.4848 60.6007 15.6181 58.2735 14.4774 57.9441Z" fill="#F58F88"/>
<path d="M11.5595 58.4259C11.819 58.0699 12.5536 57.7687 12.7885 57.9486C13.0233 58.1285 12.4577 58.6292 12.0372 58.7426C11.6167 58.8559 11.3706 58.6552 11.5595 58.4259Z" fill="#F8B1AE"/>
<path d="M9.55955 55.0471C9.47193 55.6613 9.61246 56.1135 10.4088 56.333C11.2371 56.5513 12.0941 56.6265 12.9457 56.5557C13.8135 56.4558 14.1971 56.013 14.0859 55.4255C12.5675 55.5276 11.0429 55.4002 9.55955 55.0471Z" fill="white"/>
<path d="M11.0035 53.3179C11.0179 53.317 11.0318 53.3117 11.0432 53.3025C11.0547 53.2933 11.0632 53.2807 11.0677 53.2663C11.0713 53.2571 11.073 53.2472 11.0726 53.2372C11.0722 53.2272 11.0698 53.2174 11.0655 53.2085C11.0611 53.1996 11.055 53.1918 11.0475 53.1856C11.0399 53.1794 11.0313 53.1749 11.022 53.1726C10.8141 53.1192 10.6303 52.9927 10.5017 52.8145C10.3731 52.6362 10.3076 52.4172 10.3163 52.1945C10.3139 52.0034 10.3688 51.8164 10.4732 51.6594C10.5777 51.5024 10.7266 51.3833 10.8992 51.3186C11.2337 51.2312 11.5843 51.4691 11.8875 51.9929C11.9014 52.0049 11.9191 52.0111 11.9372 52.0101C11.9552 52.0092 11.9722 52.0012 11.9848 51.9877C12.0005 51.9768 12.0117 51.9603 12.0165 51.9413C12.0212 51.9224 12.0191 51.9022 12.0105 51.8848C11.5559 51.1018 11.0929 51.0837 10.8598 51.1443C10.6575 51.2174 10.4823 51.3546 10.3588 51.5366C10.2352 51.7187 10.1695 51.9365 10.1708 52.1595C10.1635 52.4144 10.239 52.6645 10.3852 52.8692C10.5314 53.0739 10.7397 53.2212 10.9763 53.2873L11.0035 53.3179Z" fill="#CE7755"/>
<path d="M8.15165 48.6212C8.27921 49.0677 8.27852 49.5433 8.14966 49.9893C8.02079 50.4353 7.76939 50.8323 7.42645 51.1312C7.08351 51.4302 6.66403 51.6181 6.21971 51.6717C5.77539 51.7253 5.32567 51.6424 4.92598 51.4331C4.52629 51.2238 4.19412 50.8973 3.9704 50.4939C3.74669 50.0904 3.64122 49.6276 3.66699 49.1626C3.69277 48.6976 3.84866 48.2506 4.11545 47.8768C4.38225 47.503 4.74828 47.2188 5.16843 47.0591C5.46269 46.9566 5.77353 46.9158 6.08305 46.939C6.39256 46.9621 6.69463 47.0488 6.9719 47.194C7.24917 47.3391 7.49615 47.54 7.69862 47.7849C7.90109 48.0299 8.05505 48.3141 8.15165 48.6212Z" fill="#EBAD86"/>
<path d="M7.39434 51.0407C8.14798 51.1235 8.31983 51.4832 7.77785 51.8382C7.06019 52.2319 6.24861 52.4015 5.44051 52.3266C4.68687 52.2439 4.51501 51.8842 5.05699 51.5291C5.77465 51.1355 6.58624 50.9659 7.39434 51.0407Z" fill="#EBAD86"/>
<path d="M7.90817 48.6716C8.036 49.1142 8.03656 49.586 7.90978 50.0288C7.783 50.4716 7.53442 50.8659 7.19477 51.1632C6.85511 51.4604 6.43925 51.6475 5.99855 51.7013C5.55784 51.7552 5.11161 51.6734 4.71495 51.4661C4.31829 51.2588 3.98859 50.9351 3.76657 50.5349C3.54455 50.1347 3.43995 49.6756 3.46567 49.2143C3.49138 48.753 3.6463 48.3097 3.91128 47.9391C4.17627 47.5686 4.53972 47.287 4.95673 47.1292C5.54445 46.9286 6.18455 46.9782 6.73745 47.2672C7.29035 47.5561 7.71119 48.061 7.90817 48.6716Z" fill="white"/>
<path d="M7.65834 48.915C7.56963 48.6675 7.43825 48.439 7.27066 48.2406C7.34591 48.3634 7.40754 48.4946 7.45434 48.6318C7.65499 49.1578 7.647 49.7451 7.43213 50.2648C7.21726 50.7845 6.81307 51.1941 6.30834 51.4036C6.01137 51.5119 5.69366 51.5441 5.38214 51.4975C5.07063 51.4508 4.77446 51.3267 4.51873 51.1356C4.77537 51.4086 5.10111 51.6001 5.45807 51.688C5.81503 51.7759 6.18856 51.7565 6.53528 51.632C7.02921 51.4256 7.42455 51.0239 7.63496 50.5149C7.84538 50.0058 7.85379 49.4306 7.65834 48.915Z" fill="#DADBDC"/>
<path d="M7.41141 49.7408C7.38978 49.9902 7.29846 50.2274 7.14874 50.4233C6.99902 50.6192 6.79746 50.7651 6.56896 50.8429C6.34046 50.9208 6.09503 50.9272 5.863 50.8615C5.63098 50.7957 5.42253 50.6605 5.2634 50.4728C5.10427 50.285 5.00143 50.0528 4.96761 49.8049C4.93379 49.557 4.97047 49.3042 5.07309 49.0778C5.17572 48.8514 5.3398 48.6612 5.54507 48.5309C5.75034 48.4006 5.9878 48.3358 6.22811 48.3445C6.39396 48.3549 6.55621 48.3993 6.70555 48.4752C6.85489 48.551 6.98837 48.6569 7.09833 48.7866C7.20828 48.9164 7.29254 49.0675 7.34627 49.2312C7.39999 49.395 7.42214 49.5681 7.41141 49.7408Z" fill="#8F7B70"/>
<path d="M6.91101 49.7781C6.89782 49.9277 6.84283 50.07 6.75284 50.1874C6.66284 50.3048 6.54179 50.3921 6.40464 50.4386C6.26748 50.4851 6.12023 50.4888 5.98107 50.4491C5.84192 50.4094 5.71696 50.3282 5.62164 50.2154C5.52631 50.1026 5.4648 49.9632 5.44469 49.8145C5.42459 49.6657 5.44678 49.5141 5.50851 49.3783C5.57025 49.2425 5.66884 49.1286 5.79208 49.0506C5.91533 48.9726 6.05784 48.9338 6.20201 48.9392C6.40232 48.954 6.589 49.0503 6.72168 49.2073C6.85437 49.3643 6.92239 49.5694 6.91101 49.7781Z" fill="#231F20"/>
<path d="M6.08962 49.2712C6.08985 49.3152 6.08163 49.3588 6.06548 49.3995C6.04933 49.4402 6.02555 49.4771 5.99553 49.508C5.96552 49.539 5.92987 49.5634 5.89068 49.5799C5.85149 49.5964 5.80954 49.6045 5.76728 49.6039C5.67999 49.6007 5.59745 49.5616 5.53783 49.4951C5.47821 49.4286 5.44638 49.3402 5.44936 49.2493C5.45234 49.1584 5.48988 49.0724 5.55371 49.0104C5.61755 48.9483 5.70245 48.9152 5.78975 48.9183C5.83177 48.9207 5.87292 48.9318 5.91081 48.9509C5.9487 48.97 5.98258 48.9967 6.01047 49.0295C6.03837 49.0624 6.05973 49.1006 6.07332 49.1421C6.0869 49.1836 6.09245 49.2275 6.08962 49.2712Z" fill="white"/>
<path d="M6.88431 50.2875C6.88433 50.314 6.87925 50.3402 6.86936 50.3646C6.85947 50.3889 6.84496 50.411 6.82672 50.4294C6.80848 50.4478 6.78688 50.4623 6.76318 50.4718C6.73947 50.4814 6.71416 50.4859 6.68875 50.4851C6.64861 50.4859 6.60913 50.4742 6.57548 50.4513C6.54183 50.4285 6.51558 50.3956 6.5001 50.357C6.48463 50.3185 6.48066 50.2759 6.48874 50.2349C6.49681 50.194 6.51653 50.1565 6.54535 50.1274C6.57417 50.0983 6.61074 50.0789 6.6503 50.0717C6.68986 50.0646 6.73058 50.07 6.76715 50.0872C6.80373 50.1045 6.83447 50.1329 6.85536 50.1686C6.87626 50.2043 6.88634 50.2457 6.88431 50.2875Z" fill="white"/>
<path d="M19.6856 51.368C19.7177 51.3535 19.7443 51.3284 19.7613 51.2965C19.7783 51.2647 19.7847 51.2279 19.7796 51.1919C19.5511 49.4826 18.2081 48.4904 17.0859 48.6359C16.3515 48.7339 15.6276 49.3553 15.7887 50.8437C15.7905 50.8665 15.7966 50.8888 15.8068 50.9091C15.817 50.9294 15.8311 50.9474 15.8481 50.9619C15.8651 50.9765 15.8847 50.9873 15.9059 50.9938C15.927 51.0003 15.9491 51.0023 15.971 50.9997C16.0133 50.9922 16.0514 50.9687 16.0781 50.9337C16.1048 50.8988 16.1181 50.8548 16.1156 50.8102C16.0026 49.7737 16.3794 49.0906 17.1243 48.9974C18.0833 48.8713 19.246 49.7502 19.4494 51.263C19.4518 51.2851 19.4584 51.3065 19.4689 51.3259C19.4794 51.3454 19.4936 51.3624 19.5106 51.3759C19.5275 51.3895 19.547 51.3994 19.5677 51.4049C19.5884 51.4105 19.61 51.4116 19.6312 51.4083C19.6525 51.4004 19.6714 51.3864 19.6856 51.368Z" fill="#3F3733"/>
<path d="M26.1895 53.2285C25.9251 50.7746 25.371 48.3639 24.5398 46.0511C18.9004 46.208 7.98877 42.8506 3.44785 40.003C2.16326 42.5683 0.422704 49.7077 0.370565 50.4162C-0.90773 46.8971 -2.95308 38.6769 0.852532 32.5981C7.61931 28.0505 23.9472 29.8568 28.6541 34.1872C31.6313 38.7329 29.3931 49.5022 26.1895 53.2285Z" fill="#3C3531"/>
<path d="M2.64664 40.6072C2.64664 40.6072 0.969348 46.1232 0.257871 48.7542C-0.922779 42.8562 -0.644226 40.088 -0.644226 40.088C-0.644226 40.088 -0.0735945 44.7622 2.64664 40.6072Z" fill="#312B27"/>
<path d="M24.9474 44.5271C26.7966 48.1707 28.3801 46.9741 29.2606 41.7465C29.3303 45.2943 28.4182 48.7876 26.6331 51.8095C26.3863 49.2137 24.9474 44.5271 24.9474 44.5271Z" fill="#312B27"/>
<path d="M28.0476 33.7438C27.9407 33.6586 27.8238 33.5793 27.712 33.4998L27.5421 33.3859L27.0552 33.0911L26.7912 32.9448L26.5065 32.7943L26.1642 32.6201L25.9541 32.5244C25.6666 32.3865 25.3622 32.2531 25.0409 32.1241C20.4591 32.9035 11.7258 32.7872 6.75734 30.4276C4.66327 30.7407 2.64866 31.4786 0.827641 32.5995C0.0814788 33.8096 -0.476537 35.1349 -0.825802 36.5264C9.55941 34.213 20.3854 35.4497 30.0444 40.0527C30.0452 39.4988 30.0178 38.9452 29.9621 38.3944C29.9621 38.3944 29.96 38.3517 29.9589 38.3304C29.9473 38.0958 29.9001 37.8684 29.8685 37.6456L29.8621 37.5176C29.82 37.2899 29.7779 37.0623 29.7261 36.8459C29.7261 36.8459 29.7246 36.8139 29.7235 36.7925C29.6658 36.5604 29.6029 36.3285 29.5353 36.1022L29.4995 36.0026C29.4444 35.8237 29.3794 35.6508 29.3143 35.4778C29.3112 35.4139 29.2622 35.3577 29.2385 35.2948C29.1807 35.1521 29.1156 35.0128 29.0433 34.8775C29.0196 34.8204 28.9929 34.7647 28.9631 34.7107C28.8675 34.5325 28.763 34.3596 28.65 34.1928C28.5207 34.0714 28.3815 33.9559 28.2318 33.8356L28.0476 33.7438Z" fill="#4B433E"/>
<path d="M25.1693 51.9038C25.4162 51.4211 25.8061 51.0344 26.2811 50.8009C26.756 50.5675 27.2906 50.4999 27.8055 50.6082C29.7353 51.013 29.5676 53.9463 27.9837 55.3408C26.3997 56.7352 24.2373 56.3001 24.0656 54.7L25.1693 51.9038Z" fill="#FCC7A5"/>
<path d="M27.559 50.7175C27.1645 50.6307 26.755 50.6525 26.3711 50.781C26.6471 50.6864 26.9424 50.6706 27.2262 50.7353C29.0192 51.1741 28.6215 53.4034 27.66 54.5133C26.3638 56.0153 24.6389 55.7065 24.0658 54.5021C24.2217 55.9908 26.2494 56.401 27.7352 55.0974C29.221 53.7937 29.3693 51.0913 27.559 50.7175Z" fill="#EBAD86"/>
<path d="M27.9015 51.5012C26.7849 50.8284 24.96 53.059 26.1531 54.9627C26.0513 52.9098 26.9037 52.5007 27.475 53.6678C27.6612 53.0751 27.4887 52.5978 26.74 52.4079C26.8531 52.1736 27.0169 51.9698 27.2184 51.8124C27.4199 51.6551 27.6537 51.5486 27.9015 51.5012Z" fill="#EBAD86"/>
<path d="M-1.32908 41.2847C1.23625 37.9399 16.883 31.7044 29.9292 43.5285C30.0749 45.4386 29.6059 47.3446 28.5961 48.946C28.5961 48.946 14.9081 37.0172 -0.911825 46.5926C-1.97913 44.2224 -1.32908 41.2847 -1.32908 41.2847Z" fill="#F2C94C"/>
<path d="M-0.934334 41.4988C-0.934334 41.4988 2.38408 38.8463 5.28446 38.531C2.55514 40.3287 -0.867635 42.2224 -0.0321391 43.231C0.803357 44.2395 4.19649 40.92 9.83936 42.2813C6.66591 42.6807 2.71062 43.464 -0.648087 45.7178C-1.07187 44.3566 -1.17014 42.9083 -0.934334 41.4988Z" fill="#F2C94C"/>
</g>
</svg>
