<svg width="67" height="69" viewBox="0 0 67 69" fill="none" xmlns="http://www.w3.org/2000/svg">
<path d="M40.5404 25.9741C45.9366 25.9741 50.3112 21.469 50.3112 15.9116C50.3112 10.3543 45.9366 5.84912 40.5404 5.84912C35.1441 5.84912 30.7695 10.3543 30.7695 15.9116C30.7695 21.469 35.1441 25.9741 40.5404 25.9741Z" fill="#F54646"/>
<path d="M26.5975 25.9741C31.9938 25.9741 36.3683 21.469 36.3683 15.9116C36.3683 10.3543 31.9938 5.84912 26.5975 5.84912C21.2012 5.84912 16.8267 10.3543 16.8267 15.9116C16.8267 21.469 21.2012 25.9741 26.5975 25.9741Z" fill="#08213D"/>
<path d="M67.0002 58.9375L66.3553 55.5737C65.7202 50.8889 62.2488 47.4375 58.1716 47.4375H46.649C42.5717 47.4375 39.1003 50.8889 38.4652 55.5737L37.8203 58.9375H67.0002Z" fill="#F54646"/>
<path d="M52.4095 50.3397C48.2025 50.3397 44.6584 47.1025 44.1573 42.8L43.7498 38.7736C43.1272 33.4261 47.1807 28.7197 52.4109 28.7197C57.6411 28.7197 61.6946 33.4261 61.072 38.7736L60.6645 42.8C60.162 47.1025 56.6179 50.3397 52.4095 50.3397Z" fill="white"/>
<path d="M59.9387 43.4182H44.8818C43.7247 43.4182 42.7881 42.4537 42.7881 41.262C42.7881 40.0703 43.7247 39.1057 44.8818 39.1057H59.9401C61.0972 39.1057 62.0338 40.0703 62.0338 41.262C62.0338 42.4537 61.0958 43.4182 59.9387 43.4182Z" fill="white"/>
<path d="M29.1799 58.9375L28.535 55.5737C27.8999 50.8889 24.4285 47.4375 20.3512 47.4375H8.82865C4.75142 47.4375 1.27998 50.8889 0.644875 55.5737L0 58.9375H29.1799Z" fill="#08213D"/>
<path d="M22.1184 43.4182H7.06152C5.90438 43.4182 4.96777 42.4537 4.96777 41.262C4.96777 40.0703 5.90438 39.1057 7.06152 39.1057H22.1198C23.2769 39.1057 24.2135 40.0703 24.2135 41.262C24.2135 42.4537 23.2755 43.4182 22.1184 43.4182Z" fill="white"/>
<path d="M14.5907 50.3397C10.3836 50.3397 6.8396 47.1025 6.33849 42.8L5.93091 38.7736C5.30837 33.4261 9.36187 28.7197 14.5921 28.7197C19.8222 28.7197 23.8757 33.4261 23.2532 38.7736L22.8456 42.8C22.3417 47.1025 18.7977 50.3397 14.5907 50.3397Z" fill="white"/>
<path d="M14.5907 28.7197C12.825 28.7197 11.2002 29.266 9.83789 30.1817C10.1617 32.6168 12.1689 34.4999 14.6228 34.4999C17.0627 34.4999 19.063 32.6398 19.4049 30.2248C18.03 29.2818 16.383 28.7197 14.5907 28.7197Z" fill="#08213D"/>
<path d="M52.2782 28.7197C50.5125 28.7197 48.8877 29.266 47.5254 30.1817C47.8492 32.6168 49.8564 34.4999 52.3103 34.4999C54.7502 34.4999 56.7505 32.6398 57.0924 30.2248C55.7175 29.2818 54.0705 28.7197 52.2782 28.7197Z" fill="#F54646"/>
<path d="M36.049 13.3616C35.6009 11.6007 34.7258 10.0712 33.5686 8.85938C32.4115 10.0698 31.5363 11.5993 31.0882 13.3616C30.1851 16.9137 31.2418 20.5189 33.5686 22.9641C35.8955 20.5189 36.9535 16.9137 36.049 13.3616Z" fill="#08213D"/>
<path d="M45.9939 28.3749L39.1348 24.3484L45.9506 20.2429L45.9939 28.3749Z" fill="#F54646"/>
<path d="M21.0713 28.3749L27.9304 24.3484L21.1146 20.2429L21.0713 28.3749Z" fill="#08213D"/>
</svg>
