<svg width="87" height="88" viewBox="0 0 87 88" fill="none" xmlns="http://www.w3.org/2000/svg">
<path d="M25.711 33.5843C25.711 33.5843 32.2527 32.3778 37.1689 40.9327C36.123 42.7726 28.9318 46.8569 26.4051 46.9515C21.7518 47.1244 22.3633 34.3689 25.711 33.5843Z" fill="#DA9C2D"/>
<path d="M25.2687 33.8089C25.2687 33.8089 28.2404 33.4182 31.5283 35.6003C34.116 37.317 40.4601 45.867 38.7897 52.2373C38.1217 54.7846 27.5804 60.6964 22.6742 57.673C17.7681 54.6496 21.0231 33.5706 25.2687 33.8089Z" fill="#DA9C2D"/>
<path d="M22.201 36.5983C19.3679 41.8193 18.089 54.6595 22.0022 57.0694C23.8522 58.2093 24.977 57.6916 28.8099 57.4471C32.372 56.5417 32.7976 55.2456 33.3464 54.3839C34.762 52.1644 27.9716 40.7348 25.8463 38.4674C24.7787 37.3275 23.3538 36.821 22.201 36.5983Z" fill="#DA9C2D"/>
<path d="M32.6113 45.0132C32.6113 45.0132 36.2852 43.0339 37.2988 43.0843C38.3123 43.1347 40.1026 47.2464 39.4613 48.4647C38.82 49.683 35.0212 52.1706 32.6113 45.0132Z" fill="#E94F32"/>
<path d="M25.0774 62.3066C25.0774 62.3066 24.9214 80.5925 25.0234 82.4175C23.8184 82.7286 23.0596 83.797 23.0596 83.797L22.5625 63.3196L25.0774 62.3066Z" fill="#FBCDAD"/>
<path d="M22.7122 83.0031C22.476 83.5288 22.0497 84.1504 23.6803 85.6848C24.8666 86.8048 26.5234 87.4028 28.0161 86.9442C29.5796 86.4638 28.8643 84.8367 28.8643 84.8367L22.7122 83.0031Z" fill="#E94F32"/>
<path d="M22.7404 81.1171C22.5857 81.5128 22.3265 82.4772 22.7615 83.2892C24.5115 85.3693 25.7661 86.5516 27.9815 85.9436C29.7215 85.4676 28.5626 83.9899 27.6466 83.4037C26.7306 82.8176 24.9844 81.1861 24.9844 81.1861C24.9844 81.1861 24.3058 81.8768 22.7404 81.1171Z" fill="#DA9C2D"/>
<path d="M24.9887 81.1861C25.3578 80.656 25.1701 80.2049 24.0602 80.2708C23.2884 80.3169 22.5228 80.6442 23.3313 81.3467C23.5892 81.6142 24.6779 81.557 24.9887 81.1861Z" fill="#DA9C2D"/>
<path d="M24.0808 82.5725C24.1097 82.5725 24.1382 82.5656 24.1638 82.5522C24.1894 82.5389 24.2115 82.5196 24.2281 82.4959C24.5102 82.0915 25.1776 81.786 25.8059 81.9751C25.8285 81.9819 25.8522 81.9842 25.8757 81.9818C25.8992 81.9794 25.9219 81.9724 25.9427 81.9612C25.9635 81.95 25.9818 81.9348 25.9968 81.9164C26.0117 81.8981 26.0228 81.8771 26.0296 81.8544C26.0364 81.8318 26.0386 81.808 26.0362 81.7845C26.0338 81.761 26.0268 81.7382 26.0157 81.7174C26.0045 81.6966 25.9893 81.6782 25.971 81.6633C25.9527 81.6484 25.9316 81.6372 25.909 81.6304C25.0956 81.3859 24.284 81.7872 23.9335 82.29C23.9148 82.3169 23.9038 82.3485 23.9017 82.3813C23.8997 82.414 23.9066 82.4467 23.9218 82.4759C23.9369 82.505 23.9598 82.5294 23.9878 82.5464C24.0158 82.5634 24.048 82.5724 24.0808 82.5725V82.5725Z" fill="#E6E5E5"/>
<path d="M24.7643 83.1691C24.7932 83.1692 24.8218 83.1622 24.8474 83.1487C24.8731 83.1353 24.8951 83.1158 24.9115 83.0919C25.1937 82.6875 25.8605 82.3826 26.4893 82.5718C26.535 82.5855 26.5842 82.5804 26.6262 82.5578C26.6681 82.5352 26.6994 82.4968 26.7131 82.451C26.7267 82.4053 26.7217 82.3561 26.6991 82.314C26.6765 82.272 26.6382 82.2407 26.5925 82.227C25.7784 81.9819 24.9675 82.3832 24.617 82.886C24.5983 82.913 24.5874 82.9446 24.5853 82.9774C24.5833 83.0102 24.5902 83.0429 24.6053 83.072C24.6205 83.1011 24.6433 83.1256 24.6713 83.1427C24.6993 83.1598 24.7315 83.1689 24.7643 83.1691V83.1691Z" fill="#E6E5E5"/>
<path d="M25.4478 83.7652C25.4767 83.7653 25.5052 83.7583 25.5308 83.745C25.5565 83.7317 25.5785 83.7124 25.5951 83.6887C25.8772 83.2842 26.544 82.9787 27.1723 83.1679C27.1949 83.1747 27.2186 83.177 27.2421 83.1746C27.2656 83.1723 27.2884 83.1653 27.3092 83.1541C27.33 83.143 27.3484 83.1278 27.3634 83.1095C27.3783 83.0912 27.3895 83.0701 27.3963 83.0475C27.4031 83.0248 27.4054 83.0011 27.4031 82.9776C27.4007 82.9541 27.3938 82.9312 27.3826 82.9104C27.3714 82.8896 27.3563 82.8711 27.338 82.8562C27.3197 82.8412 27.2987 82.83 27.2761 82.8232C26.462 82.578 25.651 82.98 25.3005 83.4827C25.2736 83.5216 25.263 83.5697 25.2713 83.6163C25.2796 83.6629 25.306 83.7044 25.3447 83.7316C25.3748 83.753 25.4108 83.7648 25.4478 83.7652V83.7652Z" fill="#E6E5E5"/>
<path d="M15.8643 62.3066C15.8643 62.3066 16.0196 80.5925 15.9183 82.4175C17.1233 82.7286 17.8814 83.797 17.8814 83.797L18.3786 63.3196L15.8643 62.3066Z" fill="#FBCDAD"/>
<path d="M18.2292 83.0031C18.4659 83.5288 18.8922 84.1504 17.2616 85.6848C16.0753 86.8048 14.4179 87.4028 12.9253 86.9442C11.3618 86.4638 12.0776 84.8367 12.0776 84.8367L18.2292 83.0031Z" fill="#E94F32"/>
<path d="M18.2017 81.1171C18.3558 81.5128 18.615 82.4772 18.1806 83.2892C16.4306 85.3693 15.1754 86.5516 12.9569 85.9436C11.2169 85.4676 12.3758 83.9899 13.2918 83.4037C14.2078 82.8176 15.954 81.1861 15.954 81.1861C15.954 81.1861 16.6332 81.8768 18.2017 81.1171Z" fill="#DA9C2D"/>
<path d="M15.9539 81.1861C15.5853 80.656 15.773 80.2049 16.8823 80.2708C17.6547 80.3169 18.4203 80.6442 17.6118 81.3467C17.3521 81.6142 16.2658 81.557 15.9539 81.1861Z" fill="#DA9C2D"/>
<path d="M16.8611 82.5725C16.8321 82.5726 16.8035 82.5657 16.7777 82.5524C16.752 82.5391 16.7298 82.5197 16.7132 82.4959C16.431 82.0915 15.7642 81.786 15.136 81.9751C15.0903 81.9889 15.0411 81.984 14.9991 81.9614C14.957 81.9388 14.9257 81.9004 14.9119 81.8547C14.8982 81.809 14.9031 81.7597 14.9257 81.7176C14.9482 81.6756 14.9865 81.6442 15.0322 81.6304C15.8463 81.3859 16.6579 81.7872 17.0077 82.29C17.0266 82.3168 17.0378 82.3484 17.04 82.3812C17.0422 82.414 17.0354 82.4468 17.0203 82.4759C17.0051 82.5051 16.9823 82.5295 16.9542 82.5465C16.9261 82.5636 16.8939 82.5725 16.8611 82.5725V82.5725Z" fill="#E6E5E5"/>
<path d="M16.1775 83.1691C16.1484 83.1692 16.1198 83.1622 16.094 83.1487C16.0683 83.1353 16.0461 83.1158 16.0296 83.0919C15.7481 82.6875 15.0813 82.3826 14.4524 82.5718C14.4298 82.5786 14.406 82.5809 14.3826 82.5785C14.3591 82.5762 14.3363 82.5692 14.3155 82.558C14.2734 82.5354 14.2421 82.4971 14.2284 82.4514C14.2146 82.4056 14.2195 82.3563 14.2421 82.3143C14.2646 82.2722 14.3029 82.2408 14.3486 82.227C15.1627 81.9819 15.9743 82.3832 16.3247 82.886C16.3434 82.913 16.3544 82.9446 16.3564 82.9774C16.3585 83.0102 16.3515 83.0429 16.3364 83.072C16.3212 83.1011 16.2984 83.1256 16.2704 83.1427C16.2424 83.1598 16.2103 83.1689 16.1775 83.1691V83.1691Z" fill="#E6E5E5"/>
<path d="M15.4939 83.7652C15.4649 83.7652 15.4364 83.7583 15.4106 83.7449C15.3849 83.7316 15.3627 83.7123 15.346 83.6887C15.0645 83.2842 14.3977 82.9787 13.7688 83.1679C13.7231 83.1817 13.6739 83.1767 13.6319 83.1541C13.5899 83.1316 13.5585 83.0932 13.5448 83.0475C13.531 83.0018 13.5359 82.9525 13.5585 82.9104C13.581 82.8683 13.6194 82.837 13.665 82.8232C14.4791 82.578 15.2907 82.98 15.6411 83.4827C15.6599 83.5097 15.6709 83.5413 15.6729 83.574C15.675 83.6068 15.6681 83.6395 15.6529 83.6686C15.6377 83.6977 15.6149 83.7221 15.5869 83.7391C15.5588 83.7562 15.5267 83.7652 15.4939 83.7652V83.7652Z" fill="#E6E5E5"/>
<path d="M21.4011 51.582C21.3862 51.582 16.5539 51.9006 13.3045 51.5198C13.4747 53.692 12.7408 62.0204 12.1523 66.3716C12.9807 67.4916 18.8147 68.0236 19.6716 67.4132C19.7729 64.9019 19.8705 58.6237 20.8275 58.5826C21.6646 58.5472 21.6024 64.8833 22.0312 67.2396C23.0684 67.8388 28.6022 67.57 29.172 66.6342C28.7731 62.4578 28.3828 52.6734 28.2306 50.4502C25.0737 51.3033 21.416 51.5777 21.4011 51.582Z" fill="#8296CC"/>
<path d="M29.3635 63.7876C29.3635 63.7876 29.7265 66.8035 29.4257 67.0854C28.9 67.5788 24.8389 68.3628 21.6404 67.87C21.4149 66.9367 21.5615 64.7626 21.5615 64.7626C21.5615 64.7626 27.2395 65.2592 29.3635 63.7876Z" fill="#546699"/>
<path d="M12.1665 63.7876C12.1665 63.7876 11.8042 66.8035 12.1043 67.0854C12.6301 67.5788 16.6917 68.3628 19.8896 67.87C20.1158 66.9367 19.9685 64.7626 19.9685 64.7626C19.9685 64.7626 14.2912 65.2592 12.1665 63.7876Z" fill="#546699"/>
<path d="M27.8845 56.6444C27.5918 56.6963 27.2914 56.6862 27.0028 56.6149C26.7142 56.5436 26.4436 56.4126 26.2086 56.2304C25.9735 56.0481 25.7792 55.8186 25.638 55.5567C25.4968 55.2947 25.4119 55.0061 25.3888 54.7093C25.3609 54.3914 25.8555 54.3546 25.886 54.6732C25.9045 54.9051 25.9721 55.1304 26.0842 55.3342C26.1963 55.5379 26.3504 55.7155 26.5363 55.8551C26.7222 55.9946 26.9356 56.093 27.1624 56.1437C27.3891 56.1944 27.624 56.1963 27.8516 56.1491C27.9833 56.1255 28.1076 56.2549 28.1169 56.3787C28.1275 56.5237 28.02 56.6201 27.8876 56.6444H27.8845Z" fill="#546699"/>
<path d="M16.8951 54.8001C16.6987 55.8106 15.7516 56.6139 14.7201 56.6208C14.6549 56.6241 14.591 56.6022 14.5416 56.5595C14.4921 56.5169 14.461 56.4568 14.4547 56.3918C14.4501 56.3261 14.4716 56.2613 14.5146 56.2115C14.5576 56.1617 14.6185 56.131 14.684 56.1261C15.4975 56.1205 16.2525 55.5107 16.4091 54.7037C16.4712 54.3926 16.9566 54.4859 16.8957 54.8001H16.8951Z" fill="#546699"/>
<path d="M21.6487 53.3062C21.6642 54.5202 21.755 55.7279 21.8258 56.9388C21.8264 56.947 21.8254 56.9552 21.8229 56.9629C21.8203 56.9707 21.8162 56.9779 21.8109 56.9841C21.8056 56.9904 21.7991 56.9955 21.7918 56.9991C21.7844 57.0028 21.7765 57.0051 21.7683 57.0057C21.7602 57.0063 21.752 57.0053 21.7442 57.0027C21.7364 57.0002 21.7292 56.9961 21.723 56.9907C21.7168 56.9854 21.7117 56.9789 21.708 56.9716C21.7043 56.9643 21.7021 56.9563 21.7015 56.9481C21.6307 55.7373 21.5399 54.5289 21.5244 53.3156C21.5244 53.2359 21.6487 53.2266 21.6487 53.3062V53.3062Z" fill="#546699"/>
<path d="M20.3498 53.4188C20.2398 53.8637 20.2703 54.3621 20.3293 54.812C20.4039 55.3819 20.5673 55.9979 20.9569 56.4372C21.1682 56.679 21.459 56.8371 21.7766 56.8827C21.8555 56.8939 21.8313 57.0159 21.7524 57.0071C20.4691 56.8205 20.159 55.1903 20.1603 54.1219C20.1537 53.8784 20.1767 53.635 20.2286 53.397C20.2473 53.3199 20.3691 53.3429 20.3498 53.4213V53.4188Z" fill="#546699"/>
<path d="M24.9531 33.7815C24.9531 33.7815 23.3995 33.5911 22.2747 33.489C22.1691 32.3112 22.2747 30.6486 22.2747 30.6486L19.3988 30.4227C19.3988 30.4227 19.3739 32.697 19.3988 33.4716C18.218 33.7143 16.7502 33.8449 16.1673 33.9159C14.2999 41.53 27.4003 43.4857 24.9531 33.7815Z" fill="#FBCDAD"/>
<path d="M22.0721 31.8651V32.7729C22.0721 32.7729 20.6981 32.0623 19.5752 32.7729V31.7836L22.0721 31.8651Z" fill="#F1B48B"/>
<path d="M24.939 33.7815C24.939 33.7815 26.4453 33.807 27.9535 34.2793C28.877 36.1839 28.0343 46.2029 31.0296 54.4318C27.5353 56.0496 14.0603 56.072 10.502 53.934C13.2027 47.1599 12.5968 34.988 13.7477 34.4666C14.6898 34.0397 16.6249 33.7883 16.6249 33.7883C16.6249 33.7883 16.4285 39.379 20.5473 39.687C25.0676 40.0249 24.939 33.7815 24.939 33.7815Z" fill="#E94F32"/>
<path d="M29.6853 49.5449C29.5536 48.892 29.4372 48.2415 29.3361 47.5936C25.0482 48.5219 16.3824 48.4852 12.1225 47.2371C12.028 47.8873 11.9224 48.5344 11.8037 49.1703C16.0481 50.551 25.4298 50.5796 29.6853 49.5449Z" fill="#C52221"/>
<path d="M12.5781 43.3003C12.516 43.9493 12.4501 44.6113 12.373 45.2783C16.6255 46.4307 24.7737 46.4718 29.0628 45.6199C28.9807 44.9436 28.9111 44.2778 28.8508 43.6288C24.5804 44.4259 16.8119 44.3823 12.5781 43.3003Z" fill="#C52221"/>
<path d="M20.8963 40.12C21.9452 40.12 22.8364 39.7784 23.5498 39.1021C25.4097 37.3375 25.3612 33.9171 25.3581 33.7727C25.3558 33.6629 25.3107 33.5583 25.2322 33.4814C25.1538 33.4045 25.0484 33.3614 24.9387 33.3615H24.93C24.8188 33.3639 24.7132 33.4104 24.6363 33.4908C24.5594 33.5712 24.5175 33.6789 24.5198 33.7902C24.5198 33.8213 24.5621 36.9871 22.9712 38.4942C22.3436 39.0884 21.5612 39.341 20.5781 39.2682C16.9036 38.9938 17.0422 33.8549 17.044 33.8032C17.0463 33.6929 17.0052 33.5862 16.9295 33.506C16.8538 33.4258 16.7497 33.3787 16.6396 33.3747C16.5295 33.3708 16.4222 33.4104 16.3411 33.485C16.2599 33.5596 16.2113 33.6632 16.2057 33.7734C16.194 34.7829 16.3408 35.788 16.6407 36.7519C17.3069 38.8053 18.6461 39.9657 20.5141 40.1057C20.6442 40.1153 20.7716 40.12 20.8963 40.12Z" fill="#8296CC"/>
<path d="M28.557 39.987H28.57C28.6812 39.9836 28.7865 39.9361 28.8627 39.855C28.9389 39.7739 28.9798 39.6658 28.9765 39.5545C28.8789 36.3457 28.3817 34.2656 28.3606 34.1779C28.3314 34.0729 28.2626 33.9835 28.1687 33.9284C28.0748 33.8733 27.9631 33.8569 27.8574 33.8826C27.7517 33.9084 27.66 33.9743 27.6019 34.0664C27.5438 34.1586 27.5237 34.2697 27.5459 34.3764C27.5509 34.3963 28.0431 36.4664 28.1382 39.58C28.1415 39.689 28.1871 39.7924 28.2653 39.8684C28.3435 39.9443 28.4481 39.9869 28.557 39.987V39.987Z" fill="#8296CC"/>
<path d="M12.9225 40.6596C13.0321 40.6594 13.1374 40.6163 13.2157 40.5394C13.2939 40.4625 13.3391 40.358 13.3413 40.2483C13.3911 37.8589 13.8441 35.3327 14.0734 34.6483C14.0933 34.5954 14.1024 34.5391 14.1001 34.4826C14.0979 34.4262 14.0842 34.3708 14.06 34.3197C14.0359 34.2687 14.0016 34.2231 13.9594 34.1856C13.9172 34.1481 13.8679 34.1195 13.8144 34.1015C13.7609 34.0835 13.7044 34.0766 13.6481 34.081C13.5919 34.0854 13.5371 34.1012 13.4871 34.1273C13.437 34.1534 13.3928 34.1894 13.357 34.233C13.3211 34.2767 13.2945 34.3271 13.2786 34.3813C13.03 35.128 12.5546 37.7202 12.503 40.2302C12.5019 40.2853 12.5116 40.3401 12.5316 40.3914C12.5515 40.4427 12.5814 40.4896 12.6195 40.5293C12.6576 40.5691 12.7032 40.601 12.7535 40.6231C12.8039 40.6452 12.8582 40.6572 12.9132 40.6583L12.9225 40.6596Z" fill="#8296CC"/>
<path d="M8.33507 60.6982C9.78192 60.5705 11.1584 60.016 12.2905 59.1049C13.4227 58.1938 14.2595 56.967 14.6953 55.5797C15.131 54.1924 15.1461 52.7069 14.7386 51.311C14.3311 49.915 13.5193 48.6715 12.406 47.7375C11.2926 46.8036 9.92762 46.2212 8.48367 46.0641C7.03972 45.9069 5.58165 46.182 4.29387 46.8546C3.00608 47.5272 1.94642 48.5671 1.2489 49.8427C0.551378 51.1184 0.247328 52.5725 0.375198 54.0211C0.546635 55.9634 1.48152 57.7579 2.97424 59.0101C4.46695 60.2622 6.39527 60.8694 8.33507 60.6982V60.6982Z" fill="#111019"/>
<path d="M6.15962 46.1288C4.43029 46.4966 2.89124 47.4761 1.82454 48.8878C1.99025 49.0682 2.16964 49.2468 2.3627 49.4235C2.77906 48.8778 4.12507 47.7037 4.77943 47.5288C5.16037 46.9016 5.71406 46.435 6.15962 46.1288ZM6.90907 49.0029C6.38272 49.8497 5.99184 50.8142 5.66621 51.656C5.88558 52.3218 6.39142 53.0137 6.77919 53.4798C6.96562 53.7013 7.16199 53.9228 7.37141 54.1368C7.45841 54.2258 7.52615 54.2924 7.56467 54.3297C7.87042 54.3098 8.16871 54.2999 8.48439 54.2874C9.00204 54.2663 9.53647 54.2451 10.1399 54.1922C10.2722 54.1804 10.4083 54.1673 10.5382 54.1543L10.6364 54.0236C10.9912 53.5376 11.8252 52.3075 11.9563 51.2615C11.3094 50.1783 10.7284 49.36 10.1815 48.7621C9.64475 48.6527 9.09451 48.6256 8.54964 48.6818C8.1307 48.7211 7.71526 48.7917 7.30678 48.8927C7.14272 48.9332 7.01657 48.9705 6.93392 48.9954C6.92612 48.9977 6.91845 49.0004 6.91093 49.0035L6.90907 49.0029ZM6.15962 46.1288C6.17077 46.1272 6.18179 46.1247 6.19256 46.1214C6.18184 46.1249 6.17081 46.1274 6.15962 46.1288V46.1288ZM4.80615 57.5777L4.80988 57.6188V57.5777C5.41018 57.5242 6.01918 57.3836 6.44921 57.1969C6.51943 56.981 6.59028 56.7614 6.65926 56.5486C6.88608 55.8448 7.11911 55.1175 7.39192 54.438C6.99607 54.0497 5.88184 52.8918 5.48848 51.7575C5.09014 51.7942 4.66571 51.8303 4.25246 51.8645C3.98401 51.8881 3.72114 51.9099 3.47132 51.9311L2.9574 51.9784C2.53545 52.5122 2.23965 53.2657 2.06379 53.8083C1.95069 54.1543 1.87239 54.4592 1.82703 54.6552C1.79844 54.7746 1.77856 54.8679 1.76488 54.9246C2.31174 55.9139 2.96051 56.7502 3.58132 57.5093C3.85475 57.6014 4.29534 57.6263 4.80802 57.5808L4.80615 57.5777ZM11.1093 47.3148C10.7933 46.989 10.4468 46.6944 10.0746 46.435C10.0063 46.3871 9.93729 46.3398 9.8652 46.2925C8.95503 46.0124 7.9992 45.9118 7.05075 45.9963C6.92647 46.0075 6.80218 46.0218 6.67789 46.0392C6.22239 46.295 5.49159 46.7927 5.00501 47.5425C5.44996 47.6794 6.41876 48.2724 6.88359 48.8044C7.42096 48.6442 7.97275 48.5373 8.531 48.4852C9.07409 48.4302 9.62226 48.4541 10.1585 48.5561C10.463 47.9022 10.775 47.4977 11.1112 47.3179L11.1093 47.3148ZM1.70709 49.0533C1.70709 49.0533 1.70709 49.0502 1.70709 49.0483C1.70709 49.0464 1.70771 49.0533 1.70709 49.0533ZM2.26637 49.6058C2.06752 49.4235 1.87984 49.2381 1.70709 49.0533C0.679446 50.4849 0.200374 52.2389 0.357347 53.995C0.390696 54.3665 0.45156 54.735 0.539429 55.0976C0.878313 54.9843 1.22762 54.9051 1.58218 54.8611C1.67104 54.4305 2.03831 52.8644 2.77346 51.9037C2.50749 51.3816 2.12034 50.4402 2.26824 49.6046L2.26637 49.6058ZM13.7541 57.5423C13.7466 57.5541 13.7379 57.564 13.7299 57.5771C13.7411 57.564 13.7485 57.5528 13.756 57.541L13.7541 57.5423ZM8.69506 60.3821C8.87187 60.4273 9.0438 60.4898 9.20836 60.5687C11.0403 60.1857 12.6573 59.1176 13.7299 57.5821V57.2455C13.7299 57.1167 13.7299 56.9729 13.7299 56.8329C13.1563 57.0408 12.4249 57.1111 11.5953 57.0314C11.1975 57.4769 9.68872 58.5795 9.11638 58.7537C9.02799 59.3081 8.88755 59.8529 8.69692 60.3808L8.69506 60.3821ZM3.39365 59.3361C4.65863 60.2483 6.18046 60.7342 7.7393 60.7237V60.7237C7.9916 60.6048 8.23084 60.4928 8.47258 60.4039C8.67539 59.8636 8.82362 59.3043 8.91504 58.7344C8.22774 58.5403 6.87986 57.6816 6.51384 57.3911C6.06827 57.5777 5.44125 57.7264 4.8248 57.7812C4.31647 57.8266 3.87836 57.8042 3.58194 57.719C3.44631 58.2465 3.38359 58.7902 3.39551 59.3349L3.39365 59.3361ZM15.0579 53.6247C15.1177 52.0295 14.6599 50.4577 13.7529 49.1447C14.0443 49.8566 14.1661 50.5466 14.1133 51.2018C14.7353 51.9908 14.9727 53.0069 15.0597 53.6235L15.0579 53.6247ZM11.3374 47.2737C11.7905 47.4015 12.2215 47.5977 12.6156 47.8555C12.0027 47.3059 11.3028 46.8622 10.5444 46.5426C10.8291 46.7634 11.0949 47.0076 11.3392 47.2725L11.3374 47.2737ZM12.7095 56.8416C13.0718 56.8143 13.4279 56.7325 13.7659 56.599C14.2009 55.9973 14.7397 54.919 14.9056 54.0634C14.9056 54.0398 14.9019 54.0099 14.8975 53.9726C14.864 53.5831 14.6943 52.2484 13.943 51.3076C13.4013 51.2834 12.8586 51.2879 12.3174 51.3213C12.249 51.3269 12.1931 51.3331 12.1421 51.3418C11.9731 52.4904 11.0472 53.8058 10.7091 54.2526C11.2203 55.0278 11.5429 55.9122 11.6512 56.8348C12.0038 56.8672 12.3585 56.8691 12.7114 56.8404L12.7095 56.8416Z" fill="#FBF9F3"/>
<path d="M2.74174 51.681C3.4831 47.7765 10.5444 36.8808 13.1538 35.0733C13.1668 35.0478 12.8331 36.8622 12.6156 38.5229C8.75593 43.4117 4.28848 52.1981 4.28848 52.1981C4.29531 53.1146 5.39772 54.1599 4.93227 54.3304C4.62156 54.443 4.51902 54.0678 3.95104 53.8861C3.69377 53.804 3.54089 54.4331 3.49242 54.9582C3.44519 55.4691 3.44768 56.1927 3.26684 56.334C2.96856 56.7179 2.73987 55.12 2.7697 54.9726C2.69948 56.2002 1.96184 56.4074 2.11844 54.6235C1.70768 55.4137 1.3951 55.0964 1.55916 54.2632C1.89659 52.5876 2.74174 51.681 2.74174 51.681Z" fill="#FBCDAD"/>
<path d="M27.4122 34.4168C27.529 34.8804 26.6267 39.2148 26.0407 40.2402C25.73 40.7822 23.0578 40.6596 22.7919 39.4506C22.4277 37.808 22.6465 34.5351 22.8242 33.5258C23.5121 33.0231 27.4209 33.6117 27.4122 34.4168Z" fill="#DA9C2D"/>
<path d="M26.1217 33.3814C26.1217 33.3814 25.4673 43.1385 25.7488 44.3195C26.0303 45.5005 30.9278 55.871 30.9278 55.871L29.1829 56.6302C29.1829 56.6302 24.0629 46.0524 23.7802 44.3979C23.4974 42.7434 24.084 33.1014 24.084 33.1014L26.1217 33.3814Z" fill="#111019"/>
<path d="M28.894 38.0007C30.3015 39.4474 31.0497 40.2482 31.0187 40.7093C30.9298 42.0284 27.7251 43.7824 27.7114 43.7333C26.1032 43.8104 25.9285 42.3532 25.6843 42.8491C25.5228 43.1776 25.6415 43.6791 25.6129 44.2242C25.6004 44.4575 25.1549 44.5353 24.7907 44.4887C24.2252 44.4028 23.9033 44.2049 23.8231 44.1775C23.3627 44.4631 23.7132 44.9441 23.8809 44.9292C23.5553 44.9858 23.623 45.5035 24.0506 45.6852C23.8785 45.9011 24.1749 46.3653 24.7913 46.4424C26.6127 46.672 28.1011 45.5128 28.1011 45.5128C28.6603 45.4095 33.0613 43.653 33.4354 41.2039C33.6566 39.7567 30.3643 36.3674 28.464 34.6706C28.5038 34.2102 28.8188 37.4115 28.894 38.0007Z" fill="#FBCDAD"/>
<path d="M7.43332 19.8219C7.43332 19.8219 1.72239 23.6449 1.56455 24.8315C1.40671 26.018 5.03771 29.187 7.31462 29.8192C9.59154 30.4514 17.1332 26.0386 17.1332 26.0386C17.1332 26.0386 9.83887 18.6596 7.43332 19.8219Z" fill="#DA9C2D"/>
<path d="M28.6551 15.78C26.3937 11.7655 18.2953 11.6273 18.2953 11.6273C18.2953 11.6273 8.9583 13.7236 8.55624 19.0803C6.23272 20.3341 7.08967 22.9381 8.56681 22.7041C7.19345 23.4303 8.68239 26.1475 11.0525 25.7393C11.0525 25.7393 16.6112 24.6318 19.7463 23.8807C22.9616 23.6337 28.593 22.9823 28.593 22.9823C30.9737 22.6438 31.5597 19.6005 30.0309 19.3311C31.5068 19.1002 30.8071 16.3189 28.6551 15.78Z" fill="#E94F32"/>
<path d="M11.0562 25.4225C11.8336 30.3785 16.214 33.0696 20.9792 32.3199C25.7443 31.5701 29.09 27.6638 28.312 22.7078C27.534 17.7518 23.0696 14.5206 18.307 15.2703C13.5444 16.0201 10.2775 20.4678 11.0562 25.4225Z" fill="#FBCDAD"/>
<path d="M11.4049 25.4089C11.4049 25.4089 11.1314 24.4208 9.89044 24.4363C8.58544 24.4538 8.28902 26.2134 9.11117 27.1343C9.93332 28.0552 11.3701 27.8841 11.7137 27.0354L11.4049 25.4089Z" fill="#FBCDAD"/>
<path d="M9.69667 24.9074C10.5176 24.6585 11.3745 26.0542 10.3274 26.9608C10.6829 25.8594 10.2031 25.5533 9.65814 26.1245C9.62458 25.7829 9.80791 25.5427 10.3181 25.5191C10.2249 25.0711 9.69667 24.9074 9.69667 24.9074Z" fill="#D88662"/>
<path d="M28.0275 22.7955C28.0275 22.7955 27.9853 21.7701 29.171 21.4049C30.4219 21.0203 31.2397 22.6051 30.7401 23.7332C30.2404 24.8613 28.8192 25.1407 28.2326 24.4382L28.0275 22.7955Z" fill="#FBCDAD"/>
<path d="M29.502 21.7944C28.6432 21.8094 28.2592 23.4016 29.53 23.9411C28.8539 23.0022 29.2193 22.5629 29.9097 22.9399C29.8376 22.6046 29.5903 22.4322 29.0975 22.5666C29.0496 22.1111 29.502 21.7944 29.502 21.7944Z" fill="#D88662"/>
<path d="M18.7572 24.0916C19.002 24.2098 19.0188 23.6125 19.519 23.5428C20.0292 23.4719 20.169 24.058 20.389 23.8321C20.568 23.6455 20.2206 22.961 19.3879 23.1017C18.6913 23.2205 18.526 23.9777 18.7572 24.0916Z" fill="#EE765E"/>
<path d="M23.1328 20.3471C23.249 19.4549 24.8647 19.2987 25.6104 20.68C24.7815 20.0198 23.1328 20.3471 23.1328 20.3471Z" fill="#E94F32"/>
<path d="M15.2632 21.5841C14.8779 20.7702 13.2951 21.1162 13.0049 22.6624C13.5928 21.7776 15.2632 21.5841 15.2632 21.5841Z" fill="#E94F32"/>
<path d="M12.9043 17.8383C11.4408 19.9757 12.1623 20.6446 12.9757 20.3173C14.2696 19.7959 14.7443 17.7612 14.7443 17.7612C14.7443 17.7612 14.282 20.2177 16.3601 19.308C18.4381 18.3983 18.3903 16.3935 18.3903 16.3935C18.3903 16.3935 19.6151 19.486 21.8814 18.758C23.161 18.3479 21.5639 16.0538 21.5639 16.0538C21.5639 16.0538 23.6239 18.8569 24.7518 17.8303C26.5111 16.2299 20.6224 13.7647 17.7719 14.4777C14.9214 15.1908 12.9043 17.8383 12.9043 17.8383Z" fill="#E94F32"/>
<path d="M15.8784 27.5624C15.9586 28.072 15.2527 28.6059 14.3019 28.7552C13.3511 28.9046 12.5159 28.6127 12.4376 28.1031C12.3593 27.5935 13.0634 27.0597 14.0142 26.9097C14.9649 26.7598 15.7983 27.0528 15.8784 27.5624Z" fill="#EE765E"/>
<path d="M27.7317 25.7001C27.8112 26.2091 27.1053 26.7435 26.1545 26.8929C25.2037 27.0422 24.3691 26.7504 24.2902 26.2408C24.2113 25.7312 24.916 25.1967 25.8668 25.0474C26.8176 24.898 27.6515 25.1899 27.7317 25.7001Z" fill="#EE765E"/>
<path d="M15.2163 23.2498C16.3075 23.1216 16.9345 24.3406 16.9277 24.2814C16.9079 24.0717 16.8464 23.868 16.7468 23.6824C16.6473 23.4967 16.5117 23.3329 16.348 23.2004C16.1843 23.068 15.9959 22.9696 15.7937 22.9111C15.5916 22.8526 15.3798 22.8351 15.1708 22.8597C14.9618 22.8843 14.7598 22.9504 14.5767 23.0542C14.3935 23.1581 14.233 23.2975 14.1044 23.4643C13.9759 23.6311 13.8819 23.822 13.828 24.0257C13.7742 24.2294 13.7615 24.4418 13.7907 24.6504C13.7976 24.7089 14.0517 23.3867 15.2163 23.2498Z" fill="#111019"/>
<path d="M23.6121 21.93C24.7033 21.8018 25.3303 23.0207 25.3235 22.9623C25.2994 22.756 25.2349 22.5566 25.1337 22.3753C25.0326 22.194 24.8968 22.0344 24.734 21.9057C24.5713 21.777 24.3849 21.6816 24.1853 21.625C23.9858 21.5684 23.7771 21.5518 23.5711 21.5759C23.3651 21.6001 23.1659 21.6647 22.9848 21.766C22.8038 21.8672 22.6444 22.0032 22.5159 22.1662C22.2562 22.4952 22.1378 22.9141 22.1865 23.3306C22.1928 23.3897 22.4444 22.0675 23.6121 21.93Z" fill="#111019"/>
<path d="M22.1308 24.875C21.3596 24.3187 21.3683 25.4474 19.9825 25.7318C18.5676 26.0217 18.1183 24.9347 17.6335 25.9533C17.2383 26.7833 18.6204 30.7326 20.9271 30.2081C23.2494 29.6761 22.8629 25.4045 22.1308 24.875Z" fill="#111019"/>
<path d="M19.1396 29.6942C19.6368 30.126 20.2414 30.3637 20.925 30.2081C21.5651 30.0619 21.9995 29.6313 22.2779 29.0732C21.836 28.9351 21.2749 28.894 20.5944 29.0346C19.945 29.169 19.4715 29.4104 19.1396 29.6942Z" fill="#EE765E"/>
<path d="M21.8604 24.7388C21.3341 24.6 21.183 25.4855 19.9787 25.7343C18.7589 25.9832 18.2567 25.2123 17.8311 25.646C18.4115 26.4505 19.2218 27.0279 20.1975 26.8058C21.1638 26.5831 21.6615 25.7144 21.8604 24.7388Z" fill="#FBF9F3"/>
<path d="M18.3455 7.95434C18.1647 6.15612 15.2241 6.89656 15.7467 8.27354C16.9417 8.20509 18.3455 7.95434 18.3455 7.95434Z" fill="#E94F32"/>
<path d="M7.55766 19.7921C14.6966 18.2502 23.7148 16.5285 29.468 15.8777C29.1069 14.1902 28.3009 10.3368 25.4442 8.76879C23.6154 7.76514 20.3106 7.40426 17.2221 7.95617C14.087 8.51617 10.96 9.74941 9.44432 11.109C7.0195 13.2849 7.36813 17.0213 7.55766 19.7921ZM15.5741 13.937C16.7212 13.8368 18.2208 13.8026 20.699 13.1181C21.5584 12.8804 22.6254 14.5723 21.0613 15.1173C18.7446 15.9231 16.7387 16.0787 15.6251 15.9324C14.5115 15.7862 14.6823 14.0141 15.5753 13.937H15.5741Z" fill="#087D6A"/>
<path d="M59.4162 26.2259C60.3415 25.9253 71.9144 25.8065 72.5905 26.2259C73.2666 26.6453 71.1364 30.8179 66.0034 30.8179C60.8704 30.8179 58.6133 26.4872 59.4162 26.2259Z" fill="#204898"/>
<path d="M57.0674 49.3022C57.0674 49.3022 58.3401 51.6424 57.9555 51.9554C57.4968 52.3287 57.4832 51.3998 57.1377 51.3195C56.9338 51.2722 57.0016 51.8104 57.0519 52.078C57.1836 52.7848 57.669 53.6416 57.3862 53.7399C57.1377 53.9135 56.7138 53.4854 56.689 53.3367C56.6393 53.7331 56.0676 53.3286 56.021 52.9634C55.8724 53.1613 55.563 52.6902 55.3573 52.1732C55.1786 51.7247 55.0934 51.2443 55.1068 50.7617C55.1203 50.279 55.2322 49.8042 55.4356 49.3663L57.0674 49.3022Z" fill="#B06869"/>
<path d="M61.4042 53.7822C61.4042 53.7822 61.3203 77.5561 61.2178 79.3811C62.4227 79.6922 63.1809 80.7605 63.1809 80.7605L64.7624 54.3783L61.4042 53.7822Z" fill="#B06869"/>
<path d="M61.3547 65.5049C61.3205 71.7949 61.2733 78.4471 61.2217 79.3804C62.4266 79.6916 63.1848 80.7599 63.1848 80.7599L64.0703 65.9852C64.0703 65.9852 63.4918 66.2248 62.5242 66.0369C61.7027 65.8788 61.3547 65.5049 61.3547 65.5049Z" fill="#8296CC"/>
<path d="M61.2217 64.4795V67.1855C61.2217 67.1855 62.5627 68.2433 64.0703 67.3958C64.2356 65.1558 64.2835 64.6581 64.2835 64.6581C64.2835 64.6581 62.6845 65.3599 61.2217 64.4795Z" fill="#546699"/>
<path d="M63.5329 79.9653C63.7696 80.4911 64.1959 81.1127 62.5653 82.6471C61.379 83.764 59.7216 84.3651 58.229 83.9065C56.6655 83.4261 57.3813 81.799 57.3813 81.799L63.5329 79.9653Z" fill="#DA9C2D"/>
<path d="M63.5054 78.0793C63.6595 78.4751 63.9187 79.4395 63.4843 80.2509C61.7343 82.3316 60.4791 83.5138 58.2606 82.9059C56.5206 82.4299 57.6795 80.9515 58.5955 80.366C59.5115 79.7805 61.2577 78.1484 61.2577 78.1484C61.2577 78.1484 61.9369 78.8391 63.5054 78.0793Z" fill="#E94F32"/>
<path d="M61.2576 78.1484C60.8891 77.6183 61.0767 77.1672 62.186 77.2331C62.9584 77.2792 63.724 77.6064 62.9155 78.3083C62.6558 78.5765 61.5695 78.5192 61.2576 78.1484Z" fill="#E94F32"/>
<path d="M62.1648 79.5348C62.1357 79.5349 62.1071 79.5279 62.0813 79.5145C62.0555 79.501 62.0334 79.4815 62.0169 79.4576C61.7347 79.0538 61.0679 78.7483 60.4397 78.9374C60.394 78.9512 60.3448 78.9463 60.3028 78.9237C60.2608 78.9011 60.2294 78.8627 60.2157 78.817C60.2019 78.7713 60.2068 78.722 60.2294 78.6799C60.2519 78.6379 60.2903 78.6065 60.3359 78.5927C61.1494 78.3482 61.9616 78.7495 62.3114 79.2516C62.3303 79.2786 62.3414 79.3101 62.3436 79.3429C62.3458 79.3758 62.339 79.4085 62.3238 79.4377C62.3087 79.4669 62.2859 79.4914 62.2578 79.5085C62.2298 79.5256 62.1976 79.5347 62.1648 79.5348V79.5348Z" fill="#E6E5E5"/>
<path d="M61.4812 80.1315C61.4521 80.1316 61.4235 80.1247 61.3977 80.1112C61.3719 80.0978 61.3498 80.0783 61.3333 80.0543C61.0518 79.6499 60.385 79.3444 59.7561 79.5342C59.7104 79.5479 59.6612 79.543 59.6192 79.5204C59.5772 79.4978 59.5458 79.4595 59.5321 79.4138C59.5183 79.3681 59.5232 79.3187 59.5458 79.2767C59.5683 79.2346 59.6067 79.2032 59.6523 79.1895C60.4664 78.9443 61.278 79.3456 61.6285 79.8484C61.6471 79.8754 61.6581 79.907 61.6601 79.9398C61.6622 79.9726 61.6552 80.0053 61.6401 80.0344C61.6249 80.0635 61.6021 80.088 61.5741 80.1051C61.5461 80.1222 61.514 80.1313 61.4812 80.1315V80.1315Z" fill="#E6E5E5"/>
<path d="M60.7976 80.7275C60.7685 80.7276 60.7399 80.7206 60.7141 80.7072C60.6884 80.6937 60.6663 80.6742 60.6497 80.6503C60.3682 80.2465 59.7014 79.941 59.0725 80.1302C59.0499 80.137 59.0262 80.1393 59.0027 80.1369C58.9792 80.1346 58.9564 80.1276 58.9356 80.1164C58.9148 80.1052 58.8964 80.0901 58.8814 80.0718C58.8665 80.0535 58.8553 80.0324 58.8485 80.0098C58.8417 79.9871 58.8394 79.9634 58.8417 79.9399C58.8441 79.9163 58.851 79.8935 58.8622 79.8727C58.8734 79.8518 58.8885 79.8334 58.9068 79.8185C58.9251 79.8035 58.9461 79.7923 58.9687 79.7855C59.7828 79.5403 60.5944 79.9423 60.9449 80.4444C60.9635 80.4714 60.9745 80.503 60.9765 80.5358C60.9786 80.5686 60.9716 80.6013 60.9565 80.6304C60.9413 80.6595 60.9185 80.684 60.8905 80.7011C60.8625 80.7182 60.8304 80.7273 60.7976 80.7275V80.7275Z" fill="#E6E5E5"/>
<path d="M70.5398 53.7822C70.5398 53.7822 70.6237 77.5561 70.7263 79.3811C69.5213 79.6922 68.7632 80.7605 68.7632 80.7605L67.1816 54.3783L70.5398 53.7822Z" fill="#B06869"/>
<path d="M67.8271 66.0007L68.7717 80.7437C68.8755 80.6049 69.6075 79.6685 70.7218 79.3823C70.6702 78.4489 70.623 71.8061 70.5888 65.5204C70.5888 65.5204 70.3315 65.9709 69.3049 66.114C68.4138 66.2384 67.8271 66.0007 67.8271 66.0007Z" fill="#8296CC"/>
<path d="M70.6642 64.4795V67.1855C70.6642 67.1855 69.3238 68.2433 67.8156 67.3958C67.6503 65.1558 67.6633 64.6581 67.6633 64.6581C67.6633 64.6581 69.1983 65.3599 70.6642 64.4795Z" fill="#546699"/>
<path d="M68.4109 79.9653C68.1741 80.4911 67.7478 81.1127 69.3785 82.6471C70.5648 83.764 72.2221 84.3651 73.7148 83.9065C75.2783 83.4261 74.5624 81.799 74.5624 81.799L68.4109 79.9653Z" fill="#DA9C2D"/>
<path d="M68.4382 78.0793C68.2841 78.4751 68.0249 79.4395 68.4593 80.2509C70.2093 82.3316 71.4645 83.5138 73.683 82.9059C75.423 82.4299 74.2641 80.9515 73.3481 80.366C72.4321 79.7805 70.6859 78.1484 70.6859 78.1484C70.6859 78.1484 70.0067 78.8391 68.4382 78.0793Z" fill="#E94F32"/>
<path d="M70.6856 78.1484C71.0541 77.6183 70.8664 77.1672 69.7571 77.2331C68.9847 77.2792 68.2191 77.6064 69.0276 78.3083C69.2873 78.5765 70.3736 78.5192 70.6856 78.1484Z" fill="#E94F32"/>
<path d="M69.7789 79.5348C69.8079 79.5349 69.8366 79.5279 69.8623 79.5145C69.8881 79.501 69.9102 79.4815 69.9267 79.4576C70.2089 79.0538 70.8757 78.7483 71.5039 78.9374C71.5496 78.9512 71.5988 78.9463 71.6408 78.9237C71.6829 78.9011 71.7142 78.8627 71.728 78.817C71.7417 78.7713 71.7368 78.722 71.7142 78.6799C71.6917 78.6379 71.6534 78.6065 71.6077 78.5927C70.7936 78.3482 69.9821 78.7495 69.6322 79.2516C69.6133 79.2786 69.6022 79.3101 69.6 79.3429C69.5978 79.3758 69.6047 79.4085 69.6198 79.4377C69.6349 79.4669 69.6577 79.4914 69.6858 79.5085C69.7138 79.5256 69.746 79.5347 69.7789 79.5348V79.5348Z" fill="#E6E5E5"/>
<path d="M70.4625 80.1315C70.4916 80.1316 70.5202 80.1246 70.5459 80.1112C70.5717 80.0977 70.5938 80.0782 70.6104 80.0543C70.8919 79.6499 71.5587 79.3444 72.1876 79.5342C72.2332 79.5479 72.2825 79.543 72.3245 79.5204C72.3665 79.4978 72.3979 79.4595 72.4116 79.4138C72.4254 79.3681 72.4204 79.3187 72.3979 79.2767C72.3753 79.2346 72.337 79.2032 72.2914 79.1895C71.4773 78.9443 70.6657 79.3456 70.3152 79.8484C70.2966 79.8754 70.2856 79.907 70.2836 79.9398C70.2815 79.9726 70.2884 80.0053 70.3036 80.0344C70.3188 80.0635 70.3416 80.088 70.3696 80.1051C70.3976 80.1222 70.4297 80.1313 70.4625 80.1315V80.1315Z" fill="#E6E5E5"/>
<path d="M71.1461 80.7275C71.1751 80.7275 71.2037 80.7204 71.2295 80.707C71.2552 80.6936 71.2773 80.6741 71.294 80.6503C71.5755 80.2465 72.2423 79.941 72.8712 80.1302C72.9168 80.1439 72.9661 80.139 73.0081 80.1164C73.0501 80.0938 73.0814 80.0555 73.0952 80.0098C73.109 79.9641 73.104 79.9147 73.0815 79.8727C73.0589 79.8306 73.0206 79.7992 72.975 79.7855C72.1609 79.5403 71.3493 79.9423 70.9988 80.4444C70.9801 80.4714 70.9692 80.503 70.9671 80.5358C70.9651 80.5686 70.972 80.6013 70.9872 80.6304C71.0023 80.6595 71.0252 80.684 71.0532 80.7011C71.0812 80.7182 71.1133 80.7273 71.1461 80.7275V80.7275Z" fill="#E6E5E5"/>
<path d="M66.1038 47.8144C66.1199 47.8101 70.143 47.8038 73.6634 47.0547C73.7511 48.9537 73.994 53.7834 73.9667 54.8499C73.8635 55.3738 70.4699 55.67 66.8563 55.7042C66.604 55.7042 66.3505 52.949 66.0969 52.949C65.8434 52.949 65.606 55.7061 65.3611 55.7036C61.9364 55.6675 58.6932 55.3925 58.2414 54.8499C58.188 53.7834 58.265 52.0617 58.5441 47.0547C62.0669 47.8038 66.0876 47.8088 66.1038 47.8144Z" fill="#DA9C2D"/>
<path d="M58.9503 51.9404C59.3075 51.9771 59.6685 51.9386 60.01 51.8273C60.3515 51.716 60.6659 51.5343 60.9331 51.2941C61.2003 51.0538 61.4143 50.7602 61.5614 50.4321C61.7084 50.1041 61.7853 49.7489 61.7871 49.3893C61.7927 49.0029 61.1936 49.0029 61.188 49.3893C61.1864 49.6704 61.125 49.9479 61.0081 50.2034C60.8911 50.4589 60.7212 50.6865 60.5096 50.8713C60.298 51.056 60.0496 51.1935 59.7809 51.2748C59.5121 51.356 59.2292 51.3791 58.9509 51.3424C58.79 51.325 58.6514 51.4924 58.6514 51.6424C58.6514 51.8184 58.7893 51.9248 58.9509 51.9423L58.9503 51.9404Z" fill="#E94F32"/>
<path d="M65.3617 56.0036H65.3586C62.8927 55.9775 58.6589 55.8169 58.012 55.0423C57.9611 54.9812 57.9365 54.9024 57.9436 54.8232C57.9507 54.7439 57.9889 54.6708 58.0499 54.6198C58.1109 54.5688 58.1896 54.5441 58.2688 54.5513C58.3479 54.5584 58.421 54.5967 58.4719 54.6577C58.6993 54.9309 60.7227 55.3546 65.3648 55.4044C65.4442 55.4044 65.5204 55.436 65.5766 55.4922C65.6327 55.5485 65.6643 55.6248 65.6643 55.7043C65.6643 55.7838 65.6327 55.8601 65.5766 55.9164C65.5204 55.9726 65.4442 56.0042 65.3648 56.0042L65.3617 56.0036Z" fill="#E94F32"/>
<path d="M66.8562 56.0042C66.7767 56.0042 66.7006 55.9726 66.6444 55.9163C66.5882 55.8601 66.5566 55.7838 66.5566 55.7042C66.5566 55.6247 66.5882 55.5484 66.6444 55.4922C66.7006 55.4359 66.7767 55.4043 66.8562 55.4043C71.3354 55.362 73.4035 54.9818 73.6888 54.7435C73.7151 54.6729 73.7671 54.6148 73.8344 54.5808C73.9016 54.5468 73.9792 54.5394 74.0517 54.5601C74.1241 54.5808 74.1861 54.6281 74.2252 54.6926C74.2644 54.757 74.2779 54.8339 74.263 54.9078C74.2064 55.1934 73.9622 55.5182 71.763 55.759C70.4816 55.899 68.741 55.9867 66.8618 56.0042H66.8562Z" fill="#E94F32"/>
<path d="M62.0137 29.9038C62.0137 29.9038 63.5672 29.7134 64.692 29.612C64.7977 28.4341 64.692 26.7715 64.692 26.7715L67.568 26.545C67.568 26.545 67.5929 28.8193 67.568 29.5939C68.7487 29.8372 70.2165 29.9673 70.7994 30.0382C69.5131 33.7802 62.3113 34.4846 62.0137 29.9038Z" fill="#B06869"/>
<path d="M64.8945 27.9874V28.8952C64.8945 28.8952 66.2679 28.1846 67.3914 28.8952C67.3566 28.3613 67.3566 27.8629 67.3566 27.8629L64.8945 27.9874Z" fill="#844F4F"/>
<path d="M74.1017 47.4704C76.0716 43.7993 73.246 32.6528 72.8004 30.4619C72.3536 30.3163 70.2644 29.7918 69.7554 29.8011C69.7598 32.0679 66.918 33.0093 66.0759 33.033C65.4812 33.033 62.4194 32.0268 62.5046 29.8011C61.9981 29.7918 59.9089 30.3163 59.4596 30.4619C59.1905 32.3118 56.7508 44.093 58.5529 47.4704C60.7142 48.3465 70.109 48.6178 74.1017 47.4704Z" fill="#EBD198"/>
<path d="M58.522 30.8776C55.9741 34.3122 58.3449 49.3395 58.3449 49.3395C58.3449 49.3395 59.7835 49.8939 63.3343 49.7788C62.9391 43.6306 63.3014 29.681 63.3014 29.681C63.3014 29.681 59.9127 29.7339 58.522 30.8776Z" fill="#546699"/>
<path d="M61.7452 39.921C62.0575 39.921 62.3107 39.6675 62.3107 39.3548C62.3107 39.0421 62.0575 38.7886 61.7452 38.7886C61.4329 38.7886 61.1797 39.0421 61.1797 39.3548C61.1797 39.6675 61.4329 39.921 61.7452 39.921Z" fill="#E94F32"/>
<path d="M61.7452 43.4552C62.0575 43.4552 62.3107 43.2017 62.3107 42.889C62.3107 42.5763 62.0575 42.3228 61.7452 42.3228C61.4329 42.3228 61.1797 42.5763 61.1797 42.889C61.1797 43.2017 61.4329 43.4552 61.7452 43.4552Z" fill="#E94F32"/>
<path d="M61.7452 46.99C62.0575 46.99 62.3107 46.7365 62.3107 46.4238C62.3107 46.111 62.0575 45.8575 61.7452 45.8575C61.4329 45.8575 61.1797 46.111 61.1797 46.4238C61.1797 46.7365 61.4329 46.99 61.7452 46.99Z" fill="#E94F32"/>
<path d="M73.7902 30.8776C76.3381 34.3122 73.9673 49.3395 73.9673 49.3395C73.9673 49.3395 72.5287 49.8939 68.9785 49.7788C69.3731 43.6306 69.0108 29.681 69.0108 29.681C69.0108 29.681 72.3989 29.7339 73.7902 30.8776Z" fill="#546699"/>
<path d="M57.3403 48.1144C57.3403 48.1144 57.7641 49.1722 57.6379 49.5026C57.2508 49.8429 55.1615 50.4471 54.46 49.9026C54.2891 49.525 54.2891 48.5145 54.2891 48.5145L57.3403 48.1144Z" fill="#204898"/>
<path d="M58.6006 36.7806C58.6006 36.9051 57.9325 39.7629 57.9002 42.2562C57.8679 44.7494 58.9709 47.7361 57.0072 48.5338C56.0713 48.914 55.3126 48.703 54.4252 48.7024C49.8943 48.6974 49.7309 37.1104 58.6006 30.8757V36.7806Z" fill="#8296CC"/>
<path d="M56.4252 37.9266C56.7244 36.9765 56.3728 36.0187 55.6399 35.7873C54.9071 35.556 54.0704 36.1386 53.7712 37.0887C53.472 38.0389 53.8236 38.9966 54.5565 39.228C55.2893 39.4594 56.126 38.8767 56.4252 37.9266Z" fill="#546699"/>
<path d="M58.2804 31.1987C58.1636 31.6622 58.2748 35.1099 58.501 35.9363C58.6663 36.5379 61.4155 36.5516 61.6833 35.3427C62.0475 33.7 62.2606 30.9771 62.311 29.8671C62.2432 29.3214 58.5165 30.0538 58.2804 31.1987Z" fill="#111019"/>
<path d="M59.1597 30.3443C58.9291 33.1194 58.1797 38.4662 57.8994 41.4199C59.4909 38.1781 60.9898 35.7266 61.083 29.7464C60.858 29.3351 59.3393 29.77 59.1597 30.3443Z" fill="#E94F32"/>
<path d="M69.867 51.8402C69.9876 51.8216 79.309 49.6002 79.2929 49.4808L78.2408 41.6489C78.2367 41.6206 78.2269 41.5934 78.2121 41.5689C78.1972 41.5445 78.1776 41.5232 78.1544 41.5065C78.1312 41.4898 78.1049 41.4779 78.0771 41.4716C78.0492 41.4653 78.0203 41.4646 77.9922 41.4697L67.9058 43.0165C67.8485 43.0247 67.7966 43.055 67.7612 43.1009C67.7258 43.1468 67.7097 43.2047 67.7163 43.2623L68.7267 50.7825C68.7665 51.0762 68.8603 51.1508 69.0157 51.2753L69.867 51.8402Z" fill="#3559A5"/>
<path d="M69.9134 51.4719C70.0334 51.4533 79.453 49.3769 79.4374 49.2593L79.0596 42.7689C79.0435 42.6519 78.3325 41.7734 78.212 41.7902L68.2567 43.3165C68.1988 43.3248 68.1466 43.3556 68.1111 43.4021C68.0757 43.4487 68.0599 43.5073 68.0672 43.5654L69.0229 50.6798C69.049 50.8721 69.1074 50.9287 69.2926 51.0333L69.9134 51.4719Z" fill="#F7F1EB"/>
<path d="M80.1378 50.355C80.1952 50.3468 80.247 50.3165 80.2824 50.2706C80.3178 50.2247 80.3339 50.1668 80.3274 50.1092L79.348 42.8199C79.3439 42.7916 79.3341 42.7644 79.3192 42.7399C79.3044 42.7155 79.2848 42.6943 79.2616 42.6776C79.2384 42.6608 79.2121 42.649 79.1843 42.6426C79.1564 42.6363 79.1276 42.6356 79.0994 42.6407L69.0136 44.1869C68.9561 44.1955 68.9043 44.2265 68.8694 44.2731C68.8346 44.3196 68.8194 44.3781 68.8272 44.4358L69.806 51.7251C69.81 51.7535 69.8197 51.7807 69.8346 51.8051C69.8494 51.8296 69.869 51.8508 69.8922 51.8675C69.9154 51.8842 69.9418 51.896 69.9697 51.9022C69.9976 51.9084 70.0264 51.9089 70.0545 51.9037L80.1378 50.355Z" fill="#3559A5"/>
<path d="M71.3299 52.5601C71.4541 52.557 80.9769 51.5135 80.9757 51.3953L80.9067 43.4931C80.9062 43.4647 80.9001 43.4367 80.8886 43.4107C80.8771 43.3847 80.8605 43.3613 80.8398 43.3419C80.8191 43.3224 80.7948 43.3074 80.7681 43.2975C80.7415 43.2877 80.7132 43.2833 80.6848 43.2847L70.4847 43.5609C70.4269 43.5619 70.3716 43.5855 70.3309 43.6266C70.2901 43.6678 70.2671 43.7232 70.2666 43.7812L70.3325 51.3686C70.3356 51.6654 70.4195 51.7506 70.558 51.8937L71.3299 52.5601Z" fill="#111019"/>
<path d="M71.4213 52.2005C71.5456 52.1968 81.1473 51.3126 81.1467 51.1937L81.5817 44.7077C81.5817 44.5888 80.9845 43.6275 80.8621 43.6306L70.7949 43.9025C70.737 43.9037 70.6819 43.9273 70.641 43.9684C70.6002 44.0095 70.577 44.0648 70.5762 44.1228L70.6383 51.3014C70.6383 51.4961 70.6911 51.5577 70.862 51.6859L71.4213 52.2005Z" fill="#F7F1EB"/>
<path d="M81.7058 52.3686C81.7638 52.3678 81.8191 52.3443 81.86 52.3031C81.9009 52.2619 81.9241 52.2064 81.9245 52.1483L81.8624 44.793C81.8618 44.7646 81.8555 44.7367 81.8439 44.7108C81.8323 44.6849 81.8156 44.6615 81.7949 44.6422C81.7742 44.6228 81.7498 44.6078 81.7232 44.598C81.6966 44.5882 81.6683 44.5839 81.6399 44.5852L71.4404 44.8608C71.3824 44.8617 71.3271 44.8852 71.2862 44.9263C71.2453 44.9675 71.2222 45.0231 71.2217 45.0811L71.2838 52.4358C71.2845 52.4641 71.2907 52.4921 71.3023 52.518C71.3138 52.5439 71.3304 52.5672 71.3511 52.5866C71.3717 52.606 71.396 52.6211 71.4226 52.631C71.4491 52.6409 71.4774 52.6454 71.5057 52.6442L81.7058 52.3686Z" fill="#111019"/>
<path d="M75.1493 49.3022C74.8205 50.1566 73.5242 51.279 73.8996 51.6045C74.1482 51.8191 74.4943 51.2056 75.0803 51.3214C75.2854 51.3618 75.2667 51.7053 75.148 52.012C74.9467 52.4837 74.6509 52.4955 74.6136 52.5596C74.7578 53.0244 75.4836 52.8626 75.5066 52.7133C75.4824 53.0094 75.8975 52.9746 76.151 52.6436C76.2995 52.8421 76.7724 52.7164 76.9769 52.1999C77.5853 50.6693 76.7824 49.3663 76.7824 49.3663C76.7824 49.3663 75.5178 49.3153 75.1493 49.3022Z" fill="#B06869"/>
<path d="M74.9717 48.1144C74.9717 48.1144 74.5473 49.1722 74.674 49.5026C75.0612 49.8429 77.1504 50.4471 77.8514 49.9026C78.0223 49.525 78.0223 48.5145 78.0223 48.5145L74.9717 48.1144Z" fill="#204898"/>
<path d="M73.7119 36.7806C73.7119 36.9051 74.38 39.7629 74.4123 42.2562C74.4446 44.7494 73.3415 47.7361 75.3053 48.5338C76.2411 48.914 76.9999 48.703 77.8873 48.7024C82.4181 48.6974 82.5816 37.1104 73.7119 30.8757V36.7806Z" fill="#8296CC"/>
<path d="M80.8993 42.7975C80.7371 40.8531 80.0914 38.6398 78.8635 36.4988C78.0705 36.7215 76.5723 36.9511 76.5723 36.9511L78.4713 43.3656L80.8993 42.7975Z" fill="#EBD198"/>
<path d="M74.0999 31.1987C74.2168 31.6622 74.1055 35.1099 73.8793 35.9363C73.714 36.5379 70.9648 36.5516 70.697 35.3427C70.3328 33.7 70.1197 30.9771 70.0693 29.8671C70.1371 29.3214 73.8638 30.0538 74.0999 31.1987Z" fill="#111019"/>
<path d="M73.2196 30.3443C73.4507 33.1194 74.2002 38.4662 74.4805 41.4199C72.889 38.1781 71.3901 35.7266 71.2969 29.7464C71.5218 29.3351 73.0406 29.77 73.2196 30.3443Z" fill="#E94F32"/>
<path d="M65.8539 33.0093C65.8539 33.0093 60.8663 26.0647 59.6719 26.1555C58.4775 26.2464 56.6512 29.8609 57.9866 30.6978C59.3221 31.5347 65.8539 33.0093 65.8539 33.0093Z" fill="#8296CC"/>
<path d="M66.3408 33.0093C66.3408 33.0093 71.3284 26.0647 72.5228 26.1568C73.7172 26.2489 75.5436 29.8609 74.2062 30.6978C72.8689 31.5347 66.3408 33.0093 66.3408 33.0093Z" fill="#8296CC"/>
<path d="M81.6348 24.282C82.7894 25.9981 81.7355 28.0035 79.8805 26.7709C80.5796 29.9884 77.8994 29.3115 76.6161 27.4591C75.8157 30.2205 73.8085 28.9524 73.3965 27.0323C72.245 29.2299 70.1116 28.7334 69.1534 26.6353C68.724 28.9468 65.408 27.3197 65.6112 25.9726C65.0619 27.8816 63.0292 28.1056 62.0859 26.1711C61.8149 27.3409 59.103 26.1201 59.6623 25.0723C58.3573 25.8413 56.0008 24.7033 56.5614 23.4402C55.7952 23.7444 54.909 22.9486 55.4061 22.421C53.7333 22.2467 52.0796 20.1474 53.0379 19.2445C51.6937 19.0392 50.5876 16.4234 53.2026 16.2274C50.9685 15.0115 52.3145 13.8237 53.627 14.3968C51.887 13.1343 53.6438 10.8632 55.7796 12.2713C54.9469 9.39786 56.9224 8.03519 59.4647 9.53724C61.485 7.05893 71.1146 6.61839 74.7183 11.8513C78.862 14.3115 81.6348 24.282 81.6348 24.282Z" fill="#111019"/>
<path d="M75.1617 22.0203C74.0325 26.883 68.833 29.085 64.1562 27.9968C59.4793 26.9085 57.0998 22.9424 58.229 18.0791C59.3581 13.2159 64.0219 10.3319 68.6982 11.4214C73.3744 12.5109 76.2902 17.1576 75.1617 22.0203Z" fill="#B06869"/>
<path d="M74.665 21.9867C74.665 21.9867 75.008 21.026 76.2379 21.1305C77.5354 21.2425 77.7001 23.0102 76.8177 23.8646C75.9352 24.7189 74.5184 24.4463 74.2412 23.579L74.665 21.9867Z" fill="#B06869"/>
<path d="M76.3976 21.6133C75.6003 21.3066 74.6508 22.6307 75.6233 23.6044C75.3499 22.4844 75.8501 22.2163 76.3479 22.8223C76.4063 22.4857 76.241 22.2343 75.737 22.1746C75.8613 21.7409 76.3976 21.6133 76.3976 21.6133Z" fill="#D78562"/>
<path d="M64.209 20.4802C64.4028 20.6669 64.6098 20.1069 65.1057 20.204C65.6122 20.2998 65.5581 20.8996 65.8371 20.7559C66.0652 20.6389 65.9558 19.8742 65.1212 19.7435C64.4246 19.634 64.0244 20.2998 64.209 20.4802Z" fill="#C7473D"/>
<path d="M67.7267 23.0538C67.6099 23.536 68.245 24.1054 69.1448 24.3244C70.0447 24.5434 70.8705 24.3294 70.9874 23.8465C71.1042 23.3637 70.4697 22.795 69.5693 22.5759C68.6688 22.3569 67.8442 22.571 67.7267 23.0538Z" fill="#C7473D"/>
<path d="M58.4671 20.8044C58.3497 21.2872 58.9848 21.8559 59.8852 22.075C60.7857 22.294 61.6103 22.0799 61.7277 21.5977C61.8452 21.1155 61.2095 20.5462 60.3097 20.3271C59.4098 20.1081 58.5839 20.3184 58.4671 20.8044Z" fill="#C7473D"/>
<path d="M62.3651 14.6874C63.2811 14.5412 63.3519 15.5386 62.7635 15.4714C62.1327 15.3986 61.5778 15.5672 61.5063 15.4975C61.3478 15.3426 61.8499 14.7689 62.3651 14.6874Z" fill="#111019"/>
<path d="M70.4052 16.9367C69.5825 16.5067 69.1997 17.4301 69.7788 17.5533C70.4003 17.6846 70.8732 18.0212 70.9627 17.977C71.1615 17.88 70.8676 17.1781 70.4052 16.9367Z" fill="#111019"/>
<path d="M62.3947 21.512C63.1261 21.0677 63.2118 22.0153 64.6318 22.2953C66.0822 22.5809 66.4439 21.6812 67.0181 22.5511C67.4867 23.2604 66.4252 26.5364 64.0545 26.0268C61.6682 25.5116 61.6987 21.9344 62.3947 21.512Z" fill="#111019"/>
<path d="M65.8126 25.6478C65.5661 25.8374 65.2806 25.9698 64.9768 26.0353C64.673 26.1009 64.3584 26.0979 64.0558 26.0267C63.4578 25.8994 62.9338 25.5419 62.5967 25.0312C63.0317 24.9279 63.591 24.9105 64.2907 25.0486C64.9562 25.183 65.454 25.4001 65.8126 25.6478Z" fill="#EE765E"/>
<path d="M62.6527 21.4049C63.1716 21.3041 63.3984 22.052 64.6332 22.2953C65.8835 22.5442 66.3247 21.9083 66.7902 22.2854C66.6261 23.1982 65.4585 23.6611 64.4561 23.4458C63.4631 23.2311 62.4899 22.3096 62.6527 21.4049Z" fill="#FBF9F3"/>
<path d="M68.4889 19.6054C67.9737 20.3421 68.116 21.3339 68.8139 21.8217C69.5117 22.3095 70.4917 22.1067 71.005 21.3694C71.5183 20.632 71.3748 19.6402 70.6806 19.153C69.9865 18.6658 69.0059 18.8686 68.4889 19.6054Z" fill="#FBF9F3"/>
<path d="M69.153 19.8766C68.8354 20.3309 68.9249 20.9425 69.3531 21.2455C69.7812 21.5486 70.3871 21.4216 70.7047 20.9674C71.0222 20.5132 70.9327 19.9003 70.5046 19.5985C70.0764 19.2967 69.4711 19.4224 69.153 19.8766Z" fill="#111019"/>
<path d="M70.1386 20.1928C70.1296 20.2462 70.1364 20.3011 70.1582 20.3506C70.1799 20.4002 70.2157 20.4424 70.2611 20.4718C70.3064 20.5013 70.3594 20.5169 70.4135 20.5166C70.4676 20.5162 70.5204 20.5001 70.5655 20.4701C70.6105 20.4401 70.6458 20.3975 70.667 20.3477C70.6881 20.2979 70.6943 20.2429 70.6846 20.1896C70.675 20.1363 70.65 20.087 70.6127 20.0478C70.5754 20.0085 70.5275 19.9811 70.4748 19.9688C70.4381 19.9613 70.4002 19.9611 70.3633 19.9683C70.3265 19.9755 70.2914 19.9899 70.2602 20.0107C70.2289 20.0316 70.2021 20.0584 70.1813 20.0896C70.1604 20.1208 70.1459 20.1559 70.1386 20.1928V20.1928Z" fill="#FBF9F3"/>
<path d="M69.1832 20.6632C69.1775 20.6963 69.1816 20.7303 69.195 20.761C69.2084 20.7918 69.2305 20.8179 69.2585 20.8363C69.2866 20.8546 69.3194 20.8643 69.353 20.8641C69.3865 20.864 69.4192 20.854 69.4471 20.8354C69.475 20.8168 69.4969 20.7905 69.51 20.7596C69.5231 20.7287 69.5269 20.6947 69.5209 20.6616C69.5149 20.6286 69.4994 20.5981 69.4763 20.5738C69.4531 20.5495 69.4234 20.5326 69.3907 20.525C69.3449 20.516 69.2974 20.5255 69.2586 20.5514C69.2197 20.5772 69.1926 20.6174 69.1832 20.6632Z" fill="#FBF9F3"/>
<path d="M71.5148 20.2177C71.5148 20.2177 70.6691 18.5333 68.7861 19.1126C70.8226 17.7754 71.5148 20.2177 71.5148 20.2177Z" fill="#111019"/>
<path d="M62.4556 18.0809C62.56 18.9738 61.9622 19.779 61.1195 19.8785C60.2768 19.9781 59.5088 19.3335 59.4044 18.4393C59.3 17.5452 59.9015 16.7413 60.7398 16.6417C61.5781 16.5422 62.3505 17.1874 62.4556 18.0809Z" fill="#FBF9F3"/>
<path d="M62.0504 18.0828C62.1126 18.6334 61.7459 19.13 61.2264 19.191C60.7069 19.2519 60.2321 18.855 60.17 18.3043C60.1078 17.7536 60.4726 17.2577 60.9927 17.1955C61.5129 17.1333 61.9858 17.5321 62.0504 18.0828Z" fill="#111019"/>
<path d="M61.0318 17.893C61.0144 17.9443 60.9824 17.9893 60.9398 18.0226C60.8971 18.0559 60.8457 18.076 60.7918 18.0804C60.7379 18.0847 60.6839 18.0733 60.6365 18.0473C60.589 18.0214 60.5502 17.9821 60.5248 17.9343C60.4993 17.8865 60.4884 17.8324 60.4933 17.7784C60.4983 17.7245 60.5188 17.6733 60.5525 17.6309C60.5862 17.5885 60.6315 17.557 60.6829 17.5401C60.7342 17.5232 60.7894 17.5217 60.8416 17.5358C60.9138 17.5584 60.9743 17.6085 61.0099 17.6754C61.0455 17.7422 61.0533 17.8204 61.0318 17.893V17.893Z" fill="#FBF9F3"/>
<path d="M61.6529 18.7611C61.6423 18.7931 61.6226 18.8213 61.5962 18.8422C61.5697 18.8631 61.5378 18.8758 61.5042 18.8786C61.4706 18.8815 61.437 18.8745 61.4074 18.8584C61.3778 18.8423 61.3535 18.8178 61.3377 18.7881C61.3218 18.7583 61.315 18.7246 61.3181 18.691C61.3212 18.6574 61.3341 18.6255 61.3552 18.5992C61.3762 18.5728 61.4045 18.5533 61.4366 18.5429C61.4686 18.5325 61.503 18.5318 61.5355 18.5408C61.5801 18.5546 61.6175 18.5855 61.6395 18.6267C61.6615 18.668 61.6663 18.7163 61.6529 18.7611Z" fill="#FBF9F3"/>
<path d="M59.502 17.1838C59.502 17.1838 61.0443 16.103 62.4276 17.5067C61.2687 15.3625 59.502 17.1838 59.502 17.1838Z" fill="#111019"/>
<path d="M73.7145 6.39687C75.6981 4.7679 77.7414 5.18976 76.7452 7.63759C78.7587 7.03403 79.0544 8.06754 78.2596 8.95483C80.4346 8.11981 83.6872 9.78798 81.8509 11.9334C83.09 11.8998 84.6001 13.698 83.1807 14.2792C85.2314 14.4347 86.5768 16.9448 85.086 18.5277C87.2536 19.5675 87.8414 23.7239 84.6809 23.0426C85.2955 25.0082 83.7966 26.8568 82.3101 24.9565C82.3101 27.2587 78.0763 27.1082 77.701 24.3411C76.5936 25.4232 75.4098 23.7811 75.4228 23.0345C73.6207 24.3312 73.8935 20.8567 75.05 20.2675C73.0142 20.2762 72.6531 18.3703 73.3535 17.8899C71.171 18.99 70.7435 15.9965 72.0901 15.7203C70.636 15.7576 71.0797 14.3059 72.0056 14.4677C70.8379 14.1964 70.5104 13.4796 71.9372 13.3291C71.0194 12.9016 69.3459 10.8738 68.4473 12.6085C67.4617 14.5107 66.5693 13.0142 66.4587 11.6484C65.2544 15.2275 63.8754 13.278 63.2273 12.1624C63.4379 14.9443 60.0717 13.5823 59.7063 12.1574C58.7281 13.377 56.9241 11.6596 57.9302 10.5515C56.3145 10.6037 55.3463 8.07438 57.0602 7.83047C56.0492 7.11243 55.9553 4.51838 58.1167 5.34158C56.7781 3.95838 58.3994 4.12141 59.1109 4.50158C58.7424 2.86203 61.1082 1.42905 62.3337 2.83963C61.8844 0.164073 64.0171 0.658118 64.6528 1.61012C65.0189 0.0334069 68.8251 0.007273 68.5828 2.89874C70.2134 2.09918 70.6533 3.43385 70.3004 4.26265C72.3635 2.75998 74.6833 3.83518 73.7145 6.39687Z" fill="#111019"/>
</svg>
