<svg width="42" height="67" viewBox="0 0 42 67" fill="none" xmlns="http://www.w3.org/2000/svg">
<path d="M41.7355 45.9315L22.0918 34.1624V2.50506C22.0919 2.35078 22.1311 2.19925 22.2055 2.06567C22.2799 1.93209 22.3868 1.82116 22.5155 1.74403C22.6443 1.6669 22.7903 1.62627 22.939 1.62622C23.0876 1.62617 23.2337 1.66671 23.3625 1.74376L41.7365 12.7515L41.7355 45.9315Z" fill="#FFD33E"/>
<path d="M41.706 14.4278L23.2874 3.43872C23.2874 3.43872 23.1488 3.98827 21.7832 5.08737C20.4177 6.18648 17.8545 6.59125 17.8545 6.59125L36.7741 17.8403C36.7741 17.8403 38.9473 17.8689 40.0063 16.886C41.0654 15.9031 41.706 14.4278 41.706 14.4278Z" fill="white"/>
<path d="M36.3428 49.2336L17.5209 37.9569C17.3923 37.8796 17.2855 37.7686 17.2112 37.635C17.1369 37.5014 17.0978 37.3499 17.0977 37.1956V6.20306C17.0978 6.04878 17.137 5.89725 17.2114 5.76367C17.2857 5.63009 17.3927 5.51916 17.5214 5.44203C17.6501 5.3649 17.7962 5.32427 17.9448 5.32422C18.0935 5.32417 18.2395 5.36471 18.3683 5.44176L36.3447 16.2112L36.3428 49.2336Z" fill="#FFD33E"/>
<path d="M18.8809 36.6343L18.8828 7.88721L34.5607 17.2798L34.5598 46.0269L18.8809 36.6343Z" fill="#F9F06F"/>
<path d="M20.333 33.1086L20.334 31.717L33.109 39.3704L33.1081 40.762L20.333 33.1086Z" fill="#D12B53"/>
<path d="M23.8906 36.1931V37.5847L29.5389 40.9697V39.5781L23.8906 36.1931Z" fill="#D12B53"/>
<path d="M41.7361 45.9403C41.7361 47.4284 38.4583 49.2464 36.2188 49.2464C36.2188 38.668 36.2188 26.635 36.2188 16.0567C38.5485 16.0567 41.7361 14.5991 41.7361 12.7515C41.7351 23.3289 41.7351 35.3658 41.7361 45.9403Z" fill="#D12B53"/>
<path d="M41.737 45.9404C41.737 47.4285 38.4583 49.2466 36.2178 49.2466V37.3357C38.4403 37.3357 41.6867 35.5432 41.7332 34.062C41.737 38.1236 41.737 42.126 41.737 45.9404Z" fill="#361F4D"/>
<path d="M41.7373 34.0285C41.7391 34.0396 41.7391 34.0509 41.7373 34.062V17.4336C41.7373 23.0877 41.7373 28.7378 41.7373 34.0285Z" fill="#361F4D"/>
<path d="M39.3372 16.6968L37.2295 21.2971L39.3372 26.0461L41.256 20.7918L39.3372 16.6968Z" fill="#FFD33E"/>
<path d="M26.5126 13.5474L33.6479 26.4096L26.5126 34.062L19.792 20.8718L26.5126 13.5474Z" fill="#FFD33E"/>
<path d="M38.0176 21.302L39.3452 18.4055L40.4802 20.8283L39.274 24.1325L38.0176 21.302Z" fill="#361F4D"/>
<path d="M33.6467 54.155L10.0752 39.9888V0.924304C10.0753 0.762059 10.1165 0.602693 10.1947 0.462205C10.2729 0.321716 10.3853 0.20505 10.5207 0.123921C10.6561 0.0427914 10.8097 5.38324e-05 10.966 5.08226e-08C11.1223 -5.37307e-05 11.2759 0.042578 11.4113 0.123614L33.6486 13.4891L33.6467 54.155Z" fill="#241533"/>
<path d="M33.6167 15.2521L11.3339 1.90723C11.3339 1.90723 11.1868 2.48435 9.75099 3.64058C8.3152 4.7968 5.62012 5.21635 5.62012 5.21635L28.4296 18.8409C28.4296 18.8409 30.7157 18.8714 31.8288 17.8373C32.942 16.8032 33.6167 15.2521 33.6167 15.2521Z" fill="white"/>
<path d="M27.9762 57.6237L5.26828 43.9785C5.13276 43.8974 5.02019 43.7807 4.9419 43.6401C4.86361 43.4996 4.82235 43.3401 4.82227 43.1778V4.81355C4.82225 4.65116 4.86344 4.49163 4.94168 4.351C5.01993 4.21037 5.13248 4.09361 5.26801 4.01245C5.40354 3.93129 5.55727 3.8886 5.71374 3.88867C5.87021 3.88874 6.02391 3.93157 6.15937 4.01285L27.9762 17.1282V57.6237Z" fill="#361F4D"/>
<path d="M7.32031 29.6221L7.32126 7.70605L25.4808 18.6222L25.4789 40.5364L7.32031 29.6221Z" fill="#241533"/>
<g style="mix-blend-mode:screen">
<g style="mix-blend-mode:screen">
<path d="M7.32031 41.2307V36.4492C7.32042 36.0246 7.42827 35.6075 7.63301 35.2399C7.83775 34.8723 8.13216 34.5671 8.48663 34.355C8.84109 34.143 9.24311 34.0316 9.65225 34.032C10.0614 34.0324 10.4632 34.1446 10.8173 34.3573L24.3174 42.4716C24.6707 42.6841 24.9641 42.9894 25.1679 43.3567C25.3718 43.724 25.479 44.1405 25.4789 44.5644V49.3459C25.4788 49.7706 25.3709 50.1878 25.1661 50.5555C24.9613 50.9232 24.6668 51.2285 24.3123 51.4406C23.9577 51.6528 23.5556 51.7643 23.1464 51.7639C22.7371 51.7636 22.3352 51.6514 21.981 51.4387L8.4828 43.3235C8.1293 43.111 7.83582 42.8058 7.6318 42.4385C7.42777 42.0712 7.32035 41.6546 7.32031 41.2307Z" fill="#361F4D"/>
</g>
</g>
<path d="M33.6487 54.164C33.6487 55.7289 30.202 57.6405 27.8467 57.6405C27.8467 46.5165 27.8467 28.0888 27.8467 16.9658C30.296 16.9658 33.6487 15.4334 33.6487 13.4902C33.6477 24.6132 33.6477 43.04 33.6487 54.164Z" fill="#1A75BB"/>
<path d="M27.8467 34.9225V32.4712C30.184 32.4712 33.5974 30.5862 33.6439 29.0242C33.6439 30.0908 33.6439 32.5421 33.6439 31.4755C33.6439 33.0109 30.184 34.9225 27.8467 34.9225Z" fill="#F2DDC5"/>
<path d="M33.6515 41.5202C33.6515 43.0822 30.2011 44.9967 27.8467 44.9967V36.8066C30.184 36.8066 33.6439 34.8743 33.6439 33.3596C33.6439 33.3882 33.6515 39.8961 33.6515 41.5202Z" fill="#F2DDC5"/>
<path d="M33.6494 41.6373C33.6513 41.649 33.6513 41.661 33.6494 41.6728V18.4133C33.6494 24.3589 33.6494 36.0729 33.6494 41.6373Z" fill="#361F4D"/>
<path d="M24.6379 63.6757L4.99414 51.9115V13.9521C4.99396 13.7977 5.03299 13.646 5.1073 13.5122C5.18161 13.3784 5.28857 13.2674 5.41741 13.1902C5.54625 13.113 5.69242 13.0724 5.84119 13.0725C5.98996 13.0726 6.13607 13.1134 6.26481 13.1908L24.6388 24.1986L24.6379 63.6757Z" fill="#FF5121"/>
<path d="M24.6083 25.8748L6.1897 14.8857C6.1897 14.8857 6.05115 15.4353 4.68558 16.5344C3.32001 17.6335 0.756836 18.0383 0.756836 18.0383L19.6765 29.2873C19.6765 29.2873 21.8496 29.3159 22.9087 28.333C23.9677 27.3501 24.6083 25.8748 24.6083 25.8748Z" fill="white"/>
<path d="M19.2452 66.9797L0.423241 55.7011C0.294553 55.6239 0.187703 55.5129 0.113414 55.3793C0.0391254 55.2457 1.19514e-05 55.0941 0 54.9398V17.6501C0.00010804 17.4958 0.0393205 17.3443 0.113698 17.2107C0.188076 17.0771 0.295001 16.9662 0.423745 16.889C0.552488 16.8119 0.69852 16.7713 0.847176 16.7712C0.995833 16.7712 1.14189 16.8117 1.27067 16.8888L19.247 27.6582L19.2452 66.9797Z" fill="#FF5121"/>
<g style="mix-blend-mode:screen">
<g style="mix-blend-mode:screen">
<path d="M1.7832 54.3785L1.78415 19.3342L17.4631 28.7268L17.4621 63.7711L1.7832 54.3785Z" fill="#FF5121"/>
</g>
</g>
<path d="M3.23438 50.8528L3.23532 49.4612L16.0104 57.1145L16.0094 58.5061L3.23438 50.8528Z" fill="white"/>
<path d="M6.79395 53.9373V55.3298L12.4422 58.7138V57.3212L6.79395 53.9373Z" fill="white"/>
<path d="M24.6394 63.6845C24.6394 65.1726 21.3616 66.9906 19.1221 66.9906C19.1221 56.4123 19.1221 38.0811 19.1221 27.5037C21.4518 27.5037 24.6394 26.0461 24.6394 24.1985C24.6384 34.7749 24.6394 53.1071 24.6394 63.6845Z" fill="#037784"/>
<path d="M24.6403 63.6846C24.6403 65.1727 21.3616 66.9907 19.1211 66.9907V45.1091C21.3436 45.1091 24.591 43.3167 24.6365 41.8354C24.6403 45.8941 24.6403 59.8712 24.6403 63.6846Z" fill="#36A39D"/>
<path d="M24.6365 30.1372V27.4978C24.591 28.9751 21.3436 30.2456 19.1211 30.2456V32.885C21.3436 32.885 24.6365 31.7366 24.6365 30.1372Z" fill="#36A39D"/>
<path d="M24.6396 51.7737C24.6415 51.7844 24.6415 51.7954 24.6396 51.8062V28.8806C24.6396 34.5347 24.6396 46.482 24.6396 51.7737Z" fill="#361F4D"/>
<path d="M9.41593 26.5691L16.5513 39.4314L9.41593 47.0837L2.69531 33.8935L9.41593 26.5691Z" fill="#FFD33E"/>
<path d="M9.51532 31.4785L13.2353 38.1844L9.51532 42.1731L6.01172 35.2968L9.51532 31.4785Z" fill="#F9F06F"/>
<g style="mix-blend-mode:screen">
<g style="mix-blend-mode:screen">
<path d="M23.7926 61.5632C23.7926 62.5855 23.1141 63.4147 22.2742 63.4147C21.4344 63.4147 20.7559 62.5855 20.7559 61.5632C20.7559 60.5409 21.4344 59.7117 22.2742 59.7117C23.1141 59.7117 23.7926 60.538 23.7926 61.5632Z" fill="#47D4CD"/>
</g>
</g>
<g style="mix-blend-mode:screen" opacity="0.6">
<g style="mix-blend-mode:screen">
<path d="M23.7926 56.9944C23.7926 58.0166 23.1141 58.8449 22.2742 58.8449C21.4344 58.8449 20.7559 58.0166 20.7559 56.9944C20.7559 55.9721 21.4344 55.1428 22.2742 55.1428C23.1141 55.1428 23.7926 55.9711 23.7926 56.9944Z" fill="#47D4CD"/>
</g>
</g>
<g style="mix-blend-mode:screen" opacity="0.3">
<g style="mix-blend-mode:screen">
<path d="M23.7926 52.4275C23.7926 53.4497 23.1141 54.278 22.2742 54.278C21.4344 54.278 20.7559 53.4497 20.7559 52.4275C20.7559 51.4052 21.4344 50.5759 22.2742 50.5759C23.1141 50.5759 23.7926 51.4042 23.7926 52.4275Z" fill="#47D4CD"/>
</g>
</g>
<g style="mix-blend-mode:screen" opacity="0.1">
<g style="mix-blend-mode:screen">
<path d="M23.7926 47.8608C23.7926 48.8831 23.1141 49.7123 22.2742 49.7123C21.4344 49.7123 20.7559 48.8831 20.7559 47.8608C20.7559 46.8385 21.4344 46.0103 22.2742 46.0103C23.1141 46.0103 23.7926 46.8385 23.7926 47.8608Z" fill="#47D4CD"/>
</g>
</g>
</svg>
