<svg xmlns="http://www.w3.org/2000/svg" viewBox="0 0 251.75 102.3"><defs><style>.cls-1{fill:#231f20;}.cls-1,.cls-3,.cls-5,.cls-6,.cls-7{fill-rule:evenodd;}.cls-2,.cls-4{fill:none;stroke:#231f20;}.cls-2{stroke-width:0.22px;}.cls-3{fill:#e6e7e8;}.cls-4{stroke-width:0.5px;}.cls-5{fill:#fff;}.cls-6{fill:#f5821f;}.cls-7{fill:#010203;}</style></defs><title>Asset 7</title><g id="Layer_2" data-name="Layer 2"><g id="Layer_1-2" data-name="Layer 1"><path class="cls-1" d="M77.69,7.71h-2.2a7.37,7.37,0,0,1,1,2.58V92c0,1.21-1.38,2.59-1.32,2.59h2.56a2.23,2.23,0,0,0,2.23-2.23V9.94A2.26,2.26,0,0,0,77.69,7.71Z"/><path class="cls-2" d="M77.69,7.71h-2.2a7.37,7.37,0,0,1,1,2.58V92c0,1.21-1.38,2.59-1.32,2.59h2.56a2.23,2.23,0,0,0,2.23-2.23V9.94A2.26,2.26,0,0,0,77.69,7.71Z"/><path class="cls-3" d="M75.49,7.71a5.2,5.2,0,0,1,1,2.58V92a4.81,4.81,0,0,1-1.32,2.59l-6.37,4.68V2.5Z"/><path class="cls-1" d="M66.35.27,2.48,10.9A2.4,2.4,0,0,0,.25,13.13V94.85a2.31,2.31,0,0,0,2.23,2.23l63.87,5a2.18,2.18,0,0,0,2.23-2.23V2.5A2.13,2.13,0,0,0,66.35.27Z"/><path class="cls-4" d="M66.35.27,2.48,10.9A2.4,2.4,0,0,0,.25,13.13V94.85a2.31,2.31,0,0,0,2.23,2.23l63.87,5a2.18,2.18,0,0,0,2.23-2.23V2.5A2.13,2.13,0,0,0,66.35.27Z"/><path class="cls-5" d="M54,34.1C19.82,13.77-3.88,66.8,33.54,79.66l0,.1C-14.32,66.54,18.58,5.5,54.13,34Z"/><path class="cls-5" d="M41,31.65c-26.73.81-29.17,31.69-14.21,42.15,5.81,4.06,15.78,6,22.34,2.06,17-11.09,7.08-28.83-6.8-31.9l-1.14-.34-.21.46c7,4.92-8.49,18,3.68,29.11,10.09-6.29,7.15-20.91,1.69-25.33l.23-.18c10.84,9.54,7.57,21,.7,25.72C43.44,76,36,74.47,31.41,71.34,20.64,64,15.25,38.4,41,31.89Z"/><path class="cls-6" d="M197.62,38.12l.32-.57v-.06c0-.05,0-.07-.13-.07s-.38.21-.51.63c0,.14.09.2.13.2A.21.21,0,0,0,197.62,38.12Zm-29.86-7.6c1.07-.52,2.14-1,3.22-1.52a34.68,34.68,0,0,1,6.58-2.5c1.56-.37,3.44-.44,4.53.74a3.55,3.55,0,0,1,.56,3.37,11.33,11.33,0,0,1-1.73,3.11,69.85,69.85,0,0,0-6.74,11.71c.41.18.75-.35,1-.74a5.29,5.29,0,0,1,.81-1l3.23-3.29c1.3-1.33,2.55-2.74,3.92-4s2.67-2.51,3.94-3.87a4.6,4.6,0,0,1,1.43-1.17c.21-.09.44-.15.66-.23a.45.45,0,0,0,.28-.18c.1-.15,0-.35,0-.53s.3-.54.56-.72c.27,0,.88-.59,1.11-.75l1.18-.79c.8-.55,1.6-1.1,2.41-1.64,1.18-.79,2.7-1.53,4.13-1A3.66,3.66,0,0,1,201,29c0,.5,0,1-1.21,4.13-.93,2.38-1.84,4.46-1.81,4.48a.61.61,0,0,0,.07-.13c1.38-1.36,10.81-10.71,15.48-13.35a4.35,4.35,0,0,1,3.56-.7,3.28,3.28,0,0,1,2,2.68,7.43,7.43,0,0,1-.48,3.48c-2.23,6.58-7.64,11.69-9.89,18.25a6.71,6.71,0,0,0-.3,4.47c.33.89,1,1.9.45,2.7a1.8,1.8,0,0,1-1.57.64,4.82,4.82,0,0,1-4.12-3.07,7.93,7.93,0,0,1-.05-5.33,23.23,23.23,0,0,1,2.37-4.89l8.82-15.12c-.11.2-.66.4-.85.52l-1,.63c-.64.42-1.27.84-1.89,1.27-1.24.87-2.46,1.78-3.64,2.73a63.69,63.69,0,0,0-6.64,6.19c-1.94,2.08-3.77,4.27-5.52,6.51a11.84,11.84,0,0,1-3.05,3.1,2.5,2.5,0,0,1-2.57.24c-1-.66-1-2.19-.61-3.37,1.44-5,5.19-9,7.16-13.79-.54-.56-1.47-.13-2.11.31-2.68,1.88-5.33,3.78-8,5.73a11.69,11.69,0,0,0-1.38,1.15,7.46,7.46,0,0,1-.81.78c-.18.12-.38.21-.57.33a5.57,5.57,0,0,0-1,1c-.49.56-1,1.12-1.48,1.69-2.34,2.65-4.55,5.39-6.82,8.1-.42.51-.85,1-1.25,1.54-1.1,1.45-2,3.05-3.21,4.41A5.36,5.36,0,0,1,166.86,58a2.5,2.5,0,0,1-2.58-.52,2.58,2.58,0,0,1-.58-2.08,6.88,6.88,0,0,1,.72-2.1c.75-1.58,1.59-3.11,2.43-4.65q2.94-5.37,5.87-10.76c.28-.51.63-1.07,1.2-1.16.27,0,.66-.07.65-.34-.1.2-.43.09-.49-.12a.84.84,0,0,1,.16-.62,51.35,51.35,0,0,0,2.86-5.93c.13-.32.2-.77-.11-.91a.73.73,0,0,0-.5.06c-.71.27-1.42.56-2.13.85-1.84.76-3.69,1.52-5.46,2.43-1.41.72-2.77,1.54-4.13,2.36a12,12,0,0,0-2.38,1.73,18.91,18.91,0,0,1-1.95,2.14,2.09,2.09,0,0,1-2.65.13,1.92,1.92,0,0,1,0-2.4,5.58,5.58,0,0,1,2.06-1.55Q163.75,32.44,167.76,30.52Z"/><path class="cls-7" d="M219.88,61.54V57.33h3l8.4-37.73h-3.69V15.32h14.56V19.6h-3.81l8.49,37.73h2.62v4.21H238.09V57.33H242l-2.17-10.11H229.31L227,57.33h3.88v4.21Zm10.4-18.66h8.59L234.68,22ZM126.41,61.54V57.33h3.87V19.6h-3.87V15.32h24.83V27.67H147V19.73h-11.9V34.39h9.93v4.82h-9.93V57.13h12.07v-9h4.33V61.54Zm-17.82-2.72a10.21,10.21,0,0,1-3.2,2.78,8.27,8.27,0,0,1-3.85.89,8.63,8.63,0,0,1-7.49-3.76Q91.41,55,91.41,48.09V27.62q0-6.07,2.67-9.63a8.58,8.58,0,0,1,7.22-3.55,7,7,0,0,1,3.78,1.07,8.72,8.72,0,0,1,3,3V15.3h3.47V28.08h-3.77l-.06-1c-.26-2.81-.82-4.85-1.7-6.09a4.24,4.24,0,0,0-3.74-1.88,4.92,4.92,0,0,0-4.45,2.21c-.94,1.47-1.42,3.77-1.42,6.89v20.5c0,3.14.47,5.42,1.41,6.86a4.94,4.94,0,0,0,4.46,2.16,4.87,4.87,0,0,0,4.36-2.32c1-1.55,1.5-3.82,1.5-6.83v-4h-4V39.76h8.38V61.54h-2.29Z"/><path class="cls-1" d="M246.91,86.37V85.29h1.5V75.64h-1.5v-1.1h4.84v1.1h-1.47v9.65h1.47v1.08Zm-11.41,0V85.29H237V75.64H235.5v-1.1h5.14a6.37,6.37,0,0,1,3.26.6,2.23,2.23,0,0,1,.92,2V78a1.93,1.93,0,0,1-.53,1.53,3.59,3.59,0,0,1-1.89.67,3.85,3.85,0,0,1,1.9.49,1.51,1.51,0,0,1,.52,1.3v3.31h1.48v1.08H243V82a1.09,1.09,0,0,0-.43-1,3.24,3.24,0,0,0-1.6-.27h-2.15v4.55h1.48v1.08Zm3.36-6.75h1.94a3.06,3.06,0,0,0,1.65-.36,1.23,1.23,0,0,0,.52-1.11V77a1.16,1.16,0,0,0-.46-1.06,3.5,3.5,0,0,0-1.74-.3h-1.91Zm-9.33,6.75V85.29H231V75.64h-1.5v-1.1h4.84v1.1H232.9v9.65h1.47v1.08ZM218.58,74.54h3.83c2.16,0,3.68.33,4.55,1a4.12,4.12,0,0,1,1.3,3.46v2.74A4.48,4.48,0,0,1,227,85.28a6.21,6.21,0,0,1-4.07,1.09h-4.35V85.29h1.49V75.64h-1.49ZM222,75.67v9.57h.5a4.58,4.58,0,0,0,3-.77,3.21,3.21,0,0,0,.89-2.54V78.81a3,3,0,0,0-.85-2.43,4.59,4.59,0,0,0-2.91-.71Zm-15.61,10.7V85.29h1.5V75.64h-1.5v-1.1h3.52l4.54,8.9v-7.8h-1.48v-1.1h4.53v1.1H216V86.49h-1.63l-4.95-9.65v8.45h1.47v1.08Zm-12.16,0V85.29h1.14l3.25-9.65h-1.42v-1.1h5.62v1.1H201.3l3.28,9.65h1v1.08h-4.37V85.29h1.51l-.83-2.58h-4.08l-.88,2.58h1.5v1.08Zm4-4.78h3.32l-1.62-5.34Zm-17.93-7h4.2l2.39,7.54,2.47-7.54h4.1v1.1H192v9.65h1.48v1.08h-4.75V85.29h1.49l.09-9.65L187.18,85h-.86l-3-9.35v9.65h1.47v1.08h-4.53V85.29h1.5V75.64h-1.5ZM170.05,86.37V85.29h1.49V75.64h-1.49v-1.1h4.84v1.1h-1.48v9.65h1.48v1.08Zm-9.19,0V82.79h1.52a3.22,3.22,0,0,0,.91,1.93,2.61,2.61,0,0,0,1.86.68,2.18,2.18,0,0,0,1.41-.44,1.39,1.39,0,0,0,.54-1.14,1.59,1.59,0,0,0-.36-1,5,5,0,0,0-1.17-1l-2.52-1.64a5.69,5.69,0,0,1-1.56-1.46,2.67,2.67,0,0,1-.52-1.58,2.52,2.52,0,0,1,.93-2,3.47,3.47,0,0,1,2.34-.79,4.08,4.08,0,0,1,1.53.28,3.62,3.62,0,0,1,1.25.82v-.88h1.36v3h-1.45a2.67,2.67,0,0,0-.88-1.5,2.44,2.44,0,0,0-1.61-.53,2,2,0,0,0-1.28.41,1.21,1.21,0,0,0-.52,1,1.43,1.43,0,0,0,.35.9,4.57,4.57,0,0,0,1.06.92l2.7,1.81a6,6,0,0,1,1.62,1.49,2.81,2.81,0,0,1,.52,1.65,2.53,2.53,0,0,1-1.06,2.08,4.2,4.2,0,0,1-2.68.82,4,4,0,0,1-1.61-.32,4.6,4.6,0,0,1-1.39-1v1.09Zm-12.35,0V85.29h1.15l3.25-9.65h-1.43v-1.1h5.63v1.1h-1.47l3.28,9.65h1v1.08h-4.38V85.29h1.52l-.84-2.58h-4.07l-.88,2.58h1.5v1.08Zm4-4.78h3.32l-1.62-5.34Zm-15.08,4.78V85.29h1.49V75.64h-1.49v-1.1h5.14a6.35,6.35,0,0,1,3.26.6,2.23,2.23,0,0,1,.92,2V78a2,2,0,0,1-.52,1.53,3.66,3.66,0,0,1-1.9.67,3.82,3.82,0,0,1,1.9.49,1.51,1.51,0,0,1,.52,1.3v3.31h1.48v1.08H145V82a1.11,1.11,0,0,0-.42-1,3.31,3.31,0,0,0-1.61-.27h-2.15v4.55h1.47v1.08Zm3.36-6.75h1.94a3.06,3.06,0,0,0,1.65-.36,1.23,1.23,0,0,0,.53-1.11V77a1.16,1.16,0,0,0-.47-1.06,3.48,3.48,0,0,0-1.73-.3h-1.92Zm-14.26,6.75V85.29h1.5V75.64h-1.5v-1.1h9.6v3.17h-1.63v-2h-4.6v3.75h3.84v1.23h-3.84v4.59h4.66V82.93h1.67v3.44Zm-12.23,0V85.29h1.5V75.64h-1.5v-1.1h3.52l4.53,8.9v-7.8H120.9v-1.1h4.53v1.1H124V86.49h-1.62l-5-9.65v8.45h1.48v1.08Zm-10.89,0V85.29h1.49V75.64h-1.49v-1.1H113v3.17h-1.63v-2h-4.6v3.75h3.84v1.23h-3.84v4.59h4.67V82.93h1.67v3.44Zm-2.63-.7a3.87,3.87,0,0,1-1.24.71,4.32,4.32,0,0,1-1.49.23,4.07,4.07,0,0,1-2.89-1,3.56,3.56,0,0,1-1-2.72V77.69a3.12,3.12,0,0,1,1-2.46,4.07,4.07,0,0,1,2.8-.91,3.91,3.91,0,0,1,1.46.27,3.05,3.05,0,0,1,1.14.78v-.83h1.34v3.27h-1.46l0-.26A2.54,2.54,0,0,0,99.79,76a2,2,0,0,0-1.45-.48,2.34,2.34,0,0,0-1.72.56,2.47,2.47,0,0,0-.55,1.76v5.25a2.39,2.39,0,0,0,.55,1.75,2.31,2.31,0,0,0,1.72.56,2.25,2.25,0,0,0,1.69-.6,2.44,2.44,0,0,0,.58-1.75V82H99.06V80.79h3.24v5.58h-.88Z"/></g></g></svg>