<svg width="66" height="66" viewBox="0 0 66 66" fill="none" xmlns="http://www.w3.org/2000/svg">
<mask id="mask0_202_755" style="mask-type:alpha" maskUnits="userSpaceOnUse" x="0" y="0" width="66" height="66">
<rect width="66" height="66" fill="#C4C4C4"/>
</mask>
<g mask="url(#mask0_202_755)">
<path fill-rule="evenodd" clip-rule="evenodd" d="M37.7922 48.1081C38.9104 46.3783 41.8925 43.4189 49.2761 43.4054C48.3442 44.7838 46.466 47.0135 43.9284 47.3243C41.3621 47.6486 39.1685 47.9324 37.7922 48.1081ZM50.7384 41.8513C50.1219 41.8243 49.5198 41.8108 48.9606 41.8243C52.5019 40.081 54.0933 35.6486 54.0933 35.6351L54.509 34.5L53.233 34.581C52.3011 34.6351 51.4409 34.7432 50.6237 34.8648C53.4194 32.2702 53.6775 27.7567 53.6775 27.7432L53.7492 26.5405L52.5449 26.9459C51.6847 27.2297 50.8818 27.5405 50.1506 27.8648C51.9284 24.5675 50.6381 20.1892 50.6381 20.1756L50.3083 19.0135L49.3047 19.7567C40.4588 26.2837 41.9642 32.4729 42.552 34.054C41.0466 36.7027 41.3334 38.8783 41.3477 38.8919L41.3764 39.1351C39.3692 41.2297 39.0538 43.2567 39.0538 43.2702L38.6094 44.8783C36.1721 46.7837 35.5699 48.8783 35.5699 48.8919L35.2115 50.0675L36.5018 49.8919C36.5162 49.8919 40.1291 49.3919 44.1434 48.9054C48.7886 48.3378 51.4696 43.0135 51.4696 42.9864L52.0287 41.9054L50.7384 41.8513ZM41.1613 42.2432C42.0502 40.4054 44.6452 37.1216 51.9714 36.2973C51.2115 37.7702 49.6345 40.1892 47.1542 40.7838C44.7169 41.3648 42.5233 41.9054 41.1613 42.2432ZM43.0825 37.3648C43.1972 36.6351 43.4839 35.6756 44.1291 34.6081C44.2581 34.4729 45.3764 33.2567 47.0108 31.5C48.2151 30.581 49.7778 29.7027 51.8137 28.9054C51.4983 30.5135 50.6667 33.2432 48.4445 34.4459C46.294 35.6081 44.3155 36.6891 43.0825 37.3648ZM45.8065 30.3783C45.018 31 44.3585 31.6216 43.8137 32.2567C43.5126 30.1892 43.8854 26.2432 49.2617 21.8513C49.5198 23.4729 49.6488 26.3108 47.9427 28.1081C47.1972 28.9054 46.466 29.6756 45.8065 30.3783ZM19.7706 16.2432V15.9189H31.5269V16V18.8648V44.1891C28.6452 42.6216 28.4158 39.2567 28.4158 39.2567V22.7837C27.6273 22.7837 26.9821 22.1756 26.9821 21.4324C26.9821 21.4054 26.9821 21.3783 26.9821 21.3648C26.7957 21.4054 26.6093 21.4324 26.4086 21.4324C25.2043 21.4324 24.2151 20.5135 24.2151 19.3648C24.2151 19.1892 24.2437 19.0135 24.2868 18.8513H23.914C20.5592 18.8648 19.8136 16.8919 19.7706 16.2432ZM46.6237 16.2432V15.9189H34.8674V16V18.8648V44.1891C37.7491 42.6216 37.9785 39.2567 37.9785 39.2567V22.7837C38.7671 22.7837 39.4122 22.1756 39.4122 21.4324C39.4122 21.4054 39.4122 21.3783 39.4122 21.3648C39.5986 21.4054 39.785 21.4324 39.9857 21.4324C41.19 21.4324 42.1793 20.5135 42.1793 19.3648C42.1793 19.1892 42.1506 19.0135 42.1076 18.8513H42.4803C45.8495 18.8648 46.5807 16.8919 46.6237 16.2432ZM28.7169 48.1081C27.5986 46.3783 24.6165 43.4189 17.233 43.4054C18.1649 44.7838 20.043 47.0135 22.5807 47.3243C25.147 47.6486 27.3405 47.9324 28.7169 48.1081ZM15.7706 41.8513C16.3871 41.8243 16.9893 41.8108 17.5484 41.8243C14.0072 40.081 12.4158 35.6486 12.4158 35.6351L12 34.5L13.276 34.581C14.2079 34.6351 15.0681 34.7432 15.8853 34.8648C13.0896 32.2702 12.8315 27.7567 12.8315 27.7432L12.7599 26.5405L13.9642 26.9459C14.8244 27.2297 15.6272 27.5405 16.3584 27.8648C14.5807 24.5675 15.871 20.1892 15.871 20.1756L16.2007 19.0135L17.2043 19.7567C26.0502 26.2837 24.5448 32.4729 23.957 34.054C25.4624 36.7027 25.1756 38.8783 25.1613 38.8919L25.1326 39.1351C27.1398 41.2297 27.4552 43.2567 27.4552 43.2702L27.8997 44.8783C30.337 46.7837 30.9391 48.8783 30.9391 48.8919L31.2975 50.0675L30.0072 49.8919C29.9929 49.8919 26.3799 49.3919 22.3656 48.9054C17.7204 48.3378 15.0394 43.0135 15.0394 42.9864L14.4803 41.9054L15.7706 41.8513ZM25.362 42.2432C24.4731 40.4054 21.8781 37.1216 14.552 36.2973C15.3118 37.7702 16.8889 40.1892 19.3692 40.7838C21.8065 41.3648 23.9857 41.9054 25.362 42.2432ZM23.4265 37.3648C23.3118 36.6351 23.0251 35.6756 22.3799 34.6081C22.2509 34.4729 21.1326 33.2567 19.4982 31.5C18.2939 30.581 16.7312 29.7027 14.6953 28.9054C15.0108 30.5135 15.8423 33.2432 18.0645 34.4459C20.2294 35.6081 22.1936 36.6891 23.4265 37.3648ZM20.7025 30.3783C21.4911 31 22.1506 31.6216 22.6954 32.2567C22.9964 30.1892 22.6237 26.2432 17.2473 21.8513C16.9893 23.4729 16.8602 26.3108 18.5663 28.1081C19.3262 28.9054 20.043 29.6756 20.7025 30.3783Z" fill="#E1BD46"/>
</g>
</svg>
