<svg xmlns="http://www.w3.org/2000/svg" viewBox="0 0 80.03 102.3"><defs><style>.cls-1{fill:#231f20;}.cls-1,.cls-3,.cls-5{fill-rule:evenodd;}.cls-2,.cls-4{fill:none;stroke:#231f20;}.cls-2{stroke-width:0.22px;}.cls-3{fill:#e6e7e8;}.cls-4{stroke-width:0.5px;}.cls-5{fill:#fff;}</style></defs><title>Asset 1</title><g id="Layer_2" data-name="Layer 2"><g id="Layer_1-2" data-name="Layer 1"><path class="cls-1" d="M77.69,7.71h-2.2a7.37,7.37,0,0,1,1,2.58V92c0,1.21-1.38,2.59-1.32,2.59h2.56a2.23,2.23,0,0,0,2.23-2.23V9.94A2.26,2.26,0,0,0,77.69,7.71Z"/><path class="cls-2" d="M77.69,7.71h-2.2a7.37,7.37,0,0,1,1,2.58V92c0,1.21-1.38,2.59-1.32,2.59h2.56a2.23,2.23,0,0,0,2.23-2.23V9.94A2.26,2.26,0,0,0,77.69,7.71Z"/><path class="cls-3" d="M75.49,7.71a5.2,5.2,0,0,1,1,2.58V92a4.81,4.81,0,0,1-1.32,2.59l-6.37,4.68V2.5Z"/><path class="cls-1" d="M66.35.27,2.48,10.9A2.4,2.4,0,0,0,.25,13.13V94.85a2.31,2.31,0,0,0,2.23,2.23l63.87,5a2.18,2.18,0,0,0,2.23-2.23V2.5A2.13,2.13,0,0,0,66.35.27Z"/><path class="cls-4" d="M66.35.27,2.48,10.9A2.4,2.4,0,0,0,.25,13.13V94.85a2.31,2.31,0,0,0,2.23,2.23l63.87,5a2.18,2.18,0,0,0,2.23-2.23V2.5A2.13,2.13,0,0,0,66.35.27Z"/><path class="cls-5" d="M54,34.1C19.82,13.77-3.88,66.8,33.54,79.66l0,.1C-14.32,66.54,18.58,5.5,54.13,34Z"/><path class="cls-5" d="M41,31.65c-26.73.81-29.17,31.69-14.21,42.15,5.81,4.06,15.78,6,22.34,2.06,17-11.09,7.08-28.83-6.8-31.9l-1.14-.34-.21.46c7,4.92-8.49,18,3.68,29.11,10.09-6.29,7.15-20.91,1.69-25.33l.23-.18c10.84,9.54,7.57,21,.7,25.72C43.44,76,36,74.47,31.41,71.34,20.64,64,15.25,38.4,41,31.89Z"/></g></g></svg>