<svg width="29" height="40" viewBox="0 0 29 40" fill="none" xmlns="http://www.w3.org/2000/svg">
<path d="M14.152 40L2.57904 36.7872L0 7.86096H28.3386L25.7569 36.7828L14.152 40Z" fill="#264DE4"/>
<path d="M23.5467 34.9411L25.7528 10.2261H14.1693V37.5408L23.5467 34.9411Z" fill="#2965F1"/>
<path d="M5.91229 20.9544L6.23021 24.5021H14.1693V20.9544H5.91229Z" fill="#EBEBEB"/>
<path d="M5.27338 13.7739L5.59585 17.3216H14.1693V13.7739H5.27338Z" fill="#EBEBEB"/>
<path d="M14.1693 30.1682L14.1537 30.1723L10.2027 29.1055L9.95008 26.276H6.38873L6.88572 31.8464L14.1529 33.8637L14.1693 33.8593V30.1682Z" fill="#EBEBEB"/>
<path d="M6.66937 0H10.9661V1.79689H8.46627V3.59379H10.9663V5.39057H6.66937V0Z" fill="black"/>
<path d="M11.8256 0H16.1224V1.56251H13.6224V1.87499H16.1224V5.46877H11.8257V3.82795H14.3256V3.51547H11.8254V0H11.8256Z" fill="black"/>
<path d="M16.9819 0H21.2787V1.56251H18.7788V1.87499H21.2787V5.46877H16.9819V3.82795H19.4818V3.51547H16.982V0H16.9819Z" fill="black"/>
<path d="M22.4036 20.9544L23.044 13.7739H14.1571V17.3216H19.1561L18.8333 20.9544H14.1571V24.5021H18.5257L18.1138 29.1032L14.157 30.1712V33.8621L21.43 31.8464L21.4833 31.247L22.3171 21.9071L22.4036 20.9544Z" fill="white"/>
</svg>
