<svg width="40" height="40" viewBox="0 0 40 40" fill="none" xmlns="http://www.w3.org/2000/svg">
<path d="M20 0C8.95437 0 0 8.95422 0 20C0 31.0458 8.95437 40 20 40C31.0458 40 40 31.0458 40 20C40 8.95422 31.0458 0 20 0ZM4.2975 20.2084L19.7914 35.7025C11.2836 35.5916 4.40828 28.7166 4.2975 20.2084ZM23.515 35.31L4.69 16.485C6.28656 9.50375 12.5348 4.29484 20 4.29484C25.2183 4.29484 29.8414 6.84063 32.6973 10.7573L30.5228 12.6759C28.2062 9.35375 24.3572 7.17953 20 7.17953C14.4523 7.17953 9.72813 10.7033 7.94234 15.6347L24.3656 32.0577C28.3539 30.6134 31.4212 27.2467 32.4484 23.0769H25.6413V20H35.7053C35.7053 27.4653 30.4966 33.7136 23.5152 35.3098L23.515 35.31Z" fill="#744C9E"/>
</svg>
