<svg width="29" height="40" viewBox="0 0 29 40" fill="none" xmlns="http://www.w3.org/2000/svg">
<path d="M28.3386 7.86096L25.7569 36.7828L14.152 40L2.57904 36.7872L0 7.86096H28.3386Z" fill="#E44D26"/>
<path d="M14.1693 37.5408L23.5467 34.9411L25.7528 10.2261H14.1693V37.5408Z" fill="#F16529"/>
<path d="M9.15054 17.3216H14.1693V13.7739H5.27338L5.35824 14.7256L6.23025 24.5021H14.1693V20.9544H9.47479L9.15054 17.3216Z" fill="#EBEBEB"/>
<path d="M9.95015 26.276H6.38879L6.88578 31.8464L14.153 33.8637L14.1693 33.8593V30.1682L14.1538 30.1723L10.2028 29.1055L9.95015 26.276Z" fill="#EBEBEB"/>
<path d="M2.6366 0H4.43949V1.78123H6.08875V0H7.89176V5.39402H6.08886V3.58779H4.4396V5.39402H2.63671V0H2.6366Z" fill="black"/>
<path d="M10.2625 1.78879H8.67554V0H13.6537V1.78879H12.0657V5.39402H10.2628V1.78879H10.2627H10.2625Z" fill="black"/>
<path d="M14.4437 0H16.3235L17.4799 1.89531L18.6352 0H20.5158V5.39402H18.7203V2.72045L17.4799 4.63831H17.4488L16.2077 2.72045V5.39402H14.4437V0Z" fill="black"/>
<path d="M21.4131 0H23.2165V3.61112H25.7519V5.39402H21.413V0H21.4131Z" fill="black"/>
<path d="M14.157 24.5021H18.5256L18.1137 29.1032L14.1569 30.1712V33.8621L21.4299 31.8464L21.4832 31.247L22.317 21.9071L22.4036 20.9544H14.157V24.5021Z" fill="white"/>
<path d="M14.1571 17.3129V17.3216H22.7265L22.7975 16.5242L22.9593 14.7256L23.044 13.7739H14.1571V17.313V17.3129Z" fill="white"/>
</svg>
