<svg width="45" height="40" viewBox="0 0 45 40" fill="none" xmlns="http://www.w3.org/2000/svg">
<path d="M36.9646 12.9648C36.8053 12.9102 36.6456 12.8568 36.4854 12.8049C35.9475 12.6304 35.627 12.0754 35.7411 11.5216C36.8366 6.20368 36.1204 1.91948 33.6743 0.508911C31.3289 -0.843349 27.4932 0.566689 23.6194 3.93803C23.4924 4.04877 23.3663 4.16057 23.2412 4.27342C22.8207 4.65266 22.1781 4.65358 21.7551 4.27715C17.6951 0.672412 13.6257 -0.846862 11.1821 0.567743C8.83886 1.92422 8.145 5.95167 9.13127 10.9916C9.29533 11.8262 8.8117 12.6598 8.00625 12.9331C7.93702 12.9566 7.86818 12.9803 7.79973 13.0041C3.03978 14.6637 0 17.2645 0 19.9621C0 22.7483 3.26334 25.5429 8.22104 27.2375C8.89344 27.4664 9.297 28.1638 9.15509 28.8598C9.13047 28.9805 9.1066 29.1014 9.0835 29.2225C8.14324 34.1749 8.8775 38.1072 11.2145 39.4551C13.6281 40.847 17.6793 39.4164 21.6239 35.9682C22.159 35.4992 22.9662 35.4979 23.4991 35.9694C23.5913 36.051 23.684 36.132 23.7773 36.2124C27.5984 39.5004 31.3721 40.828 33.7068 39.4765C36.1182 38.0805 36.902 33.8562 35.8844 28.7167C35.8613 28.6004 35.8373 28.4843 35.8125 28.3684C35.7102 27.8894 35.986 27.408 36.4508 27.2538C41.6048 25.5463 44.9583 22.7856 44.9583 19.9621C44.9583 17.2546 41.8203 14.6363 36.9646 12.9648ZM35.8468 25.4309C35.4299 25.5688 34.9865 25.3312 34.845 24.9154C34.496 23.89 34.086 22.8311 33.6195 21.7474C33.1312 20.613 33.1257 19.3273 33.6028 18.1881C33.9571 17.3418 34.2785 16.5074 34.5644 15.6901C34.8213 14.9557 35.6039 14.5275 36.3396 14.7807C40.5 16.213 43.0377 18.3305 43.0377 19.9621C43.0377 21.7001 40.297 23.9562 35.8468 25.4309ZM34.0004 29.0897C34.4503 31.3622 34.5144 33.417 34.2164 35.0233C33.9488 36.4667 33.4103 37.429 32.7444 37.8144C31.3277 38.6346 28.2977 37.5686 25.03 34.7566C24.3851 34.2005 24.3596 33.2267 24.908 32.5753C25.4449 31.9376 25.9802 31.2617 26.5116 30.5509C27.2637 29.5451 28.3933 28.8874 29.6391 28.7281C30.6871 28.5941 31.6995 28.4299 32.6674 28.2366C33.2738 28.1154 33.8803 28.4831 34.0004 29.0897ZM15.3273 37.6727C13.943 38.1615 12.8405 38.1755 12.174 37.7913C10.7559 36.9734 10.1664 33.816 10.9705 29.5807C11.1301 28.7453 11.9601 28.2373 12.7975 28.3869C13.63 28.5356 14.4959 28.6632 15.3909 28.7695C16.6349 28.9173 17.7679 29.5613 18.5323 30.5539C19.1581 31.3666 19.7943 32.1409 20.4353 32.8698C20.8624 33.3554 20.8464 34.0958 20.3601 34.5221C18.6157 36.0468 16.8678 37.1286 15.3273 37.6727ZM8.84238 25.4202C6.65013 24.6708 4.83969 23.697 3.59877 22.6343C2.48359 21.6795 1.92074 20.7313 1.92074 19.9621C1.92074 18.325 4.3613 16.2369 8.43196 14.8178C9.28348 14.5211 10.1886 15.0209 10.4877 15.8716C10.7602 16.6462 11.0616 17.4322 11.3903 18.2252C11.8636 19.3668 11.8642 20.6512 11.391 21.7928C10.9891 22.7623 10.6274 23.7215 10.3092 24.6613C10.1021 25.2729 9.45364 25.6283 8.84238 25.4202ZM11.0162 10.6226C10.1713 6.30466 10.7324 3.04747 12.1445 2.22997C13.6485 1.35925 16.9744 2.6007 20.4799 5.71336C20.8601 6.05174 20.8749 6.63454 20.5368 7.01497C19.841 7.7977 19.1516 8.63373 18.475 9.51524C17.7258 10.4914 16.6181 11.1308 15.398 11.2901C14.4788 11.4102 13.5822 11.5534 12.7148 11.7186C11.9398 11.8662 11.1685 11.3967 11.0162 10.6226ZM30.4092 15.4113C29.8852 14.5062 30.6138 13.3761 31.6418 13.5687C31.6847 13.5767 31.7274 13.5848 31.7701 13.5929C32.5122 13.7343 32.9506 14.4963 32.6982 15.2083C32.6918 15.2264 32.6853 15.2444 32.6789 15.2625C32.3194 16.272 30.9463 16.3387 30.4092 15.4113ZM21.5692 8.75125C22.0615 8.18021 22.9389 8.18114 23.4288 8.75426C23.4506 8.77978 23.4724 8.80536 23.4942 8.831C24.1777 9.63489 23.5526 10.8397 22.4974 10.8394C21.4396 10.839 20.8162 9.62879 21.505 8.82591C21.5264 8.80097 21.5478 8.77608 21.5692 8.75125ZM14.5415 15.4245C14.0164 16.3353 12.665 16.2712 12.3152 15.2798C12.3037 15.2473 12.2923 15.2148 12.281 15.1823C12.033 14.4736 12.471 13.7173 13.2091 13.5794C13.2391 13.5737 13.2692 13.5682 13.2992 13.5626C14.335 13.3714 15.0678 14.5121 14.5415 15.4245ZM14.5491 24.5927C15.0921 25.5304 14.3489 26.7081 13.2814 26.5217C13.2611 26.5181 13.2408 26.5146 13.2205 26.511C12.463 26.3774 12.0115 25.6034 12.2657 24.8774C12.2818 24.8313 12.2981 24.7851 12.3144 24.7389C12.6663 23.7454 14.0211 23.6805 14.5491 24.5927ZM23.467 31.3045C22.971 31.895 22.1021 31.8659 21.5989 31.2816C21.5651 31.2424 21.5314 31.2031 21.4977 31.1636C20.8156 30.3655 21.4293 29.1647 22.4791 29.1647C23.5699 29.1647 24.1685 30.4693 23.467 31.3045ZM30.4167 24.5795C30.9619 23.6341 32.3614 23.6908 32.737 24.7155C32.745 24.7373 32.753 24.7591 32.7609 24.7809C33.0281 25.5137 32.5777 26.3027 31.8109 26.4456C31.7669 26.4539 31.7227 26.462 31.6784 26.4701C30.6249 26.6628 29.8818 25.5073 30.4167 24.5795ZM28.7531 23.6199C27.4646 25.8582 25.0618 27.2457 22.4791 27.2443C19.9078 27.2443 17.5254 25.8963 16.2352 23.672C16.2272 23.6582 16.2192 23.6443 16.2111 23.6305C15.5669 22.5182 14.9629 21.3834 14.3997 20.2281C14.332 20.0891 14.3319 19.9268 14.3995 19.7878C14.9611 18.6322 15.5635 17.4969 16.2055 16.3839C16.2055 16.3838 16.2054 16.3838 16.2054 16.3838C16.2054 16.3838 16.2054 16.3838 16.2054 16.3838C16.8471 15.2705 17.5284 14.1806 18.2478 13.1159C18.3344 12.9878 18.4751 12.9066 18.6293 12.8956C19.8889 12.8062 21.1775 12.7597 22.479 12.7597C25.0578 12.7597 27.4559 14.1411 28.7468 16.3736C30.0427 18.6081 30.0447 21.3829 28.7531 23.6199ZM32.715 2.17272C34.2204 3.04097 34.8059 6.54227 33.8601 11.1338C33.7575 11.6313 33.2603 11.9348 32.7628 11.832C31.7394 11.6206 30.6732 11.4413 29.5742 11.2956C28.3541 11.1339 27.2475 10.4913 26.5027 9.51145C25.9343 8.76362 25.3593 8.0518 24.7813 7.38103C24.2726 6.79074 24.2932 5.89879 24.8804 5.38653C28.1995 2.49814 31.3017 1.35767 32.715 2.17272ZM22.4791 15.9475C24.6963 15.9475 26.4938 17.745 26.4938 19.9621C26.4938 22.1793 24.6963 23.9768 22.4791 23.9768C20.2619 23.9768 18.4645 22.1793 18.4645 19.9621C18.4645 17.745 20.2619 15.9475 22.4791 15.9475Z" fill="#00D8FF"/>
</svg>
