<svg width="54" height="40" viewBox="0 0 54 40" fill="none" xmlns="http://www.w3.org/2000/svg">
<path d="M45.9279 22.9945C44.0672 23.0041 42.4499 23.4523 41.0959 24.1148C40.5988 23.1307 40.102 22.2541 40.0145 21.611C39.9169 20.8609 39.8001 20.403 39.9169 19.5067C40.0339 18.6104 40.56 17.334 40.5501 17.2367C40.5405 17.1393 40.4331 16.6814 39.3616 16.6717C38.29 16.6619 37.3644 16.8763 37.2572 17.1588C37.1501 17.4412 36.9455 18.0843 36.8091 18.7466C36.624 19.721 34.6659 23.1988 33.5456 25.0207C33.185 24.3097 32.8733 23.6861 32.805 23.1892C32.7076 22.4392 32.5906 21.9812 32.7076 21.0849C32.8246 20.1886 33.3507 18.9125 33.3409 18.8149C33.3311 18.7176 33.2239 18.2596 32.1523 18.25C31.0805 18.2402 30.155 18.4545 30.048 18.737C29.9408 19.0197 29.8238 19.682 29.5998 20.3251C29.3757 20.9681 26.7745 26.7746 26.0926 28.2747C25.817 28.8819 25.5279 29.4829 25.2255 30.0771C25.2255 30.0771 25.2157 30.1064 25.1865 30.1551C25.0915 30.3414 24.9941 30.5265 24.8944 30.7104V30.72C24.7481 30.9833 24.5923 31.2267 24.5143 31.2267C24.4558 31.2267 24.3487 30.5253 24.5338 29.5705C24.9234 27.5539 25.849 24.4169 25.8394 24.3097C25.8394 24.2512 26.0147 23.7057 25.2354 23.423C24.4753 23.1406 24.2026 23.6081 24.1343 23.6081C24.0662 23.6081 24.0173 23.7738 24.0173 23.7738C24.0173 23.7738 24.8651 20.2471 22.4002 20.2471C20.861 20.2471 18.7371 21.9325 17.6849 23.4523C16.4888 24.1032 15.2938 24.7559 14.0997 25.4105C13.5252 25.7321 12.9308 26.0536 12.3755 26.3555C12.3364 26.3167 12.2975 26.2678 12.2585 26.2289C9.27728 23.0432 3.76327 20.7926 3.99706 16.5159C4.08481 14.9571 4.6205 10.8652 14.587 5.89674C22.7899 1.85358 29.3174 2.97385 30.4475 5.4582C32.0646 9.00454 26.95 15.5903 18.474 16.5449C15.2396 16.9055 13.5444 15.6585 13.1159 15.1909C12.6678 14.7037 12.5994 14.6744 12.4338 14.772C12.1611 14.9182 12.3364 15.3566 12.4338 15.6098C12.6872 16.2721 13.7295 17.4412 15.4929 18.0162C17.0517 18.5226 20.8414 18.8053 25.4301 17.0321C30.5643 15.0446 34.5782 9.52079 33.3994 4.89326C32.2204 0.197416 24.4266 -1.35157 17.0517 1.269C12.6678 2.82802 7.9134 5.28291 4.49389 8.47846C0.4313 12.2778 -0.211778 15.5805 0.0512612 16.964C0.996448 21.874 7.76736 25.0696 10.4757 27.4369C10.3393 27.5149 10.2124 27.5832 10.1055 27.6417C8.7512 28.3138 3.58777 31.0123 2.30183 33.8669C0.840588 37.1013 2.53582 39.4202 3.65609 39.7317C7.1341 40.6963 10.7095 38.9622 12.6287 36.0978C14.5479 33.2336 14.3141 29.512 13.4276 27.8072C13.4178 27.7877 13.4082 27.7681 13.3886 27.7487C13.7393 27.5441 14.0997 27.3298 14.4505 27.1252C15.0953 26.7441 15.7482 26.377 16.4088 26.0242C16.0774 26.9303 15.8338 28.0117 15.717 29.5705C15.5708 31.4022 16.3208 33.7791 17.3049 34.7143C17.7434 35.1238 18.2597 35.1334 18.591 35.1334C19.7406 35.1334 20.257 34.1786 20.8318 33.0485C21.5332 31.6652 22.1664 30.0577 22.1664 30.0577C22.1664 30.0577 21.3773 34.4028 23.5207 34.4028C24.3 34.4028 25.0891 33.3895 25.4399 32.8732V32.8828C25.4399 32.8828 25.4593 32.8536 25.4984 32.7855C25.5763 32.6589 25.625 32.5807 25.625 32.5807V32.5615C25.9367 32.0158 26.6383 30.7785 27.6806 28.7229C29.0251 26.0731 30.3209 22.7607 30.3209 22.7607C30.3209 22.7607 30.4378 23.5693 30.8371 24.9137C31.0711 25.7028 31.5579 26.5699 31.9478 27.4077C31.636 27.8462 31.4411 28.0896 31.4411 28.0896L31.4509 28.0994C31.1975 28.4306 30.9249 28.791 30.6228 29.142C29.5608 30.4083 28.2945 31.8601 28.119 32.2788C27.9142 32.7757 27.9631 33.1363 28.353 33.4286C28.6354 33.6429 29.1419 33.672 29.6583 33.6429C30.6131 33.5746 31.2853 33.3408 31.6164 33.1948C32.1329 33.0097 32.7369 32.727 33.3018 32.3081C34.3444 31.5384 34.9774 30.4375 34.9191 28.9861C34.8899 28.1872 34.6268 27.3883 34.3053 26.638C34.4029 26.5018 34.4904 26.3653 34.588 26.2289C36.2343 23.8225 37.5107 21.1823 37.5107 21.1823C37.5107 21.1823 37.6277 21.9908 38.0269 23.3355C38.2219 24.0174 38.6213 24.7579 38.9719 25.4787C37.4229 26.7356 36.4681 28.1968 36.1272 29.1516C35.5135 30.9248 35.9907 31.7235 36.8968 31.9086C37.3059 31.9964 37.8905 31.8014 38.3192 31.6163C38.8647 31.441 39.5078 31.1391 40.1216 30.6908C41.1642 29.9213 42.1674 28.8495 42.1089 27.3981C42.0797 26.7356 41.9044 26.0827 41.6608 25.4494C42.976 24.9041 44.6712 24.602 46.8338 24.8552C51.4714 25.4007 52.3871 28.2942 52.2116 29.5122C52.0363 30.7298 51.0621 31.3923 50.7408 31.5969C50.419 31.8016 50.3121 31.8697 50.3413 32.0158C50.3802 32.2301 50.536 32.2205 50.8089 32.1815C51.1889 32.1133 53.2446 31.1974 53.3321 28.9567C53.4783 26.0925 50.7504 22.9653 45.9279 22.9945ZM10.1541 35.0555C8.61477 36.7311 6.4716 37.3643 5.54605 36.8286C4.55239 36.2537 4.94204 33.7791 6.832 32.0062C7.98151 30.9248 9.46239 29.9211 10.4464 29.3075C10.6704 29.171 11.0018 28.9763 11.4012 28.7327C11.4693 28.6936 11.5084 28.6742 11.5084 28.6742L11.7422 28.528C12.4338 31.061 11.7715 33.2921 10.1541 35.0555ZM21.3579 27.4369C20.822 28.7425 19.7017 32.0841 19.0198 31.899C18.4352 31.7431 18.0746 29.2101 18.9028 26.7063C19.3217 25.4494 20.2081 23.9491 20.7246 23.3647C21.5624 22.4294 22.488 22.1174 22.7119 22.4977C22.9946 22.9945 21.689 26.6186 21.3579 27.4369ZM30.6033 31.8599C30.3791 31.9769 30.165 32.0549 30.0674 31.9964C29.9993 31.9573 30.165 31.8014 30.165 31.8014C30.165 31.8014 31.3243 30.5545 31.7821 29.9894C32.0453 29.6582 32.3568 29.2686 32.6882 28.8301V28.9567C32.6882 30.4474 31.2462 31.4508 30.6031 31.8599H30.6033ZM37.7346 30.233C37.569 30.116 37.5982 29.7264 38.1535 28.5085C38.3679 28.0311 38.8743 27.2324 39.7416 26.4627C39.839 26.7744 39.9073 27.0765 39.8975 27.359C39.8876 29.2393 38.5434 29.9407 37.7346 30.233Z" fill="#CD6799"/>
</svg>
