<svg width="140" height="149" viewBox="0 0 140 149" fill="none" xmlns="http://www.w3.org/2000/svg">
<path d="M0 74.1176C0 87.7388 11.0847 98.8235 24.7059 98.8235C31.2447 98.8235 37.1576 96.2294 41.58 92.0706L90.9176 120.268C90.7694 121.339 90.5882 122.409 90.5882 123.529C90.5882 137.151 101.673 148.235 115.294 148.235C128.915 148.235 140 137.151 140 123.529C140 109.908 128.915 98.8235 115.294 98.8235C108.755 98.8235 102.842 101.418 98.42 105.576L49.0824 77.3871C49.2306 76.3082 49.4118 75.2376 49.4118 74.1176C49.4118 72.9976 49.2306 71.927 49.0824 70.8482L98.42 42.6588C102.842 46.8176 108.755 49.4118 115.294 49.4118C128.915 49.4118 140 38.3271 140 24.7059C140 11.0847 128.915 0 115.294 0C101.673 0 90.5882 11.0847 90.5882 24.7059C90.5882 25.8259 90.7694 26.8965 90.9176 27.9753L41.58 56.1647C37.0259 51.8385 30.9872 49.4219 24.7059 49.4118C11.0847 49.4118 0 60.4965 0 74.1176Z" />
</svg>
